<svg xmlns="http://www.w3.org/2000/svg" viewBox="0 0 266 54" role="img" aria-label="Estimulação ventricular: espícula seguida de QRS largo"><defs><pattern id="p1" width="1" height="1" patternUnits="userSpaceOnUse"><path d="M1 0V1M0 1H1" fill="none" stroke="#F3C9C3" stroke-width=".12"/></pattern><pattern id="p5" width="5" height="5" patternUnits="userSpaceOnUse"><rect width="5" height="5" fill="url(#p1)"/><path d="M5 0V5M0 5H5" fill="none" stroke="#E39C93" stroke-width=".3"/></pattern></defs><rect width="266" height="54" fill="#FFF8F7"/><rect x="10.0" y="12.0" width="250.0" height="34" fill="url(#p5)"/><text x="10.0" y="8" font-family="Figtree,system-ui,sans-serif" font-size="4.2" font-weight="600" fill="#23272E">Estimulação ventricular: espícula seguida de QRS largo</text><text x="262" y="8" text-anchor="end" font-family="Figtree,system-ui,sans-serif" font-size="3.4" fill="#5E646B">morfologia de BRE quando o eletrodo está no VD · T discordante</text><path d="M12.00 13.00L12.05 13.00L12.10 29.00L14.20 29.00L15.05 31.50L15.60 29.86L16.35 43.61L16.40 43.34L17.10 28.20L17.15 27.72L17.75 29.00L19.60 28.91L19.90 28.66L20.25 27.80L21.05 23.83L21.20 23.52L21.25 23.50L21.35 23.58L22.40 28.27L22.75 28.82L32.80 29.00L32.85 13.00L32.90 13.00L32.95 29.00L35.05 29.02L35.85 31.40L35.90 31.45L36.40 29.96L36.45 29.95L37.20 43.93L37.95 27.91L38.00 27.76L38.55 28.97L40.45 28.91L40.75 28.63L41.10 27.74L41.90 23.77L42.05 23.51L42.10 23.50L42.20 23.61L43.20 28.18L43.55 28.79L53.65 29.00L53.70 13.00L53.75 13.00L53.80 29.00L55.85 29.00L56.70 31.45L56.75 31.40L57.25 29.91L57.30 30.22L58.00 43.28L58.05 43.71L58.80 27.68L59.40 29.00L61.30 28.90L61.60 28.61L61.95 27.68L62.75 23.73L62.85 23.54L62.90 23.50L63.00 23.56L63.30 24.60L64.05 28.22L64.40 28.81L74.45 29.00L74.50 13.00L74.55 13.00L74.60 29.00L76.70 29.00L77.55 31.50L78.10 29.86L78.85 43.61L78.90 43.34L79.60 28.20L79.65 27.72L80.25 29.00L82.10 28.91L82.40 28.66L82.75 27.80L83.55 23.83L83.70 23.52L83.75 23.50L83.85 23.58L84.90 28.27L85.25 28.82L95.30 29.00L95.35 13.00L95.40 13.00L95.45 29.00L97.55 29.02L98.35 31.40L98.40 31.45L98.90 29.96L98.95 29.95L99.70 43.93L100.45 27.91L100.50 27.76L101.05 28.97L102.95 28.91L103.25 28.63L103.60 27.74L104.40 23.77L104.55 23.51L104.60 23.50L104.70 23.61L105.70 28.18L106.05 28.79L116.15 29.00L116.20 13.00L116.25 13.00L116.30 29.00L118.35 29.00L119.20 31.45L119.25 31.40L119.75 29.91L119.80 30.22L120.50 43.28L120.55 43.71L121.30 27.68L121.90 29.00L123.80 28.90L124.10 28.61L124.45 27.68L125.25 23.73L125.35 23.54L125.40 23.50L125.50 23.56L125.80 24.60L126.55 28.22L126.90 28.81L136.95 29.00L137.00 13.00L137.10 13.00L137.15 29.00L139.20 29.00L140.05 31.50L140.60 29.86L141.35 43.61L141.40 43.34L142.10 28.20L142.15 27.72L142.75 29.00L144.60 28.91L144.90 28.66L145.25 27.80L146.05 23.83L146.20 23.52L146.25 23.50L146.35 23.58L147.40 28.27L147.75 28.82L157.80 29.00L157.85 13.00L157.90 13.00L157.95 29.00L160.05 29.02L160.85 31.40L160.90 31.45L161.40 29.96L161.45 29.95L162.20 43.93L162.95 27.91L163.00 27.76L163.55 28.97L165.45 28.91L165.75 28.63L166.10 27.74L166.90 23.77L167.05 23.51L167.10 23.50L167.20 23.61L168.20 28.18L168.55 28.79L178.65 29.00L178.70 13.00L178.75 13.00L178.80 29.00L180.85 29.00L181.70 31.45L181.75 31.40L182.25 29.91L182.30 30.22L183.00 43.28L183.05 43.71L183.80 27.68L184.40 29.00L186.30 28.90L186.60 28.61L186.95 27.68L187.75 23.73L187.85 23.54L187.90 23.50L188.00 23.56L188.30 24.60L189.05 28.22L189.40 28.81L199.45 29.00L199.50 13.00L199.55 13.00L199.60 29.00L201.70 29.00L202.55 31.50L203.10 29.86L203.85 43.61L203.90 43.34L204.60 28.20L204.65 27.72L205.25 29.00L207.10 28.91L207.40 28.66L207.75 27.80L208.55 23.83L208.70 23.52L208.75 23.50L208.85 23.58L209.90 28.27L210.25 28.82L220.30 29.00L220.35 13.00L220.40 13.00L220.45 29.00L222.55 29.02L223.35 31.40L223.40 31.45L223.90 29.96L223.95 29.95L224.70 43.93L225.45 27.91L225.50 27.76L226.05 28.97L227.95 28.91L228.25 28.63L228.60 27.74L229.40 23.77L229.55 23.51L229.60 23.50L229.70 23.61L230.70 28.18L231.05 28.79L241.15 29.00L241.20 13.00L241.25 13.00L241.30 29.00L243.35 29.00L244.20 31.45L244.25 31.40L244.75 29.91L244.80 30.22L245.50 43.28L245.55 43.71L246.30 27.68L246.90 29.00L248.80 28.90L249.10 28.61L249.45 27.68L250.25 23.73L250.35 23.54L250.40 23.50L250.50 23.56L250.80 24.60L251.55 28.22L251.90 28.81L255.75 29.00" fill="none" stroke="#1A1A1A" stroke-width="0.42" stroke-linejoin="round" stroke-linecap="round"/><text x="13" y="17" font-family="Figtree,system-ui,sans-serif" font-size="3.6" font-weight="600" fill="#23272E">II</text><text x="10.0" y="52" font-family="Figtree,system-ui,sans-serif" font-size="3.2" fill="#5E646B">25 mm/s · 10 mm/mV · traçado sintetizado para ensino — ClínicaMed</text></svg>