<svg xmlns="http://www.w3.org/2000/svg" viewBox="0 0 264 184" role="img" aria-label="Supra de ST de V1 a V4 com onda R em progressão perdida"><defs><pattern id="p1" width="1" height="1" patternUnits="userSpaceOnUse"><path d="M1 0V1M0 1H1" fill="none" stroke="#F3C9C3" stroke-width=".12"/></pattern><pattern id="p5" width="5" height="5" patternUnits="userSpaceOnUse"><rect width="5" height="5" fill="url(#p1)"/><path d="M5 0V5M0 5H5" fill="none" stroke="#E39C93" stroke-width=".3"/></pattern></defs><rect width="264" height="184" fill="#FFF8F7"/><rect x="10.0" y="12.0" width="250.0" height="164.0" fill="url(#p5)"/><text x="10.0" y="8" font-family="Figtree,system-ui,sans-serif" font-size="4.2" font-weight="600" fill="#23272E">Supra de ST de V1 a V4 com onda R em progressão perdida</text><text x="260" y="8" text-anchor="end" font-family="Figtree,system-ui,sans-serif" font-size="3.4" fill="#5E646B">parede anterior · descendente anterior proximal</text><path d="M16.00 30.80L18.55 31.97L18.90 32.47L19.00 32.34L19.05 32.12L19.50 25.16L20.00 32.54L20.25 33.40L20.70 31.84L24.65 29.80L30.25 31.98L33.05 30.80L35.60 31.97L35.95 32.48L36.05 32.33L36.10 32.04L36.55 25.09L37.05 32.56L37.30 33.41L37.75 31.84L41.70 29.80L47.30 31.98L50.10 30.80L52.65 31.97L53.00 32.47L53.10 32.33L53.60 25.02L54.10 32.58L54.35 33.40L54.75 31.93L54.80 31.84L58.75 29.80L64.35 31.98L67.15 30.80L69.70 31.97L70.05 32.47L70.15 32.32L70.50 27.18" fill="none" stroke="#1A1A1A" stroke-width="0.42" stroke-linejoin="round" stroke-linecap="round"/><path d="M11.0 32.0h2v-10h5v10h2" fill="none" stroke="#1A1A1A" stroke-width=".42"/><text x="17.0" y="19.0" font-family="Figtree,system-ui,sans-serif" font-size="3.6" font-weight="600" fill="#23272E">I</text><path d="M16.00 70.50L18.45 71.94L18.55 71.96L18.90 72.47L19.00 72.33L19.05 72.04L19.50 61.74L20.00 72.51L20.25 73.35L20.70 71.76L24.50 68.73L25.35 68.88L28.80 71.76L30.25 71.97L31.60 71.54L32.90 70.52L33.45 70.63L35.30 71.91L35.60 71.96L35.95 72.47L36.05 72.33L36.10 71.93L36.55 61.63L37.05 72.53L37.30 73.37L37.75 71.76L41.50 68.75L42.35 68.86L45.85 71.76L47.30 71.97L48.65 71.54L49.95 70.52L50.55 70.67L52.35 71.91L52.65 71.96L53.00 72.47L53.10 72.32L53.15 71.82L53.60 61.53L54.10 72.55L54.35 73.35L54.75 71.85L54.80 71.76L58.55 68.74L59.40 68.86L62.90 71.76L64.35 71.97L65.70 71.53L66.95 70.53L67.50 70.61L69.40 71.91L69.70 71.96L70.05 72.46L70.15 72.31L70.50 64.77" fill="none" stroke="#1A1A1A" stroke-width="0.42" stroke-linejoin="round" stroke-linecap="round"/><path d="M11.0 72.0h2v-10h5v10h2" fill="none" stroke="#1A1A1A" stroke-width=".42"/><text x="17.0" y="59.0" font-family="Figtree,system-ui,sans-serif" font-size="3.6" font-weight="600" fill="#23272E">II</text><path d="M16.00 111.20L18.55 111.98L18.90 112.49L19.00 112.36L19.05 112.19L19.50 107.62L20.00 112.62L20.25 113.50L20.70 112.04L20.75 112.04L20.80 113.53L31.70 111.78L33.05 111.20L35.60 111.98L35.95 112.49L36.05 112.35L36.10 112.14L36.55 107.58L37.05 112.63L37.30 113.52L37.70 112.13L37.75 112.04L37.80 113.54L48.75 111.77L50.10 111.20L52.65 111.98L53.00 112.49L53.10 112.34L53.60 107.54L54.10 112.65L54.35 113.51L54.75 112.12L54.80 112.04L54.85 113.54L65.80 111.77L67.15 111.20L69.70 111.98L70.05 112.48L70.15 112.34L70.50 108.92" fill="none" stroke="#1A1A1A" stroke-width="0.42" stroke-linejoin="round" stroke-linecap="round"/><path d="M11.0 112.0h2v-10h5v10h2" fill="none" stroke="#1A1A1A" stroke-width=".42"/><text x="17.0" y="99.0" font-family="Figtree,system-ui,sans-serif" font-size="3.6" font-weight="600" fill="#23272E">III</text><path d="M74.50 31.75L74.65 31.53L74.75 31.66L74.80 31.89L75.25 39.33L75.75 32.06L80.50 34.20L86.00 32.02L88.85 33.00L91.35 32.03L91.70 31.52L91.80 31.66L91.85 31.97L92.30 39.40L92.80 32.06L97.55 34.20L103.05 32.02L105.90 33.00L108.40 32.03L108.75 31.52L108.85 31.67L109.35 39.47L109.80 32.47L109.85 32.06L114.55 34.20L120.10 32.02L122.95 33.00L125.45 32.03L125.80 31.53L125.90 31.68L126.40 39.51L126.85 32.40L126.90 32.06L131.60 34.20L133.00 33.64" fill="none" stroke="#1A1A1A" stroke-width="0.42" stroke-linejoin="round" stroke-linecap="round"/><text x="75.5" y="19.0" font-family="Figtree,system-ui,sans-serif" font-size="3.6" font-weight="600" fill="#23272E">aVR</text><path d="M74.50 72.26L74.65 72.48L74.75 72.35L74.80 72.19L75.25 67.89L75.75 72.57L76.00 73.43L76.45 71.90L76.50 71.89L76.55 70.39L80.75 69.67L87.10 71.77L89.20 71.45L91.35 71.98L91.70 72.49L91.80 72.34L91.85 72.14L92.30 67.85L92.80 72.58L93.05 73.44L93.50 71.90L93.55 70.39L97.80 69.67L104.15 71.77L106.25 71.45L108.40 71.98L108.75 72.48L108.85 72.34L109.35 67.81L109.85 72.60L110.10 73.43L110.50 71.99L110.55 71.90L110.60 70.39L114.85 69.67L121.20 71.77L123.30 71.46L125.45 71.98L125.80 72.48L125.90 72.33L126.40 67.79L126.90 72.61L127.15 73.41L127.55 71.97L127.60 71.90L127.65 70.39L131.90 69.68L133.00 70.16" fill="none" stroke="#1A1A1A" stroke-width="0.42" stroke-linejoin="round" stroke-linecap="round"/><text x="75.5" y="59.0" font-family="Figtree,system-ui,sans-serif" font-size="3.6" font-weight="600" fill="#23272E">aVL</text><path d="M74.50 112.25L74.65 112.47L74.75 112.34L74.80 112.11L75.25 104.67L75.75 112.54L76.00 113.39L76.45 111.82L76.50 111.81L76.55 113.00L80.40 110.39L86.00 112.18L88.75 110.80L91.35 111.97L91.70 112.48L91.80 112.33L91.85 112.03L92.30 104.60L92.80 112.55L93.05 113.40L93.50 111.82L93.55 113.01L97.45 110.39L103.05 112.18L105.80 110.80L108.40 111.97L108.75 112.47L108.85 112.33L109.35 104.52L109.85 112.57L110.10 113.39L110.50 111.92L110.55 111.82L110.60 113.01L114.50 110.39L120.10 112.18L122.85 110.80L125.45 111.97L125.80 112.47L125.90 112.32L126.40 104.49L126.90 112.59L127.15 113.37L127.55 111.90L127.60 111.82L127.65 113.01L131.55 110.39L133.00 110.85" fill="none" stroke="#1A1A1A" stroke-width="0.42" stroke-linejoin="round" stroke-linecap="round"/><text x="75.5" y="99.0" font-family="Figtree,system-ui,sans-serif" font-size="3.6" font-weight="600" fill="#23272E">aVF</text><path d="M137.00 27.71L139.70 24.32L140.20 24.21L140.85 24.72L144.10 30.39L145.75 31.37L147.65 31.36L148.60 31.00L151.55 31.97L151.60 31.90L152.05 29.96L152.35 31.12L152.80 36.78L153.25 31.60L153.30 28.07L154.65 27.11L156.70 24.34L157.20 24.20L157.80 24.60L161.20 30.44L162.80 31.37L164.70 31.36L165.65 31.00L168.60 31.97L168.65 31.88L169.10 29.94L169.40 31.14L169.85 36.73L170.25 31.89L170.30 31.59L170.35 28.07L171.70 27.11L173.75 24.34L174.25 24.20L174.85 24.60L178.20 30.40L179.85 31.37L181.75 31.35L182.70 31.00L185.65 31.97L186.15 29.93L186.45 31.16L186.90 36.68L187.30 31.84L187.35 31.59L187.40 28.07L188.75 27.10L190.80 24.34L191.30 24.21L191.90 24.61L195.25 30.40L195.50 30.61" fill="none" stroke="#1A1A1A" stroke-width="0.42" stroke-linejoin="round" stroke-linecap="round"/><text x="138.0" y="19.0" font-family="Figtree,system-ui,sans-serif" font-size="3.6" font-weight="600" fill="#23272E">V1</text><path d="M137.00 65.38L139.65 60.58L140.05 60.38L140.40 60.53L144.15 69.59L145.75 71.01L147.30 71.32L148.55 70.80L151.50 71.95L151.55 71.95L151.60 71.84L152.05 68.46L152.35 70.50L152.80 77.67L153.25 71.41L153.30 65.87L154.25 65.14L156.65 60.63L157.05 60.38L157.40 60.49L158.20 61.84L161.05 69.39L162.80 71.01L164.35 71.32L165.60 70.80L168.55 71.95L168.60 71.95L168.65 71.81L169.10 68.42L169.40 70.53L169.85 77.62L170.25 71.77L170.30 71.41L170.35 65.87L171.35 65.06L173.70 60.62L174.10 60.38L174.45 60.49L175.25 61.85L178.05 69.32L179.85 71.01L181.40 71.32L182.65 70.80L185.55 71.96L185.65 71.95L186.15 68.41L186.45 70.57L186.85 77.12L186.90 77.56L187.30 71.71L187.35 71.40L187.40 65.87L188.40 65.06L190.75 60.62L191.15 60.38L191.50 60.50L192.35 61.99L195.10 69.32L195.50 69.87" fill="none" stroke="#1A1A1A" stroke-width="0.42" stroke-linejoin="round" stroke-linecap="round"/><text x="138.0" y="59.0" font-family="Figtree,system-ui,sans-serif" font-size="3.6" font-weight="600" fill="#23272E">V2</text><path d="M137.00 105.38L139.65 100.58L140.05 100.38L140.40 100.53L144.15 109.59L145.75 111.01L147.30 111.32L148.55 110.80L151.50 111.95L151.55 111.95L151.60 111.79L152.05 106.98L152.35 109.93L152.55 113.44L152.80 115.68L153.25 111.41L153.30 105.87L154.25 105.14L156.65 100.63L157.05 100.38L157.40 100.49L158.20 101.84L161.05 109.39L162.80 111.01L164.35 111.32L165.60 110.80L168.55 111.95L168.60 111.95L168.65 111.75L169.10 106.93L169.40 109.98L169.60 113.48L169.85 115.64L170.25 111.66L170.30 111.41L170.35 105.87L171.35 105.06L173.70 100.62L174.10 100.38L174.45 100.49L175.25 101.85L178.05 109.32L179.85 111.01L181.40 111.32L182.65 110.80L185.55 111.96L185.65 111.95L186.15 106.91L186.45 110.02L186.65 113.52L186.90 115.60L187.30 111.62L187.35 111.40L187.40 105.87L188.40 105.06L190.75 100.62L191.15 100.38L191.50 100.50L192.35 101.99L195.10 109.32L195.50 109.87" fill="none" stroke="#1A1A1A" stroke-width="0.42" stroke-linejoin="round" stroke-linecap="round"/><text x="138.0" y="99.0" font-family="Figtree,system-ui,sans-serif" font-size="3.6" font-weight="600" fill="#23272E">V3</text><path d="M199.50 23.46L199.95 23.38L200.55 23.88L203.85 30.18L205.50 31.28L207.05 31.37L208.30 30.80L210.85 31.96L211.20 32.46L211.30 32.31L211.35 31.96L211.80 23.08L212.30 32.66L212.55 33.76L213.00 31.56L213.05 27.53L214.25 26.70L216.45 23.52L216.95 23.38L217.50 23.75L220.90 30.19L222.55 31.28L224.10 31.37L225.35 30.80L227.90 31.96L228.25 32.46L228.35 32.31L228.40 31.87L228.85 22.99L229.35 32.68L229.60 33.74L230.00 31.69L230.05 31.56L230.10 27.53L231.35 26.63L233.50 23.52L234.00 23.38L234.55 23.76L237.95 30.19L239.60 31.28L241.15 31.37L242.40 30.80L244.95 31.96L245.30 32.45L245.40 32.30L245.90 22.94L246.40 32.70L246.65 33.72L247.05 31.67L247.10 31.55L247.15 27.53L248.40 26.62L250.55 23.51L251.05 23.38L251.65 23.83L255.00 30.20L256.65 31.28L258.00 31.43" fill="none" stroke="#1A1A1A" stroke-width="0.42" stroke-linejoin="round" stroke-linecap="round"/><text x="200.5" y="19.0" font-family="Figtree,system-ui,sans-serif" font-size="3.6" font-weight="600" fill="#23272E">V4</text><path d="M199.50 66.15L200.10 66.10L204.10 71.05L205.50 71.59L207.10 71.40L208.25 70.80L210.85 71.96L211.20 72.47L211.30 72.32L211.35 71.79L211.80 57.20L212.30 72.91L212.55 74.32L213.00 71.67L213.05 69.45L216.65 66.10L217.25 66.14L221.10 71.02L222.55 71.59L224.15 71.40L225.30 70.80L227.90 71.96L228.25 72.46L228.35 72.32L228.40 71.63L228.85 57.05L229.35 72.94L229.60 74.30L230.00 71.82L230.05 71.67L230.10 69.45L233.70 66.10L234.30 66.14L238.15 71.03L239.60 71.59L241.20 71.40L242.35 70.80L244.95 71.96L245.30 72.46L245.40 72.31L245.90 56.98L246.40 72.96L246.65 74.27L247.05 71.80L247.10 71.67L247.15 69.45L250.70 66.12L251.30 66.12L255.20 71.03L256.65 71.60L258.00 71.51" fill="none" stroke="#1A1A1A" stroke-width="0.42" stroke-linejoin="round" stroke-linecap="round"/><text x="200.5" y="59.0" font-family="Figtree,system-ui,sans-serif" font-size="3.6" font-weight="600" fill="#23272E">V5</text><path d="M199.50 109.12L200.40 109.08L204.30 111.84L206.60 111.76L208.20 110.81L210.85 111.96L211.20 112.48L211.30 112.33L211.35 111.92L211.80 101.15L212.30 112.54L212.55 113.38L213.00 111.78L216.80 109.03L217.80 109.26L221.25 111.82L223.60 111.78L225.25 110.81L227.90 111.96L228.25 112.47L228.35 112.32L228.40 111.80L228.85 101.04L229.35 112.55L229.60 113.37L230.00 111.87L230.05 111.78L233.85 109.03L234.85 109.26L238.30 111.82L240.65 111.78L242.30 110.81L244.95 111.96L245.30 112.46L245.40 112.32L245.90 100.99L246.35 111.90L246.40 112.57L246.65 113.35L247.05 111.86L247.10 111.78L250.90 109.03L251.90 109.27L255.35 111.82L256.65 111.98L258.00 111.62" fill="none" stroke="#1A1A1A" stroke-width="0.42" stroke-linejoin="round" stroke-linecap="round"/><text x="200.5" y="99.0" font-family="Figtree,system-ui,sans-serif" font-size="3.6" font-weight="600" fill="#23272E">V6</text><path d="M12.00 153.58L13.35 152.52L13.90 152.63L15.75 153.91L16.05 153.96L16.40 154.47L16.50 154.33L16.55 154.04L17.00 143.74L17.50 154.51L17.75 155.35L18.20 153.76L22.00 150.73L22.85 150.88L26.30 153.76L27.75 153.97L29.10 153.54L30.40 152.52L30.95 152.63L32.80 153.91L33.10 153.96L33.45 154.47L33.55 154.33L33.60 153.93L34.05 143.63L34.55 154.53L34.80 155.37L35.25 153.76L39.00 150.75L39.85 150.86L43.35 153.76L44.80 153.97L46.15 153.54L47.45 152.52L48.05 152.67L49.85 153.91L50.15 153.96L50.50 154.47L50.60 154.32L50.65 153.82L51.10 143.53L51.60 154.55L51.85 155.35L52.25 153.85L52.30 153.76L56.05 150.74L56.90 150.86L60.40 153.76L61.85 153.97L63.20 153.53L64.45 152.53L65.00 152.61L66.90 153.91L67.20 153.96L67.55 154.46L67.65 154.31L68.15 143.48L68.60 153.92L68.65 154.56L68.90 155.34L69.30 153.84L69.35 153.75L73.10 150.74L73.95 150.86L77.45 153.76L78.90 153.97L80.25 153.53L81.50 152.53L82.05 152.61L83.95 153.92L84.25 153.96L84.55 154.42L84.60 154.45L84.70 154.31L85.20 143.58L85.65 154.03L85.70 154.58L85.90 155.25L85.95 155.32L86.35 153.82L90.15 150.74L91.00 150.87L94.50 153.76L95.95 153.97L97.30 153.53L98.55 152.53L99.10 152.61L101.00 153.92L101.30 153.97L101.60 154.43L101.65 154.45L101.75 154.30L102.25 143.68L102.70 154.15L102.75 154.59L102.95 155.26L103.00 155.30L103.40 153.80L107.20 150.74L108.05 150.87L111.55 153.77L113.00 153.97L114.35 153.52L115.60 152.53L116.15 152.62L118.05 153.92L118.35 153.97L118.65 154.43L118.70 154.44L118.80 154.29L119.25 144.24L119.30 143.78L119.75 154.27L120.00 155.28L120.05 155.29L120.45 153.78L124.25 150.74L125.10 150.87L128.60 153.77L130.05 153.97L131.40 153.52L132.65 152.52L133.20 152.62L135.10 153.92L135.40 153.98L135.70 154.44L135.75 154.43L135.85 154.29L136.30 144.14L136.35 143.89L136.80 154.38L137.05 155.29L137.10 155.27L137.50 153.77L141.30 150.74L142.15 150.87L145.65 153.77L147.10 153.97L148.45 153.52L149.70 152.52L150.25 152.62L152.15 153.92L152.40 153.95L152.75 154.45L152.80 154.43L152.90 154.28L153.35 144.04L153.40 143.99L153.85 154.47L154.10 155.31L154.15 155.25L154.55 153.76L158.35 150.74L159.20 150.88L162.70 153.77L164.15 153.98L165.50 153.51L166.75 152.52L167.30 152.62L169.20 153.92L169.45 153.95L169.80 154.45L169.95 154.25L170.40 143.94L170.45 144.09L170.90 154.48L171.15 155.32L171.60 153.76L175.40 150.74L176.25 150.88L179.70 153.76L181.20 153.98L182.55 153.51L183.80 152.52L184.35 152.63L186.25 153.92L186.50 153.96L186.85 154.46L186.95 154.34L187.00 154.14L187.45 143.84L187.50 144.19L187.95 154.50L188.20 155.34L188.65 153.76L192.45 150.73L193.30 150.88L196.75 153.76L198.20 153.97L199.55 153.54L200.85 152.52L201.40 152.63L203.25 153.91L203.55 153.96L203.90 154.47L204.00 154.33L204.05 154.04L204.50 143.74L205.00 154.51L205.25 155.35L205.70 153.76L209.50 150.73L210.35 150.88L213.80 153.76L215.25 153.97L216.60 153.54L217.90 152.52L218.45 152.63L220.30 153.91L220.60 153.96L220.95 154.47L221.05 154.33L221.10 153.93L221.55 143.63L222.05 154.53L222.30 155.37L222.75 153.76L226.50 150.75L227.35 150.86L230.85 153.76L232.30 153.97L233.65 153.54L234.95 152.52L235.55 152.67L237.35 153.91L237.65 153.96L238.00 154.47L238.10 154.32L238.15 153.82L238.60 143.53L239.10 154.55L239.35 155.35L239.75 153.85L239.80 153.76L243.55 150.74L244.40 150.86L247.90 153.76L249.35 153.97L250.70 153.53L251.95 152.53L252.00 152.52" fill="none" stroke="#1A1A1A" stroke-width="0.42" stroke-linejoin="round" stroke-linecap="round"/><text x="13" y="141" font-family="Figtree,system-ui,sans-serif" font-size="3.6" font-weight="600" fill="#23272E">II</text><text x="10.0" y="182" font-family="Figtree,system-ui,sans-serif" font-size="3.2" fill="#5E646B">25 mm/s · 10 mm/mV · traçado sintetizado para ensino — ClínicaMed</text></svg>