<svg xmlns="http://www.w3.org/2000/svg" viewBox="0 0 264 184" role="img" aria-label="Supra de ST em II, III e aVF com infra recíproco em I e aVL"><defs><pattern id="p1" width="1" height="1" patternUnits="userSpaceOnUse"><path d="M1 0V1M0 1H1" fill="none" stroke="#F3C9C3" stroke-width=".12"/></pattern><pattern id="p5" width="5" height="5" patternUnits="userSpaceOnUse"><rect width="5" height="5" fill="url(#p1)"/><path d="M5 0V5M0 5H5" fill="none" stroke="#E39C93" stroke-width=".3"/></pattern></defs><rect width="264" height="184" fill="#FFF8F7"/><rect x="10.0" y="12.0" width="250.0" height="164.0" fill="url(#p5)"/><text x="10.0" y="8" font-family="Figtree,system-ui,sans-serif" font-size="4.2" font-weight="600" fill="#23272E">Supra de ST em II, III e aVF com infra recíproco em I e aVL</text><text x="260" y="8" text-anchor="end" font-family="Figtree,system-ui,sans-serif" font-size="3.4" fill="#5E646B">parede inferior · pedir V3R–V4R e V7–V9</text><path d="M16.00 32.00L16.40 31.93L16.60 31.70L16.95 30.88L17.05 30.80L17.15 30.88L17.60 31.85L19.80 32.00L20.15 32.49L20.25 32.36L20.30 32.14L20.75 25.19L21.25 32.61L21.50 33.48L21.95 32.00L22.00 32.00L22.05 33.19L24.85 32.77L25.90 31.81L26.20 31.82L27.30 32.57L40.55 31.95L40.75 31.77L41.15 30.87L41.25 30.80L41.35 30.89L41.80 31.85L44.00 32.00L44.35 32.50L44.45 32.35L44.50 32.03L44.95 25.09L45.45 32.63L45.70 33.49L46.10 32.09L46.15 32.00L46.20 33.20L49.05 32.76L50.10 31.80L50.40 31.82L51.50 32.57L64.75 31.95L64.95 31.76L65.35 30.86L65.45 30.80L65.60 31.00L66.00 31.86L68.20 32.00L68.55 32.49L68.65 32.34L69.15 25.01L69.65 32.65L69.90 33.47L70.30 32.07L70.35 32.00L70.40 33.20L70.50 33.19" fill="none" stroke="#1A1A1A" stroke-width="0.42" stroke-linejoin="round" stroke-linecap="round"/><path d="M11.0 32.0h2v-10h5v10h2" fill="none" stroke="#1A1A1A" stroke-width=".42"/><text x="17.0" y="19.0" font-family="Figtree,system-ui,sans-serif" font-size="3.6" font-weight="600" fill="#23272E">I</text><path d="M16.00 72.00L16.35 71.95L16.55 71.73L16.95 70.60L17.05 70.50L17.15 70.60L17.60 71.81L19.80 72.00L20.15 72.49L20.25 72.36L20.30 72.06L20.75 61.78L21.25 72.61L21.50 73.48L21.95 72.00L22.00 72.00L22.05 68.52L24.40 69.13L24.70 68.95L25.05 68.17L25.80 64.96L25.95 64.73L26.05 64.76L26.25 65.26L27.15 69.41L27.60 70.11L33.20 71.93L33.25 72.00L40.50 71.97L40.70 71.80L41.15 70.59L41.25 70.50L41.35 70.61L41.80 71.82L44.00 72.00L44.35 72.50L44.45 72.35L44.50 71.91L44.95 61.63L45.45 72.63L45.70 73.49L46.10 72.09L46.15 72.00L46.20 68.50L48.60 69.13L48.90 68.94L49.25 68.15L50.00 64.94L50.10 64.76L50.20 64.73L50.30 64.84L51.35 69.43L51.80 70.12L57.40 71.93L57.45 72.00L64.70 71.96L64.90 71.79L65.35 70.58L65.45 70.50L65.55 70.62L66.00 71.83L68.20 72.00L68.55 72.49L68.65 72.34L69.15 61.51L69.60 71.98L69.65 72.65L69.90 73.47L70.30 72.07L70.35 72.00L70.40 68.50L70.50 68.53" fill="none" stroke="#1A1A1A" stroke-width="0.42" stroke-linejoin="round" stroke-linecap="round"/><path d="M11.0 72.0h2v-10h5v10h2" fill="none" stroke="#1A1A1A" stroke-width=".42"/><text x="17.0" y="59.0" font-family="Figtree,system-ui,sans-serif" font-size="3.6" font-weight="600" fill="#23272E">II</text><path d="M16.00 112.00L16.45 111.93L17.00 111.21L17.10 111.21L17.65 111.93L19.80 112.00L20.15 112.49L20.25 112.36L20.30 112.18L20.75 107.13L21.25 112.61L21.50 113.48L21.95 112.00L22.00 112.00L22.05 107.82L24.40 108.59L24.70 108.45L25.00 107.92L25.80 104.96L25.95 104.77L26.05 104.81L26.25 105.27L27.15 109.09L27.70 109.84L33.20 111.92L33.25 112.00L40.60 111.95L41.20 111.21L41.30 111.22L41.80 111.90L44.00 112.00L44.35 112.50L44.45 112.35L44.50 112.10L44.95 107.06L45.45 112.63L45.70 113.49L46.10 112.09L46.15 112.00L46.20 107.80L48.60 108.59L48.90 108.44L49.20 107.90L50.00 104.95L50.10 104.80L50.20 104.77L50.35 104.99L51.35 109.11L51.90 109.84L57.40 111.92L57.45 112.00L64.80 111.95L65.40 111.21L65.50 111.22L66.00 111.91L68.20 112.00L68.55 112.49L68.65 112.34L69.15 107.00L69.65 112.65L69.90 113.47L70.30 112.07L70.35 112.00L70.40 107.80L70.50 107.84" fill="none" stroke="#1A1A1A" stroke-width="0.42" stroke-linejoin="round" stroke-linecap="round"/><path d="M11.0 112.0h2v-10h5v10h2" fill="none" stroke="#1A1A1A" stroke-width=".42"/><text x="17.0" y="99.0" font-family="Figtree,system-ui,sans-serif" font-size="3.6" font-weight="600" fill="#23272E">III</text><path d="M74.50 32.00L75.55 32.00L75.90 31.51L76.00 31.64L76.05 31.87L76.50 39.30L77.00 32.00L80.30 32.09L80.75 32.48L81.60 34.13L81.75 34.20L81.95 34.07L82.90 32.29L96.30 32.04L96.55 32.26L96.90 32.94L97.00 33.00L97.15 32.85L97.55 32.12L99.75 32.00L100.10 31.50L100.20 31.65L100.25 31.99L100.70 39.40L101.20 32.00L104.50 32.09L104.95 32.49L105.80 34.13L105.95 34.20L106.15 34.06L107.10 32.29L120.50 32.04L120.75 32.27L121.10 32.95L121.20 33.00L121.35 32.83L121.75 32.12L123.95 32.00L124.30 31.51L124.40 31.66L124.90 39.49L125.35 32.35L125.40 32.00L128.70 32.09L129.15 32.50L129.95 34.09L130.10 34.20L130.25 34.16L131.30 32.28L133.00 32.00" fill="none" stroke="#1A1A1A" stroke-width="0.42" stroke-linejoin="round" stroke-linecap="round"/><text x="75.5" y="19.0" font-family="Figtree,system-ui,sans-serif" font-size="3.6" font-weight="600" fill="#23272E">aVR</text><path d="M74.50 72.00L75.55 72.00L75.90 72.49L76.00 72.36L76.05 72.20L76.50 67.91L77.00 72.61L77.25 73.48L77.70 72.00L77.75 72.00L77.80 73.79L80.60 73.48L81.65 74.17L82.00 74.04L83.20 72.98L88.95 72.04L96.40 71.95L96.95 71.41L97.10 71.44L97.60 71.95L99.75 72.00L100.10 72.50L100.20 72.35L100.70 67.85L101.20 72.63L101.45 73.49L101.85 72.09L101.90 72.00L101.95 73.80L104.80 73.49L105.85 74.17L106.20 74.03L107.40 72.98L113.15 72.03L120.60 71.94L121.15 71.41L121.30 71.45L121.80 71.95L123.95 72.00L124.30 72.49L124.40 72.34L124.90 67.80L125.40 72.65L125.65 73.47L126.05 72.07L126.10 72.00L126.15 73.80L128.95 73.47L130.05 74.17L130.40 74.03L131.60 72.98L133.00 72.72" fill="none" stroke="#1A1A1A" stroke-width="0.42" stroke-linejoin="round" stroke-linecap="round"/><text x="75.5" y="59.0" font-family="Figtree,system-ui,sans-serif" font-size="3.6" font-weight="600" fill="#23272E">aVL</text><path d="M74.50 112.00L75.55 112.00L75.90 112.49L76.00 112.36L76.05 112.13L76.50 104.70L77.00 112.61L77.25 113.48L77.70 112.00L77.75 112.00L77.80 108.22L80.15 108.90L80.45 108.73L80.75 108.15L81.55 104.95L81.70 104.73L81.80 104.76L82.00 105.25L82.90 109.27L83.40 110.00L88.95 111.92L89.00 112.00L96.30 111.95L96.50 111.77L96.90 110.87L97.00 110.80L97.10 110.89L97.55 111.85L99.75 112.00L100.10 112.50L100.20 112.35L100.25 112.01L100.70 104.60L101.20 112.63L101.45 113.49L101.85 112.09L101.90 112.00L101.95 108.20L104.35 108.90L104.65 108.72L105.00 107.98L105.75 104.93L105.85 104.76L105.95 104.73L106.10 104.96L107.10 109.29L107.60 110.01L113.15 111.93L113.20 112.00L120.50 111.95L120.70 111.76L121.10 110.86L121.20 110.80L121.35 111.00L121.75 111.86L123.95 112.00L124.30 112.49L124.40 112.34L124.90 104.51L125.40 112.65L125.65 113.47L126.05 112.07L126.10 112.00L126.15 108.20L128.55 108.90L128.85 108.72L129.20 107.96L129.95 104.92L130.05 104.76L130.15 104.74L130.30 104.97L131.30 109.30L131.80 110.01L133.00 110.48" fill="none" stroke="#1A1A1A" stroke-width="0.42" stroke-linejoin="round" stroke-linecap="round"/><text x="75.5" y="99.0" font-family="Figtree,system-ui,sans-serif" font-size="3.6" font-weight="600" fill="#23272E">aVF</text><path d="M137.00 41.88L137.45 32.00L140.35 32.13L141.40 32.98L141.70 32.94L142.85 32.06L156.05 31.96L156.30 31.74L156.65 31.06L156.75 31.00L156.90 31.15L157.30 31.88L159.95 32.00L160.00 31.91L160.45 29.53L160.75 31.06L161.20 41.97L161.60 32.61L161.65 32.00L164.55 32.14L165.60 32.99L165.90 32.94L167.05 32.06L180.25 31.96L180.50 31.73L180.85 31.05L180.95 31.00L181.10 31.17L181.50 31.88L184.15 32.00L184.65 29.50L184.95 31.09L185.40 41.82L185.80 32.46L185.85 32.00L188.70 32.12L189.80 32.99L190.15 32.90L191.25 32.06L195.50 32.00" fill="none" stroke="#1A1A1A" stroke-width="0.42" stroke-linejoin="round" stroke-linecap="round"/><text x="138.0" y="19.0" font-family="Figtree,system-ui,sans-serif" font-size="3.6" font-weight="600" fill="#23272E">V1</text><path d="M137.00 86.82L137.45 72.00L139.90 71.91L140.25 71.58L140.70 70.30L141.30 67.77L141.45 67.52L141.55 67.52L141.70 67.77L142.65 71.40L143.05 71.88L156.05 71.95L156.25 71.77L156.65 70.87L156.75 70.80L156.85 70.89L157.30 71.85L159.95 72.00L160.00 71.84L160.45 67.56L160.75 70.30L161.20 86.95L161.60 72.91L161.65 72.00L164.10 71.91L164.45 71.57L164.95 70.06L165.50 67.75L165.65 67.51L165.75 67.52L165.95 67.93L166.80 71.30L167.20 71.86L180.25 71.95L180.45 71.76L180.85 70.86L180.95 70.80L181.10 71.00L181.50 71.86L184.15 72.00L184.65 67.50L184.95 70.36L185.40 86.72L185.80 72.69L185.85 72.00L188.30 71.90L188.65 71.56L189.75 67.63L189.85 67.51L189.95 67.53L190.15 67.95L191.00 71.32L191.40 71.86L195.50 72.00" fill="none" stroke="#1A1A1A" stroke-width="0.42" stroke-linejoin="round" stroke-linecap="round"/><text x="138.0" y="59.0" font-family="Figtree,system-ui,sans-serif" font-size="3.6" font-weight="600" fill="#23272E">V2</text><path d="M137.00 122.87L137.45 112.00L139.85 111.92L140.15 111.69L140.50 110.91L141.30 107.30L141.45 107.02L141.55 107.02L141.70 107.30L142.60 111.21L142.95 111.80L156.05 111.95L156.25 111.77L156.65 110.87L156.75 110.80L156.85 110.89L157.30 111.85L159.95 112.00L160.00 111.72L160.45 104.10L160.75 108.98L161.20 122.96L161.60 112.67L161.65 112.00L164.05 111.92L164.35 111.68L164.70 110.89L165.50 107.28L165.65 107.01L165.75 107.02L165.95 107.48L166.80 111.23L167.15 111.80L180.25 111.95L180.45 111.76L180.85 110.86L180.95 110.80L181.10 111.00L181.50 111.86L184.15 112.00L184.65 104.01L184.95 109.09L185.35 121.92L185.40 122.80L185.80 112.50L185.85 112.00L188.25 111.92L188.55 111.67L188.90 110.87L189.70 107.26L189.85 107.01L189.95 107.03L190.15 107.50L191.00 111.24L191.35 111.81L195.50 112.00" fill="none" stroke="#1A1A1A" stroke-width="0.42" stroke-linejoin="round" stroke-linecap="round"/><text x="138.0" y="99.0" font-family="Figtree,system-ui,sans-serif" font-size="3.6" font-weight="600" fill="#23272E">V3</text><path d="M199.50 31.96L199.90 31.72L200.25 31.02L201.05 27.77L201.20 27.52L201.30 27.52L201.45 27.77L202.40 31.40L202.80 31.88L215.80 31.95L216.00 31.77L216.40 30.87L216.50 30.80L216.60 30.89L217.05 31.85L219.25 32.00L219.60 32.50L219.70 32.35L219.75 31.72L220.20 16.20L220.70 34.09L220.95 36.98L221.35 32.30L221.40 32.00L223.85 31.91L224.20 31.57L224.70 30.06L225.25 27.75L225.40 27.51L225.50 27.52L225.70 27.93L226.55 31.30L226.95 31.86L240.00 31.95L240.20 31.76L240.60 30.86L240.70 30.80L240.85 31.00L241.25 31.86L243.45 32.00L243.80 32.49L243.90 32.34L244.40 16.01L244.90 34.17L245.15 36.91L245.55 32.23L245.60 32.00L248.05 31.90L248.40 31.56L249.50 27.63L249.60 27.51L249.70 27.53L249.90 27.95L250.75 31.32L251.15 31.86L258.00 32.00" fill="none" stroke="#1A1A1A" stroke-width="0.42" stroke-linejoin="round" stroke-linecap="round"/><text x="200.5" y="19.0" font-family="Figtree,system-ui,sans-serif" font-size="3.6" font-weight="600" fill="#23272E">V4</text><path d="M199.50 71.96L199.90 71.76L200.25 71.17L201.05 68.42L201.20 68.21L201.30 68.21L201.50 68.55L202.35 71.40L202.75 71.88L215.80 71.95L216.00 71.77L216.40 70.87L216.50 70.80L216.60 70.89L217.05 71.85L219.25 72.00L219.60 72.50L219.70 72.35L219.75 71.75L220.20 57.19L220.70 73.05L220.95 74.49L221.35 72.15L221.40 72.00L223.90 71.90L224.25 71.57L225.30 68.32L225.40 68.21L225.50 68.22L225.70 68.56L226.55 71.41L226.95 71.88L240.00 71.95L240.20 71.76L240.60 70.86L240.70 70.80L240.85 71.00L241.25 71.86L243.45 72.00L243.80 72.49L243.90 72.34L244.40 57.01L244.90 73.08L245.15 74.45L245.55 72.11L245.60 72.00L248.10 71.90L248.45 71.56L249.50 68.31L249.60 68.21L249.70 68.22L249.90 68.58L250.75 71.42L251.15 71.88L258.00 72.00" fill="none" stroke="#1A1A1A" stroke-width="0.42" stroke-linejoin="round" stroke-linecap="round"/><text x="200.5" y="59.0" font-family="Figtree,system-ui,sans-serif" font-size="3.6" font-weight="600" fill="#23272E">V5</text><path d="M199.50 111.97L199.95 111.77L200.40 111.00L201.05 109.18L201.20 109.01L201.30 109.01L201.50 109.27L202.40 111.60L215.80 111.95L216.00 111.77L216.40 110.87L216.50 110.80L216.60 110.89L217.05 111.85L219.25 112.00L219.60 112.50L219.70 112.35L219.75 111.89L220.20 101.14L220.70 112.63L220.95 113.49L221.35 112.09L221.40 112.00L223.95 111.90L224.30 111.59L225.30 109.09L225.45 109.00L225.60 109.11L226.60 111.61L240.00 111.95L240.20 111.76L240.60 110.86L240.70 110.80L240.85 111.00L241.25 111.86L243.45 112.00L243.80 112.49L243.90 112.34L244.40 101.01L244.85 111.96L244.90 112.65L245.15 113.47L245.55 112.07L245.60 112.00L248.15 111.90L248.50 111.58L249.50 109.08L249.65 109.00L249.80 109.12L250.80 111.62L258.00 112.00" fill="none" stroke="#1A1A1A" stroke-width="0.42" stroke-linejoin="round" stroke-linecap="round"/><text x="200.5" y="99.0" font-family="Figtree,system-ui,sans-serif" font-size="3.6" font-weight="600" fill="#23272E">V6</text><path d="M12.00 154.00L13.85 153.95L14.05 153.73L14.45 152.60L14.55 152.50L14.65 152.60L15.10 153.81L17.30 154.00L17.65 154.49L17.75 154.36L17.80 154.06L18.25 143.78L18.75 154.61L19.00 155.48L19.45 154.00L19.50 154.00L19.55 150.52L21.90 151.13L22.20 150.95L22.55 150.17L23.30 146.96L23.45 146.73L23.55 146.76L23.75 147.26L24.65 151.41L25.10 152.11L30.70 153.93L30.75 154.00L38.00 153.97L38.20 153.80L38.65 152.59L38.75 152.50L38.85 152.61L39.30 153.82L41.50 154.00L41.85 154.50L41.95 154.35L42.00 153.91L42.45 143.63L42.95 154.63L43.20 155.49L43.60 154.09L43.65 154.00L43.70 150.50L46.10 151.13L46.40 150.94L46.75 150.15L47.50 146.94L47.60 146.76L47.70 146.73L47.80 146.84L48.85 151.43L49.30 152.12L54.90 153.93L54.95 154.00L62.20 153.96L62.40 153.79L62.85 152.58L62.95 152.50L63.05 152.62L63.50 153.83L65.70 154.00L66.05 154.49L66.15 154.34L66.65 143.51L67.10 153.98L67.15 154.65L67.40 155.47L67.80 154.07L67.85 154.00L67.90 150.50L70.25 151.14L70.55 150.99L70.85 150.44L71.70 146.93L71.80 146.76L71.90 146.73L72.05 146.97L73.05 151.44L73.50 152.12L79.10 153.93L79.15 154.00L86.40 153.96L86.60 153.78L87.05 152.57L87.10 152.51L87.15 152.50L87.30 152.77L87.65 153.76L87.90 153.97L89.90 154.00L90.20 154.45L90.25 154.48L90.35 154.33L90.85 143.65L91.30 154.15L91.35 154.67L91.55 155.37L91.60 155.45L92.00 154.05L92.05 154.00L92.10 150.51L94.45 151.14L94.75 150.98L95.05 150.42L95.90 146.91L96.00 146.75L96.10 146.73L96.25 146.99L97.25 151.46L97.70 152.13L103.30 153.94L103.35 154.00L110.60 153.96L110.80 153.77L111.25 152.56L111.30 152.51L111.35 152.51L111.90 153.84L114.10 154.01L114.40 154.46L114.45 154.47L114.55 154.32L115.00 144.32L115.05 143.80L115.50 154.32L115.75 155.40L115.80 155.43L116.20 154.02L116.25 154.00L116.30 150.51L118.65 151.14L118.95 150.97L119.25 150.40L120.10 146.90L120.20 146.74L120.30 146.74L120.45 147.01L121.45 151.48L121.95 152.17L127.50 153.94L127.55 154.00L134.80 153.96L135.00 153.76L135.45 152.55L135.50 152.50L135.55 152.51L136.05 153.78L136.30 153.98L138.25 154.00L138.60 154.47L138.65 154.46L138.75 154.31L139.20 144.17L139.25 143.94L139.70 154.48L139.95 155.42L140.00 155.40L140.40 154.00L140.45 154.00L140.50 150.51L142.85 151.14L143.15 150.97L143.45 150.38L144.30 146.88L144.40 146.74L144.50 146.74L144.65 147.03L145.60 151.36L146.05 152.10L151.70 153.94L151.75 154.00L159.00 153.95L159.20 153.75L159.65 152.54L159.70 152.50L159.80 152.58L160.25 153.79L160.55 153.99L162.45 154.00L162.80 154.48L162.95 154.30L163.40 144.03L163.45 144.08L163.90 154.57L164.15 155.44L164.20 155.38L164.60 154.00L164.65 154.00L164.70 150.51L167.05 151.14L167.35 150.96L167.65 150.36L168.45 146.99L168.60 146.73L168.70 146.75L168.90 147.21L169.80 151.38L170.25 152.10L175.90 153.94L175.95 154.00L183.20 153.95L183.40 153.74L183.85 152.53L183.90 152.50L184.00 152.59L184.45 153.80L186.65 154.00L187.00 154.49L187.10 154.37L187.15 154.18L187.60 143.89L187.65 144.23L188.10 154.59L188.35 155.47L188.80 154.00L188.85 154.00L188.90 150.51L191.25 151.13L191.55 150.95L191.85 150.34L192.65 146.97L192.80 146.73L192.90 146.75L193.10 147.24L194.00 151.40L194.45 152.11L200.10 153.94L200.15 154.00L207.35 153.97L207.55 153.81L208.00 152.60L208.10 152.50L208.20 152.60L208.65 153.81L210.85 154.00L211.20 154.49L211.30 154.36L211.35 154.02L211.80 143.74L212.30 154.61L212.55 155.49L213.00 154.00L213.05 150.50L215.45 151.13L215.75 150.94L216.10 150.16L216.85 146.96L217.00 146.73L217.10 146.76L217.30 147.26L218.20 151.41L218.65 152.12L224.25 153.93L224.30 154.00L231.55 153.96L231.75 153.80L232.20 152.58L232.30 152.50L232.40 152.61L232.85 153.82L235.05 154.00L235.40 154.50L235.50 154.35L235.55 153.87L236.00 143.60L236.50 154.63L236.75 155.49L237.15 154.09L237.20 154.00L237.25 150.50L239.60 151.14L239.90 150.99L240.20 150.45L241.05 146.94L241.15 146.76L241.25 146.73L241.40 146.96L242.40 151.43L242.85 152.12L248.45 153.93L248.50 154.00L252.00 154.00" fill="none" stroke="#1A1A1A" stroke-width="0.42" stroke-linejoin="round" stroke-linecap="round"/><text x="13" y="141" font-family="Figtree,system-ui,sans-serif" font-size="3.6" font-weight="600" fill="#23272E">II</text><text x="10.0" y="182" font-family="Figtree,system-ui,sans-serif" font-size="3.2" fill="#5E646B">25 mm/s · 10 mm/mV · traçado sintetizado para ensino — ClínicaMed</text></svg>