<svg xmlns="http://www.w3.org/2000/svg" viewBox="0 0 264 184" role="img" aria-label="Infra de ST em várias derivações com supra em aVR"><defs><pattern id="p1" width="1" height="1" patternUnits="userSpaceOnUse"><path d="M1 0V1M0 1H1" fill="none" stroke="#F3C9C3" stroke-width=".12"/></pattern><pattern id="p5" width="5" height="5" patternUnits="userSpaceOnUse"><rect width="5" height="5" fill="url(#p1)"/><path d="M5 0V5M0 5H5" fill="none" stroke="#E39C93" stroke-width=".3"/></pattern></defs><rect width="264" height="184" fill="#FFF8F7"/><rect x="10.0" y="12.0" width="250.0" height="164.0" fill="url(#p5)"/><text x="10.0" y="8" font-family="Figtree,system-ui,sans-serif" font-size="4.2" font-weight="600" fill="#23272E">Infra de ST em várias derivações com supra em aVR</text><text x="260" y="8" text-anchor="end" font-family="Figtree,system-ui,sans-serif" font-size="3.4" fill="#5E646B">tronco de coronária esquerda ou triarterial até prova em contrário</text><path d="M16.00 32.00L16.55 31.78L17.02 30.81L17.27 31.15L17.62 31.87L19.55 32.00L19.90 32.12L20.18 32.47L20.27 32.32L20.30 32.14L20.60 27.41L20.75 25.19L20.77 25.19L21.10 30.08L21.23 32.55L21.30 33.13L21.50 34.29L22.35 33.52L23.43 33.01L24.08 32.57L24.48 31.57L24.85 30.50L25.10 30.44L25.80 31.99L26.32 32.19L27.90 32.00L30.88 31.90L31.23 31.21L31.48 30.80L31.75 31.29L32.10 31.92L34.30 32.09L34.60 32.47L34.70 32.32L34.75 31.70L35.02 27.38L35.17 25.16L35.20 25.21L35.53 30.11L35.65 32.59L35.80 33.58L35.92 34.31L36.72 33.55L37.77 33.04L38.48 32.61L38.88 31.65L39.28 30.50L39.52 30.45L40.22 32.00L40.77 32.18L42.33 32.00L45.30 31.89L45.67 31.14L45.90 30.80L46.17 31.29L46.53 31.92L48.73 32.09L49.02 32.46L49.12 32.32L49.17 31.67L49.45 27.35L49.60 25.13L49.62 25.24L49.95 30.15L50.08 32.63L50.35 34.32L51.10 33.59L52.18 33.04L52.90 32.60L53.30 31.64L53.70 30.50L53.95 30.45L54.65 32.00L55.20 32.18L56.75 32.00L59.73 31.89L60.10 31.14L60.32 30.80L60.60 31.30L60.95 31.92L63.15 32.09L63.45 32.46L63.55 32.31L63.62 31.23L63.90 26.95L64.03 25.10L64.08 25.64L64.38 30.18L64.50 32.67L64.78 34.32L65.50 33.60L66.58 33.05L67.30 32.63L67.70 31.72L68.12 30.49L68.38 30.45L69.08 32.00L69.62 32.18L70.50 32.00" fill="none" stroke="#1A1A1A" stroke-width="0.42" stroke-linejoin="round" stroke-linecap="round"/><path d="M11.0 32.0h2v-10h5v10h2" fill="none" stroke="#1A1A1A" stroke-width=".42"/><text x="17.0" y="19.0" font-family="Figtree,system-ui,sans-serif" font-size="3.6" font-weight="600" fill="#23272E">I</text><path d="M16.00 72.00L16.50 71.81L17.00 70.53L17.20 70.71L17.60 71.81L18.25 72.00L19.88 72.09L20.18 72.47L20.27 72.32L20.30 72.06L20.60 65.11L20.75 61.78L20.77 61.78L21.10 69.08L21.23 72.52L21.25 72.90L21.50 74.47L23.18 73.33L24.38 73.11L25.07 73.17L26.20 72.30L27.48 72.00L30.85 71.89L31.15 71.26L31.43 70.52L31.62 70.72L32.02 71.81L32.67 72.00L34.30 72.09L34.60 72.47L34.70 72.32L34.73 72.02L35.02 65.07L35.17 61.74L35.20 61.82L35.53 69.13L35.65 72.57L35.70 73.07L35.92 74.49L37.58 73.34L38.80 73.12L39.50 73.16L40.62 72.30L41.90 72.00L45.28 71.89L45.58 71.26L45.85 70.52L46.05 70.72L46.42 71.78L46.95 72.00L48.73 72.09L49.02 72.46L49.12 72.32L49.15 71.97L49.45 65.03L49.60 61.69L49.62 61.86L49.95 69.18L50.08 72.63L50.15 73.24L50.35 74.50L52.00 73.34L53.23 73.12L53.92 73.16L55.02 72.31L56.30 72.00L59.70 71.89L60.00 71.25L60.27 70.52L60.47 70.73L60.85 71.78L61.38 72.00L63.15 72.09L63.45 72.46L63.55 72.31L63.58 71.93L63.88 64.98L64.03 61.65L64.05 61.91L64.38 69.23L64.50 72.68L64.78 74.51L66.40 73.34L67.65 73.12L68.35 73.16L69.45 72.31L70.50 72.00" fill="none" stroke="#1A1A1A" stroke-width="0.42" stroke-linejoin="round" stroke-linecap="round"/><path d="M11.0 72.0h2v-10h5v10h2" fill="none" stroke="#1A1A1A" stroke-width=".42"/><text x="17.0" y="59.0" font-family="Figtree,system-ui,sans-serif" font-size="3.6" font-weight="600" fill="#23272E">II</text><path d="M16.00 112.00L16.60 111.80L17.05 111.20L17.73 111.96L19.88 112.09L20.18 112.47L20.30 112.19L20.60 109.05L20.75 107.62L20.77 107.62L21.10 110.79L21.23 112.54L21.50 114.02L22.00 113.17L24.10 112.36L24.92 111.01L25.27 111.24L25.88 112.06L30.92 111.90L31.48 111.20L32.15 111.96L34.30 112.09L34.60 112.47L34.73 112.17L35.02 109.03L35.17 107.60L35.20 107.64L35.53 110.82L35.65 112.57L35.92 114.03L36.42 113.17L38.53 112.36L39.35 111.01L39.70 111.24L40.30 112.06L45.35 111.90L45.90 111.20L46.58 111.97L48.73 112.09L49.02 112.46L49.12 112.32L49.55 108.06L49.60 107.58L49.65 107.89L49.95 110.84L50.08 112.60L50.35 114.04L50.85 113.17L52.95 112.36L53.77 111.00L54.12 111.24L54.70 112.05L55.85 112.01L59.77 111.89L60.32 111.20L61.00 111.97L63.15 112.09L63.45 112.46L63.55 112.31L63.95 108.28L64.03 107.56L64.12 108.39L64.38 110.87L64.50 112.63L64.78 114.05L65.28 113.17L67.38 112.36L68.20 111.00L68.55 111.25L69.12 112.05L70.30 112.01L70.50 112.00" fill="none" stroke="#1A1A1A" stroke-width="0.42" stroke-linejoin="round" stroke-linecap="round"/><path d="M11.0 112.0h2v-10h5v10h2" fill="none" stroke="#1A1A1A" stroke-width=".42"/><text x="17.0" y="99.0" font-family="Figtree,system-ui,sans-serif" font-size="3.6" font-weight="600" fill="#23272E">III</text><path d="M74.50 32.00L75.67 31.89L76.12 31.55L76.28 31.73L76.72 36.81L76.92 38.86L76.97 39.25L77.67 29.90L78.05 30.10L78.97 30.69L80.15 31.30L80.85 31.81L81.92 31.71L83.28 32.00L86.65 32.11L87.22 33.00L87.58 32.43L87.95 32.03L90.08 31.92L90.55 31.56L90.70 31.75L91.15 36.83L91.35 38.87L91.40 39.26L92.10 29.87L93.40 30.69L94.58 31.30L95.28 31.81L96.35 31.71L97.70 32.00L101.08 32.11L101.65 33.00L102.00 32.43L102.38 32.03L104.50 31.91L104.97 31.56L105.12 31.77L105.58 36.85L105.78 38.89L105.82 39.25L106.53 29.85L107.80 30.68L108.97 31.28L109.67 31.81L110.78 31.71L112.10 32.00L115.50 32.11L116.05 33.00L116.33 32.64L116.70 32.07L118.92 31.91L119.40 31.56L119.55 31.80L120.00 36.88L120.20 38.90L120.25 39.23L120.95 29.82L122.17 30.66L123.40 31.28L124.10 31.81L125.20 31.71L126.53 32.00L129.93 32.11L130.47 33.00L130.75 32.64L131.12 32.07L133.00 32.00" fill="none" stroke="#1A1A1A" stroke-width="0.42" stroke-linejoin="round" stroke-linecap="round"/><text x="75.5" y="19.0" font-family="Figtree,system-ui,sans-serif" font-size="3.6" font-weight="600" fill="#23272E">aVR</text><path d="M74.50 72.00L75.62 72.09L75.92 72.47L76.05 72.20L76.35 69.24L76.50 67.91L76.53 67.91L76.85 70.88L76.97 72.43L77.25 73.48L77.70 72.00L79.78 71.87L80.30 71.12L80.70 70.60L81.08 70.99L81.62 71.84L83.03 72.00L86.72 71.89L87.25 71.40L87.95 71.98L90.05 72.09L90.35 72.47L90.47 72.18L90.78 69.23L90.92 67.89L90.97 68.15L91.28 70.90L91.40 72.45L91.67 73.49L92.12 72.00L94.20 71.87L94.72 71.12L95.12 70.60L95.50 71.00L96.05 71.84L97.47 72.00L101.15 71.89L101.67 71.40L102.38 71.98L104.47 72.09L104.78 72.46L104.90 72.16L105.20 69.21L105.35 67.88L105.40 68.17L105.70 70.93L105.82 72.48L106.10 73.50L106.55 72.00L108.62 71.87L109.15 71.12L109.55 70.60L109.93 71.00L110.47 71.84L111.93 72.00L115.58 71.89L116.10 71.40L116.80 71.98L118.90 72.09L119.20 72.46L119.30 72.31L119.67 68.75L119.78 67.86L119.92 69.07L120.12 70.95L120.25 72.50L120.53 73.50L120.97 72.00L123.05 71.86L123.58 71.11L123.97 70.60L124.35 71.01L124.90 71.84L126.38 72.00L130.00 71.89L130.53 71.40L131.20 71.98L133.00 72.00" fill="none" stroke="#1A1A1A" stroke-width="0.42" stroke-linejoin="round" stroke-linecap="round"/><text x="75.5" y="59.0" font-family="Figtree,system-ui,sans-serif" font-size="3.6" font-weight="600" fill="#23272E">aVL</text><path d="M74.50 112.00L75.62 112.09L75.92 112.47L76.03 112.32L76.05 112.13L76.35 107.08L76.50 104.70L76.53 104.70L76.85 109.94L76.97 112.52L77.03 112.96L77.25 114.20L77.85 113.50L79.10 112.92L80.17 112.88L80.85 112.97L81.92 112.23L83.47 112.00L86.62 111.90L86.97 111.21L87.22 110.80L87.50 111.29L87.85 111.92L90.05 112.09L90.35 112.47L90.45 112.32L90.47 112.09L90.78 107.05L90.92 104.67L90.95 104.73L91.28 109.97L91.40 112.56L91.50 113.24L91.67 114.21L92.25 113.51L93.50 112.93L94.60 112.88L95.28 112.97L96.35 112.23L97.90 112.00L101.05 111.89L101.42 111.14L101.65 110.80L101.92 111.29L102.28 111.92L104.47 112.09L104.78 112.46L104.88 112.32L104.92 111.63L105.20 107.02L105.35 104.64L105.38 104.76L105.70 110.01L105.82 112.60L106.10 114.23L106.67 113.51L107.92 112.93L109.03 112.89L109.70 112.96L110.78 112.23L112.32 112.00L115.47 111.89L115.85 111.14L116.08 110.80L116.35 111.30L116.70 111.92L118.90 112.09L119.20 112.46L119.30 112.31L119.38 111.16L119.65 106.59L119.78 104.61L119.80 104.79L120.12 110.05L120.25 112.64L120.53 114.23L121.10 113.51L122.35 112.93L123.45 112.89L124.12 112.96L125.20 112.23L126.75 112.00L129.90 111.89L130.28 111.13L130.50 110.80L130.78 111.30L131.12 111.92L133.00 112.00" fill="none" stroke="#1A1A1A" stroke-width="0.42" stroke-linejoin="round" stroke-linecap="round"/><text x="75.5" y="99.0" font-family="Figtree,system-ui,sans-serif" font-size="3.6" font-weight="600" fill="#23272E">aVF</text><path d="M137.00 39.86L137.43 32.14L137.50 32.00L139.60 32.14L140.45 33.00L140.93 32.58L141.53 32.05L146.40 31.89L146.97 31.00L147.32 31.57L147.70 31.97L149.75 31.96L150.35 29.50L150.75 31.15L150.97 36.00L151.30 41.91L151.35 41.18L151.85 32.10L153.57 32.01L154.25 32.33L154.88 33.00L155.35 32.58L155.95 32.05L160.82 31.89L161.40 31.00L161.75 31.57L162.12 31.97L164.18 31.95L164.78 29.51L165.18 31.16L165.40 36.04L165.72 41.94L165.90 38.88L166.28 32.07L168.40 32.11L169.30 33.00L169.80 32.54L170.40 32.05L175.25 31.89L175.80 31.00L176.07 31.36L176.45 31.93L178.60 31.95L179.20 29.52L179.60 31.16L179.82 36.07L180.15 41.98L180.70 32.03L182.85 32.12L183.72 33.00L184.22 32.54L184.82 32.04L189.68 31.89L190.22 31.00L190.50 31.36L190.88 31.93L193.03 31.94L193.62 29.53L194.03 31.19L194.25 36.11L194.57 41.99L195.12 32.00L195.50 32.00" fill="none" stroke="#1A1A1A" stroke-width="0.42" stroke-linejoin="round" stroke-linecap="round"/><text x="138.0" y="19.0" font-family="Figtree,system-ui,sans-serif" font-size="3.6" font-weight="600" fill="#23272E">V1</text><path d="M137.00 83.79L137.43 72.20L137.45 72.00L139.30 71.88L139.62 71.32L139.90 70.10L140.28 67.93L140.45 67.51L140.62 67.77L140.88 69.08L141.20 70.90L141.47 71.69L141.97 71.99L146.38 71.90L146.72 71.21L146.97 70.80L147.25 71.29L147.60 71.92L149.75 71.93L150.35 67.51L150.75 70.47L150.85 73.80L150.95 77.27L151.30 86.86L151.32 86.46L151.85 72.15L151.90 72.00L153.72 71.88L154.05 71.31L154.32 70.08L154.70 67.92L154.88 67.50L155.05 67.78L155.32 69.25L155.62 70.90L155.90 71.69L156.43 71.99L160.80 71.89L161.18 71.14L161.40 70.80L161.68 71.29L162.03 71.92L164.18 71.92L164.78 67.52L165.18 70.48L165.38 77.34L165.72 86.91L165.78 85.72L166.28 72.10L168.18 71.86L168.47 71.31L168.75 70.07L169.12 67.92L169.30 67.50L169.47 67.79L169.75 69.26L170.05 70.91L170.32 71.69L170.85 71.99L175.22 71.89L175.60 71.14L175.82 70.80L176.10 71.30L176.45 71.92L178.60 71.90L179.20 67.54L179.60 70.49L179.80 77.40L180.15 86.97L180.70 72.05L182.60 71.85L182.90 71.30L183.18 70.06L183.55 67.91L183.72 67.50L183.90 67.79L184.18 69.27L184.47 70.92L184.75 71.70L185.28 71.99L189.65 71.89L190.03 71.13L190.25 70.80L190.53 71.30L190.88 71.92L193.00 72.00L193.62 67.55L194.03 70.54L194.22 77.47L194.57 86.98L195.12 72.00L195.50 72.00" fill="none" stroke="#1A1A1A" stroke-width="0.42" stroke-linejoin="round" stroke-linecap="round"/><text x="138.0" y="59.0" font-family="Figtree,system-ui,sans-serif" font-size="3.6" font-weight="600" fill="#23272E">V2</text><path d="M137.00 120.64L137.43 112.15L137.50 112.00L139.30 111.87L139.60 111.32L139.85 110.19L140.28 107.48L140.45 107.01L140.62 107.30L140.88 108.75L141.20 110.77L141.45 111.60L141.88 111.97L146.38 111.90L146.72 111.21L146.97 110.80L147.25 111.29L147.60 111.92L149.72 112.00L149.75 111.88L150.35 104.01L150.75 109.27L150.95 115.81L151.30 122.90L151.32 122.60L151.85 112.11L152.07 112.00L153.72 111.86L154.03 111.32L154.28 110.18L154.70 107.47L154.88 107.00L155.05 107.31L155.30 108.77L155.62 110.78L155.90 111.65L156.38 111.98L160.80 111.89L161.18 111.14L161.40 110.80L161.68 111.29L162.03 111.92L164.15 112.00L164.20 111.52L164.78 104.04L165.18 109.30L165.38 115.87L165.72 122.94L165.82 121.07L166.28 112.07L168.15 111.86L168.45 111.31L168.70 110.17L169.12 107.46L169.30 107.00L169.47 107.32L169.72 108.78L170.03 110.67L170.28 111.56L170.68 111.96L175.20 111.91L175.55 111.27L175.80 110.80L176.05 111.17L176.40 111.88L178.57 112.00L178.62 111.50L179.18 104.27L179.20 104.06L179.60 109.32L179.80 115.93L180.15 122.97L180.70 112.03L182.57 111.86L182.88 111.31L183.12 110.16L183.55 107.45L183.72 107.00L183.90 107.33L184.15 108.79L184.45 110.68L184.70 111.56L185.10 111.96L189.62 111.91L189.98 111.26L190.22 110.80L190.47 111.17L190.82 111.88L193.00 112.00L193.10 110.81L193.60 104.24L193.62 104.09L194.03 109.37L194.22 116.00L194.57 122.99L195.12 112.00L195.50 112.00" fill="none" stroke="#1A1A1A" stroke-width="0.42" stroke-linejoin="round" stroke-linecap="round"/><text x="138.0" y="99.0" font-family="Figtree,system-ui,sans-serif" font-size="3.6" font-weight="600" fill="#23272E">V3</text><path d="M199.50 33.53L200.18 34.12L200.55 33.67L201.15 32.63L202.47 32.00L206.12 31.90L206.47 31.21L206.72 30.80L207.00 31.29L207.35 31.92L209.55 32.09L209.85 32.47L209.95 32.32L209.97 31.88L210.28 21.44L210.43 16.36L210.45 16.49L210.75 26.65L210.88 32.54L210.90 33.77L210.93 34.42L211.18 38.23L211.60 34.85L212.72 33.75L213.80 33.46L214.60 34.12L215.00 33.61L215.60 32.60L216.95 32.00L220.55 31.89L220.93 31.14L221.15 30.80L221.43 31.29L221.78 31.92L223.97 32.09L224.28 32.46L224.38 32.32L224.40 31.81L224.70 21.37L224.85 16.29L224.88 16.55L225.18 26.73L225.30 32.63L225.32 33.86L225.35 34.45L225.60 38.26L226.03 34.83L227.15 33.75L228.22 33.46L229.03 34.12L229.43 33.61L230.03 32.60L231.38 32.00L234.97 31.89L235.35 31.14L235.57 30.80L235.85 31.30L236.20 31.92L238.40 32.09L238.70 32.46L238.80 32.31L238.82 31.74L239.12 21.31L239.28 16.23L239.30 16.62L239.60 26.82L239.72 32.73L239.75 33.95L239.82 35.24L240.03 38.27L240.45 34.81L241.57 33.74L242.65 33.46L243.45 34.12L243.85 33.61L244.43 32.62L245.75 32.00L249.40 31.89L249.78 31.13L250.00 30.80L250.28 31.30L250.62 31.92L252.82 32.10L253.12 32.46L253.22 32.31L253.25 31.67L253.55 21.24L253.70 16.16L253.72 16.68L254.03 26.90L254.15 32.82L254.18 34.05L254.45 38.26L254.88 34.80L256.02 33.73L257.07 33.46L257.88 34.12L258.00 34.05" fill="none" stroke="#1A1A1A" stroke-width="0.42" stroke-linejoin="round" stroke-linecap="round"/><text x="200.5" y="19.0" font-family="Figtree,system-ui,sans-serif" font-size="3.6" font-weight="600" fill="#23272E">V4</text><path d="M199.50 73.69L200.15 74.49L200.47 74.12L201.10 72.76L202.10 72.10L206.12 71.90L206.47 71.21L206.72 70.80L207.00 71.29L207.35 71.92L209.55 72.09L209.85 72.47L209.95 72.32L209.97 71.90L210.28 62.10L210.43 57.34L210.45 57.46L210.75 66.98L210.85 70.86L210.90 72.93L210.93 73.43L211.18 75.84L211.75 74.84L212.75 73.86L213.75 73.57L214.32 74.27L214.68 74.46L215.07 73.69L215.57 72.69L216.80 72.00L220.55 71.89L220.93 71.14L221.15 70.80L221.43 71.29L221.78 71.92L223.97 72.09L224.28 72.46L224.38 72.32L224.40 71.84L224.70 62.04L224.85 57.27L224.88 57.52L225.18 67.05L225.28 70.94L225.32 73.01L225.38 73.69L225.60 75.86L226.18 74.84L227.15 73.87L228.18 73.57L228.75 74.27L229.10 74.46L229.50 73.69L230.00 72.69L231.22 72.00L234.97 71.89L235.35 71.14L235.57 70.80L235.85 71.30L236.20 71.92L238.40 72.09L238.70 72.46L238.80 72.31L238.82 71.78L239.12 61.98L239.28 57.21L239.30 57.58L239.60 67.12L239.72 72.05L239.75 73.09L239.82 73.95L240.03 75.87L240.57 74.86L241.57 73.87L242.60 73.58L243.20 74.31L243.53 74.45L243.93 73.68L244.43 72.69L245.65 72.00L249.40 71.89L249.78 71.13L250.00 70.80L250.28 71.30L250.62 71.92L252.82 72.10L253.12 72.46L253.22 72.31L253.25 71.71L253.55 61.91L253.70 57.15L253.72 57.64L254.03 67.20L254.15 72.13L254.18 73.17L254.45 75.87L255.00 74.86L256.00 73.87L257.02 73.58L257.85 74.49L258.00 74.40" fill="none" stroke="#1A1A1A" stroke-width="0.42" stroke-linejoin="round" stroke-linecap="round"/><text x="200.5" y="59.0" font-family="Figtree,system-ui,sans-serif" font-size="3.6" font-weight="600" fill="#23272E">V5</text><path d="M199.50 113.40L200.18 114.02L200.55 113.59L201.15 112.57L202.50 112.00L206.12 111.90L206.47 111.21L206.72 110.80L207.00 111.29L207.35 111.92L209.55 112.09L209.85 112.47L209.95 112.32L209.97 112.00L210.28 104.74L210.43 101.25L210.45 101.34L210.78 108.99L210.90 112.60L210.95 113.12L211.18 114.62L211.85 114.27L212.80 113.53L213.80 113.32L214.60 114.02L215.00 113.53L215.60 112.55L216.97 112.00L220.55 111.89L220.93 111.14L221.15 110.80L221.43 111.29L221.78 111.92L223.97 112.09L224.28 112.46L224.38 112.32L224.40 111.96L224.70 104.69L224.85 101.20L224.88 101.38L225.20 109.04L225.32 112.65L225.40 113.30L225.60 114.64L226.30 114.25L227.22 113.53L228.22 113.32L229.03 114.02L229.43 113.53L230.03 112.55L231.40 112.00L234.97 111.89L235.35 111.14L235.57 110.80L235.85 111.30L236.20 111.92L238.40 112.09L238.70 112.46L238.80 112.31L238.82 111.91L239.12 104.65L239.28 101.16L239.30 101.43L239.62 109.09L239.75 112.71L240.03 114.64L240.72 114.25L241.65 113.53L242.65 113.33L243.45 114.02L243.85 113.52L244.43 112.57L245.78 112.00L249.40 111.89L249.78 111.13L250.00 110.80L250.28 111.30L250.62 111.92L252.82 112.10L253.12 112.46L253.22 112.31L253.27 111.24L253.55 104.60L253.70 101.11L253.72 101.47L254.05 109.14L254.18 112.77L254.45 114.64L255.15 114.25L256.07 113.53L257.07 113.33L257.88 114.02L258.00 113.95" fill="none" stroke="#1A1A1A" stroke-width="0.42" stroke-linejoin="round" stroke-linecap="round"/><text x="200.5" y="99.0" font-family="Figtree,system-ui,sans-serif" font-size="3.6" font-weight="600" fill="#23272E">V6</text><path d="M12.00 154.00L13.93 153.90L14.22 153.27L14.50 152.53L14.70 152.71L15.10 153.81L15.75 154.00L17.38 154.09L17.68 154.47L17.77 154.32L17.80 154.06L18.10 147.11L18.25 143.78L18.27 143.78L18.60 151.08L18.73 154.52L18.75 154.90L19.00 156.47L20.67 155.33L21.88 155.11L22.57 155.17L23.70 154.30L24.98 154.00L28.35 153.89L28.65 153.26L28.93 152.52L29.12 152.72L29.52 153.81L30.18 154.00L31.80 154.09L32.10 154.47L32.20 154.32L32.23 154.02L32.52 147.07L32.67 143.74L32.70 143.82L33.02 151.13L33.15 154.57L33.20 155.07L33.42 156.49L35.08 155.34L36.30 155.12L37.00 155.16L38.12 154.30L39.40 154.00L42.78 153.89L43.08 153.26L43.35 152.52L43.55 152.72L43.92 153.78L44.45 154.00L46.23 154.09L46.52 154.46L46.62 154.32L46.65 153.97L46.95 147.03L47.10 143.69L47.12 143.86L47.45 151.18L47.58 154.63L47.65 155.24L47.85 156.50L49.50 155.34L50.73 155.12L51.42 155.16L52.52 154.31L53.80 154.00L57.20 153.89L57.50 153.25L57.77 152.52L57.98 152.73L58.35 153.78L58.88 154.00L60.65 154.09L60.95 154.46L61.05 154.31L61.08 153.93L61.38 146.98L61.53 143.65L61.55 143.91L61.88 151.23L62.00 154.68L62.28 156.51L63.90 155.34L65.15 155.12L65.85 155.16L66.95 154.31L68.22 154.00L71.62 153.89L71.92 153.24L72.20 152.52L72.40 152.73L72.78 153.78L73.32 154.00L75.08 154.10L75.38 154.46L75.47 154.31L75.53 153.29L75.80 146.94L75.95 143.61L75.97 143.95L76.30 151.28L76.42 154.74L76.70 156.50L78.33 155.34L79.58 155.12L80.27 155.16L81.38 154.31L82.65 154.00L86.05 153.89L86.35 153.24L86.62 152.52L86.83 152.74L87.20 153.79L87.75 154.00L89.50 154.10L89.80 154.46L89.90 154.31L90.05 150.87L90.38 143.56L90.47 145.66L90.72 151.33L90.85 154.79L91.12 156.50L92.75 155.34L94.00 155.12L94.70 155.16L95.80 154.31L97.08 154.00L100.45 153.91L100.75 153.31L101.05 152.52L101.25 152.74L101.62 153.79L102.18 154.00L103.92 154.10L104.22 154.45L104.33 154.31L104.70 145.74L104.80 143.52L105.12 150.73L105.27 154.81L105.55 156.50L107.17 155.34L108.40 155.11L109.12 155.16L110.22 154.31L111.50 154.00L114.88 153.91L115.17 153.31L115.48 152.51L115.68 152.75L116.05 153.79L116.62 154.00L118.33 154.07L118.65 154.45L118.75 154.30L119.08 146.81L119.22 143.52L119.55 150.78L119.70 154.83L119.97 156.50L121.60 155.34L122.82 155.11L123.55 155.16L124.65 154.31L125.93 154.00L129.30 153.90L129.60 153.30L129.88 152.54L130.07 152.69L130.47 153.80L131.05 154.00L132.75 154.07L133.07 154.45L133.18 154.29L133.47 147.32L133.62 143.99L133.65 143.56L133.97 150.83L134.12 154.84L134.40 156.50L136.03 155.34L137.25 155.11L137.97 155.16L139.07 154.31L140.35 154.00L143.72 153.90L144.03 153.29L144.30 152.53L144.50 152.69L144.90 153.80L145.50 154.00L147.18 154.07L147.50 154.44L147.60 154.25L147.90 147.28L148.05 143.95L148.07 143.61L148.40 150.88L148.53 154.30L148.55 154.85L148.82 156.50L150.45 155.34L151.67 155.11L152.40 155.15L153.50 154.31L154.78 154.00L158.15 153.90L158.45 153.29L158.72 152.53L158.92 152.70L159.32 153.80L159.92 154.00L161.60 154.08L161.93 154.44L162.03 154.20L162.32 147.24L162.47 143.91L162.50 143.65L162.83 150.93L162.95 154.35L162.97 154.86L163.25 156.50L164.88 155.34L166.10 155.11L166.82 155.15L167.93 154.31L169.20 154.00L172.57 153.90L172.88 153.28L173.15 152.53L173.35 152.70L173.75 153.80L174.38 154.00L176.03 154.08L176.33 154.48L176.43 154.33L176.45 154.15L176.75 147.20L176.90 143.86L176.93 143.69L177.25 150.98L177.38 154.41L177.40 154.87L177.65 156.45L179.35 155.32L180.55 155.12L181.25 155.15L182.35 154.31L183.62 154.00L187.00 153.90L187.30 153.28L187.57 152.53L187.78 152.71L188.17 153.81L188.80 154.00L190.45 154.08L190.75 154.47L190.85 154.33L190.88 154.11L191.17 147.15L191.32 143.82L191.35 143.74L191.68 151.03L191.80 154.46L191.82 154.89L192.08 156.46L193.75 155.33L194.95 155.11L195.65 155.17L196.78 154.30L198.05 154.00L201.43 153.90L201.73 153.27L202.00 152.53L202.20 152.71L202.60 153.81L203.25 154.00L204.88 154.09L205.18 154.47L205.28 154.32L205.30 154.06L205.60 147.11L205.75 143.78L205.78 143.78L206.10 151.08L206.22 154.52L206.25 154.90L206.50 156.47L208.18 155.33L209.38 155.11L210.07 155.17L211.20 154.30L212.47 154.00L215.85 153.89L216.15 153.26L216.42 152.52L216.62 152.72L217.03 153.81L217.68 154.00L219.30 154.09L219.60 154.47L219.70 154.32L219.72 154.02L220.03 147.07L220.18 143.74L220.20 143.82L220.52 151.13L220.65 154.57L220.70 155.07L220.92 156.49L222.57 155.34L223.80 155.12L224.50 155.16L225.62 154.30L226.90 154.00L230.28 153.89L230.58 153.26L230.85 152.52L231.05 152.72L231.42 153.78L231.95 154.00L233.72 154.09L234.03 154.46L234.12 154.32L234.15 153.97L234.45 147.03L234.60 143.69L234.62 143.86L234.95 151.18L235.07 154.63L235.15 155.24L235.35 156.50L237.00 155.34L238.22 155.12L238.93 155.16L240.03 154.31L241.30 154.00L244.70 153.89L245.00 153.25L245.27 152.52L245.48 152.73L245.85 153.78L246.38 154.00L248.15 154.09L248.45 154.46L248.55 154.31L248.57 153.93L248.88 146.98L249.03 143.65L249.05 143.91L249.37 151.23L249.50 154.68L249.77 156.51L251.40 155.34L252.00 155.15" fill="none" stroke="#1A1A1A" stroke-width="0.42" stroke-linejoin="round" stroke-linecap="round"/><text x="13" y="141" font-family="Figtree,system-ui,sans-serif" font-size="3.6" font-weight="600" fill="#23272E">II</text><text x="10.0" y="182" font-family="Figtree,system-ui,sans-serif" font-size="3.2" fill="#5E646B">25 mm/s · 10 mm/mV · traçado sintetizado para ensino — ClínicaMed</text></svg>