<svg xmlns="http://www.w3.org/2000/svg" viewBox="0 0 264 194" role="img" aria-label="Sobrecarga atrial direita"><defs><pattern id="p1" width="1" height="1" patternUnits="userSpaceOnUse"><path d="M1 0V1M0 1H1" fill="none" stroke="#F3C9C3" stroke-width=".12"/></pattern><pattern id="p5" width="5" height="5" patternUnits="userSpaceOnUse"><rect width="5" height="5" fill="url(#p1)"/><path d="M5 0V5M0 5H5" fill="none" stroke="#E39C93" stroke-width=".3"/></pattern></defs><rect width="264" height="194" fill="#FFF8F7"/><rect x="10.0" y="12.0" width="250.0" height="172.0" fill="url(#p5)"/><text x="10.0" y="8" font-family="Figtree,system-ui,sans-serif" font-size="4.2" font-weight="600" fill="#23272E">Sobrecarga atrial direita</text><text x="260" y="8" text-anchor="end" font-family="Figtree,system-ui,sans-serif" font-size="3.4" fill="#5E646B">P apiculada em DII, DIII e aVF</text><polyline fill="none" stroke="#23272E" stroke-width=".45" stroke-linejoin="round" points="17.00,33.06 17.25,33.06 17.35,33.22 17.70,32.14 17.85,31.20 18.10,31.49 18.20,32.46 18.25,32.30 18.50,33.19 19.15,33.12 19.90,33.26 22.85,33.11 23.60,32.90 23.95,33.01 24.25,32.77 24.40,32.89 24.65,32.86 24.80,32.74 25.30,32.88 25.50,32.73 25.70,32.73 25.80,32.80 26.30,32.62 27.05,32.80 27.30,32.83 27.45,33.01 28.85,33.00 29.50,32.98 29.60,33.17 31.70,33.07 32.05,33.28 32.65,33.36 33.65,33.22 34.15,32.98 34.30,33.17 36.00,33.03 36.25,33.10 36.50,33.15 36.65,33.32 37.10,33.06 38.15,33.14 38.70,33.18 38.90,32.88 39.30,32.92 39.70,32.81 40.35,33.30 40.85,33.08 42.25,33.13 42.35,33.43 42.40,33.41 42.50,32.59 42.60,32.43 42.75,31.55 42.90,31.39 43.05,31.95 43.15,31.88 43.40,33.26 43.50,33.49 43.60,33.19 44.00,33.34 44.10,33.44 44.80,33.03 47.85,33.22 48.05,33.23 48.30,33.06 48.65,33.22 48.90,33.10 49.05,32.90 49.25,33.01 49.40,33.03 49.60,33.31 49.70,32.95 49.90,32.88 50.05,32.73 50.15,32.72 50.20,32.57 50.70,32.78 51.20,32.52 52.05,32.93 53.45,32.97 54.50,33.07 56.15,33.01 56.35,33.16 57.80,32.97 58.25,33.11 59.25,33.17 59.40,32.93 63.20,33.00 63.70,33.10 63.90,32.85 64.60,32.75 65.35,33.17 66.15,33.09 67.40,33.27 67.50,32.56 67.55,32.60 67.65,31.93 67.85,30.90 67.90,30.96 68.00,31.48 68.10,31.63 68.20,32.37 68.30,32.42 68.45,33.13 68.65,32.97 69.30,33.03 70.60,33.12 72.75,33.04 73.60,33.03 73.80,32.89 74.10,33.04 74.25,32.72 74.55,32.85 74.75,33.04 74.90,32.82 75.05,32.95 75.25,32.57 75.45,32.68 75.65,32.73 75.75,32.77 76.20,32.74 76.60,32.70 76.80,32.94 77.25,32.83 78.05,33.04 79.15,33.13 79.25,33.04 79.40,33.17 79.45,33.18"/><path d="M11.0 33.0h1.6v-5.0h4v5.0h1.6" fill="none" stroke="#23272E" stroke-width=".45"/><text x="18.0" y="17.0" font-family="Figtree,system-ui,sans-serif" font-size="3.6" font-weight="600" fill="#23272E">I</text><polyline fill="none" stroke="#23272E" stroke-width=".45" stroke-linejoin="round" points="17.00,75.31 17.25,75.32 17.50,75.72 17.75,74.05 17.90,72.32 17.95,72.35 18.00,72.99 18.10,75.38 18.15,76.23 18.20,76.29 18.35,75.34 18.55,74.48 19.40,75.17 20.25,75.30 22.95,75.16 23.95,74.61 24.50,74.04 24.65,73.89 24.80,73.67 25.35,73.19 25.95,72.92 26.35,73.18 26.80,73.86 27.15,74.26 27.30,74.45 27.45,74.75 28.40,75.12 31.80,75.17 32.05,75.33 34.05,75.14 34.20,75.27 34.35,75.37 36.00,75.27 36.25,75.35 36.50,75.40 36.65,75.56 37.15,75.25 38.20,75.17 38.45,74.75 38.60,74.43 38.80,74.22 38.95,74.19 39.75,74.80 40.40,75.52 42.25,75.49 42.40,75.85 42.45,75.82 42.55,75.26 42.80,73.10 42.85,72.61 42.90,72.32 42.95,72.68 43.05,75.09 43.10,76.08 43.15,76.34 43.30,75.80 43.55,74.64 43.90,75.03 44.10,75.35 47.60,75.27 48.05,75.12 48.30,74.85 48.65,74.90 49.10,74.50 49.60,74.17 49.70,73.76 49.90,73.70 50.15,73.38 50.30,73.09 50.80,73.02 51.20,72.99 52.20,74.53 53.00,75.03 54.05,75.29 54.50,75.33 56.15,75.24 56.35,75.38 57.80,75.22 58.30,75.37 62.95,75.21 63.40,74.94 63.60,74.37 63.75,74.20 63.90,73.97 65.15,75.23 65.50,75.56 67.20,75.57 67.35,75.63 67.45,75.80 67.55,75.51 67.65,74.48 67.75,73.87 67.85,72.80 67.90,72.52 67.95,72.77 68.00,73.62 68.10,76.00 68.15,76.59 68.20,76.58 68.50,74.82 68.60,74.60 68.75,74.65 69.35,75.30 71.15,75.32 73.30,75.05 73.60,74.85 73.80,74.64 74.10,74.60 74.25,74.18 74.75,73.89 74.90,73.67 75.05,73.62 75.25,73.12 75.90,73.02 76.50,73.41 76.85,74.10 77.85,75.14 78.90,75.40 79.25,75.29 79.40,75.42 79.45,75.43"/><path d="M11.0 75.0h1.6v-5.0h4v5.0h1.6" fill="none" stroke="#23272E" stroke-width=".45"/><text x="18.0" y="59.0" font-family="Figtree,system-ui,sans-serif" font-size="3.6" font-weight="600" fill="#23272E">II</text><polyline fill="none" stroke="#23272E" stroke-width=".45" stroke-linejoin="round" points="17.00,117.25 17.35,117.23 17.50,117.88 17.80,117.03 17.90,116.15 17.95,116.07 18.00,116.61 18.05,117.63 18.10,118.90 18.15,119.27 18.30,118.18 18.45,116.79 18.50,116.43 18.60,116.36 19.15,116.91 22.10,117.16 22.85,117.06 23.60,116.90 24.20,116.45 25.00,115.69 25.55,115.31 25.80,115.17 26.75,115.90 27.00,116.34 28.10,117.16 29.50,117.21 29.60,117.04 31.95,117.05 32.65,116.96 34.10,117.16 37.05,117.22 38.20,117.07 38.40,116.77 38.55,116.37 38.90,116.23 39.30,116.54 40.10,117.08 40.75,117.49 42.35,117.31 42.50,117.93 42.65,117.22 42.75,117.07 42.85,116.21 42.90,115.93 42.95,116.17 43.00,116.99 43.10,119.18 43.15,119.46 43.45,116.62 43.50,116.33 44.70,117.30 47.85,117.02 49.30,116.40 49.65,115.80 50.05,115.76 50.45,115.44 50.80,115.38 51.30,115.56 52.70,117.04 54.45,117.26 59.15,117.16 59.30,117.28 60.25,117.33 63.25,117.13 63.45,116.76 63.65,116.26 63.95,116.20 64.65,116.93 65.25,117.18 65.65,117.49 67.15,117.36 67.35,117.33 67.50,118.06 67.70,117.48 67.80,117.14 67.90,116.56 67.95,116.48 68.00,117.15 68.10,119.38 68.15,119.65 68.30,118.55 68.40,117.37 68.45,116.95 68.55,116.52 69.20,117.24 72.25,117.22 73.50,116.91 74.35,116.36 74.70,115.96 75.55,115.38 75.75,115.26 76.60,115.86 77.60,117.01 78.55,117.25 79.45,117.25"/><path d="M11.0 117.0h1.6v-5.0h4v5.0h1.6" fill="none" stroke="#23272E" stroke-width=".45"/><text x="18.0" y="101.0" font-family="Figtree,system-ui,sans-serif" font-size="3.6" font-weight="600" fill="#23272E">III</text><polyline fill="none" stroke="#23272E" stroke-width=".45" stroke-linejoin="round" points="74.50,32.69 76.10,32.84 77.55,32.72 78.70,32.73 83.15,32.93 83.55,33.10 83.90,33.40 85.05,32.95 85.45,32.71 87.25,32.78 87.35,32.53 87.45,32.57 87.50,32.86 87.55,32.89 87.75,34.20 87.90,35.25 87.95,35.13 88.00,34.64 88.10,33.21 88.15,32.73 88.25,32.70 88.50,33.06 88.55,33.27 89.45,32.87 89.80,32.80 90.80,32.74 91.65,32.92 91.95,32.71 92.55,32.93 93.05,32.87 93.95,33.23 94.10,33.19 94.50,33.48 94.70,33.69 94.90,33.70 95.05,33.83 95.35,34.01 95.50,33.94 95.80,34.14 96.40,34.00 97.60,33.08 98.35,32.95 98.60,32.92 99.05,32.80 101.00,32.96 101.20,32.78 102.70,32.85 102.85,32.62 103.00,32.54 103.45,32.76 106.15,32.71 108.20,33.04 108.55,33.44 108.90,33.29 109.30,33.40 109.55,32.96 109.70,33.17 110.05,32.85 110.30,32.65 111.20,32.55 111.35,32.47 112.20,32.56 112.35,32.48 112.45,32.88 112.70,34.54 112.75,35.01 112.80,35.20 112.85,35.06 113.00,33.34 113.05,32.94 113.25,32.90 113.30,32.98 113.45,32.77 113.60,32.98 114.15,32.79 115.10,32.73 118.20,32.97 118.65,33.09 118.80,33.33 119.00,33.22 119.20,33.59 119.55,33.54 119.80,33.82 120.10,33.90 120.80,34.30 121.45,33.86 122.85,32.93 123.70,32.80 123.90,32.70 127.25,32.88 129.05,32.89 129.15,32.90 129.25,32.78 130.15,32.83 133.15,32.90 133.55,33.13 133.70,33.12 133.90,33.48 134.50,33.29 134.65,32.92 135.25,32.84 135.35,32.59 135.55,32.61 136.95,32.50"/><text x="75.5" y="17.0" font-family="Figtree,system-ui,sans-serif" font-size="3.6" font-weight="600" fill="#23272E">aVR</text><polyline fill="none" stroke="#23272E" stroke-width=".45" stroke-linejoin="round" points="74.50,74.97 76.45,75.00 77.55,75.07 77.70,74.89 80.75,75.00 82.75,74.88 83.35,75.05 83.55,75.44 83.80,75.39 83.95,75.44 84.75,74.93 85.20,74.90 85.70,74.91 85.90,74.81 87.25,74.84 87.40,74.96 87.50,74.36 87.70,74.21 87.85,74.11 88.00,74.25 88.10,73.43 88.15,73.22 88.25,73.62 88.45,75.04 88.60,75.25 89.40,74.90 89.75,75.02 89.85,74.84 91.05,74.86 92.10,74.92 93.95,75.12 94.25,75.28 94.75,75.35 95.25,75.54 95.30,75.46 95.45,75.78 96.25,75.54 96.75,75.36 98.55,74.75 99.45,74.84 101.05,75.00 101.50,75.06 101.70,74.95 102.75,75.01 103.05,75.12 103.85,74.96 106.70,74.93 108.05,74.83 108.55,75.08 108.80,75.48 109.30,75.00 109.60,75.03 110.05,74.95 110.55,74.88 111.20,74.90 112.10,74.85 112.25,75.00 112.40,74.42 112.75,74.23 112.85,74.56 112.90,74.31 113.00,73.38 113.05,73.13 113.40,75.53 113.50,75.48 114.40,74.91 118.35,75.04 118.65,75.14 118.90,75.08 119.05,75.23 119.30,75.24 119.65,75.43 119.85,75.47 120.20,75.73 120.90,75.64 121.25,75.66 122.40,75.05 123.70,74.93 126.55,75.02 127.45,74.96 129.05,75.00 129.15,74.85 130.05,74.97 130.35,74.84 133.00,74.95 133.40,75.16 133.65,75.49 134.55,75.22 135.15,75.05 135.65,74.88 136.95,75.03"/><text x="75.5" y="59.0" font-family="Figtree,system-ui,sans-serif" font-size="3.6" font-weight="600" fill="#23272E">aVL</text><polyline fill="none" stroke="#23272E" stroke-width=".45" stroke-linejoin="round" points="74.50,117.34 77.55,117.21 79.10,117.32 82.30,117.29 83.15,117.11 83.45,116.72 83.65,116.39 83.90,116.08 84.85,116.97 85.55,117.41 86.25,117.50 87.25,117.37 87.40,117.51 87.50,117.78 87.60,117.42 87.75,116.72 87.90,115.62 87.95,115.63 88.00,116.12 88.10,118.36 88.15,119.04 88.20,119.04 88.45,117.08 88.55,116.50 89.40,117.20 90.80,117.35 91.80,117.29 93.30,117.04 94.40,116.34 94.70,115.98 94.90,115.81 95.65,115.26 96.35,115.40 97.35,116.68 98.20,117.23 99.65,117.29 101.05,117.19 102.75,117.24 103.15,117.26 107.95,117.32 108.45,116.62 108.80,116.26 109.40,116.80 110.10,117.24 110.30,117.42 111.55,117.56 112.25,117.46 112.35,117.96 112.40,117.98 112.65,116.61 112.80,115.37 112.85,115.39 112.90,116.11 113.00,118.28 113.05,118.93 113.10,118.77 113.35,116.95 113.45,116.64 114.30,117.22 116.50,117.31 118.35,116.95 119.05,116.46 119.40,116.13 120.45,115.19 120.90,115.16 121.50,115.69 122.25,116.66 123.15,117.14 124.15,117.30 127.00,117.19 129.10,117.17 129.45,117.27 132.95,117.21 133.35,116.86 133.60,116.41 133.75,116.24 133.95,116.14 134.55,116.63 134.90,116.89 135.25,117.19 135.50,117.52 136.95,117.47"/><text x="75.5" y="101.0" font-family="Figtree,system-ui,sans-serif" font-size="3.6" font-weight="600" fill="#23272E">aVF</text><polyline fill="none" stroke="#23272E" stroke-width=".45" stroke-linejoin="round" points="137.00,33.15 137.20,33.31 137.30,32.66 137.40,31.46 137.45,31.20 137.55,31.84 137.65,32.94 137.75,33.31 137.90,34.44 137.95,35.30 138.00,37.30 138.05,39.06 138.10,39.75 138.15,39.74 138.20,39.43 138.25,38.79 138.35,36.96 138.55,34.68 138.65,33.86 138.85,33.10 139.35,32.68 139.55,32.61 139.90,32.47 140.55,32.38 140.95,32.29 141.35,32.23 144.50,31.87 145.80,32.14 147.10,33.20 148.00,33.36 151.30,33.29 152.65,33.38 158.50,33.30 159.15,33.08 159.45,33.54 162.30,33.47 162.40,33.45 162.50,32.86 162.65,31.23 162.70,31.18 162.75,31.77 162.80,32.66 162.90,33.15 163.10,35.08 163.15,36.14 163.20,37.94 163.25,39.53 163.30,40.08 163.35,40.08 163.40,39.78 163.45,39.06 163.55,37.26 163.70,35.42 163.80,34.45 164.05,33.28 164.70,32.78 167.45,32.24 167.85,32.16 170.00,32.01 171.15,32.25 172.25,33.16 172.40,33.13 172.85,33.28 178.95,33.26 183.35,33.17 184.20,33.01 184.40,33.41 186.20,33.30 187.40,33.36 187.50,32.93 187.55,32.53 187.65,31.30 187.70,31.07 187.75,31.30 187.80,32.12 187.85,32.57 187.95,33.09 188.10,34.69 188.15,35.37 188.20,36.70 188.25,38.72 188.30,39.69 188.40,39.51 188.45,39.21 188.55,37.34 188.80,34.52 188.95,33.61 189.15,33.10 189.60,32.73 190.00,32.59 191.75,32.23 193.25,32.07 193.55,31.94 195.90,32.02 197.25,32.91 199.05,33.04 199.45,32.98"/><text x="138.0" y="17.0" font-family="Figtree,system-ui,sans-serif" font-size="3.6" font-weight="600" fill="#23272E">V1</text><polyline fill="none" stroke="#23272E" stroke-width=".45" stroke-linejoin="round" points="137.00,75.80 137.10,75.84 137.20,76.08 137.25,75.68 137.30,74.85 137.40,72.13 137.45,71.15 137.50,71.21 137.55,72.96 137.60,75.29 137.65,76.62 137.70,77.14 137.80,78.97 137.90,81.33 137.95,82.68 138.00,84.46 138.05,85.61 138.10,86.03 138.15,85.67 138.25,83.70 138.35,80.94 138.45,78.94 138.60,76.85 138.70,76.04 138.85,75.32 139.05,74.99 139.90,74.49 140.55,74.30 141.40,73.78 142.00,73.57 142.20,73.41 143.60,72.60 144.35,72.07 145.60,72.26 145.90,72.59 146.40,73.63 147.10,75.16 147.25,75.31 147.45,75.53 148.00,75.71 149.25,75.54 150.90,75.44 152.50,75.60 152.80,75.68 154.80,75.72 158.35,75.68 159.05,75.17 159.50,75.63 160.10,75.70 160.90,75.90 162.35,76.00 162.40,76.12 162.45,75.84 162.50,74.86 162.60,72.10 162.65,70.92 162.70,70.83 162.75,72.56 162.80,75.08 162.85,76.57 163.00,79.40 163.15,83.56 163.20,85.07 163.25,86.03 163.30,86.25 163.35,85.87 163.40,85.08 163.45,83.89 163.55,81.09 163.65,79.02 163.75,77.49 163.85,76.44 164.05,75.35 164.20,74.95 165.85,74.08 166.60,73.72 167.85,73.06 168.65,72.65 169.40,72.15 169.95,72.01 170.80,72.11 171.25,72.65 172.10,74.71 172.60,75.42 173.25,75.64 175.90,75.48 176.55,75.58 182.50,75.66 183.60,75.41 184.20,75.21 184.45,75.60 185.50,75.71 185.85,75.81 187.35,75.86 187.40,76.04 187.45,75.94 187.50,75.21 187.55,74.12 187.65,71.08 187.70,70.49 187.75,71.35 187.80,73.72 187.85,75.78 187.90,76.86 187.95,77.67 188.15,82.70 188.25,85.69 188.30,86.25 188.35,86.15 188.40,85.52 188.45,84.37 188.55,81.47 188.65,79.29 188.75,77.61 188.85,76.53 189.05,75.35 189.25,74.73 190.00,74.37 190.50,74.13 191.15,73.90 192.60,73.15 193.05,72.92 193.50,72.70 193.65,72.60 194.75,72.01 195.85,72.17 196.25,72.59 197.20,74.75 197.75,75.40 198.70,75.43 199.45,75.36"/><text x="138.0" y="59.0" font-family="Figtree,system-ui,sans-serif" font-size="3.6" font-weight="600" fill="#23272E">V2</text><polyline fill="none" stroke="#23272E" stroke-width=".45" stroke-linejoin="round" points="137.00,117.54 137.20,117.52 137.25,117.30 137.30,116.41 137.35,115.26 137.45,112.47 137.50,112.12 137.55,113.36 137.60,114.97 137.65,115.82 137.70,116.11 137.75,116.67 137.80,117.63 137.95,122.48 138.00,123.76 138.15,126.88 138.20,127.05 138.25,126.13 138.35,122.96 138.40,121.64 138.50,119.71 138.60,118.40 138.75,117.40 138.85,117.03 139.30,116.66 140.55,116.32 141.40,115.91 143.30,114.86 145.20,113.01 145.60,112.86 146.00,113.36 146.50,114.78 147.05,116.63 147.50,117.49 148.20,117.84 152.00,117.71 152.80,117.83 154.60,118.02 158.15,117.89 159.05,117.55 159.60,117.58 160.10,117.82 160.70,118.16 162.40,118.12 162.45,117.94 162.50,117.11 162.55,116.01 162.65,113.23 162.70,112.54 162.75,113.45 162.80,114.87 162.85,115.57 162.95,116.13 163.00,116.91 163.05,118.44 163.10,120.30 163.15,121.93 163.20,123.12 163.25,124.10 163.35,126.81 163.40,127.39 163.45,126.56 163.55,123.46 163.60,122.08 163.65,120.98 163.75,119.45 163.85,118.46 164.05,117.48 164.20,117.24 165.20,116.86 166.45,116.36 167.65,115.74 168.80,114.86 169.80,113.79 170.75,113.04 171.20,113.24 171.85,115.28 172.15,116.30 172.60,117.23 173.10,117.73 178.95,117.61 179.40,117.69 183.05,117.50 183.50,117.38 184.20,117.10 184.40,117.41 184.80,117.39 185.30,117.70 185.70,117.97 186.95,117.96 187.35,117.82 187.45,117.99 187.50,117.44 187.55,116.46 187.60,115.22 187.65,113.69 187.70,112.52 187.75,112.66 187.85,115.01 187.95,115.46 188.00,116.27 188.05,117.47 188.15,120.88 188.25,123.60 188.30,124.70 188.35,126.33 188.40,127.35 188.45,126.88 188.50,125.48 188.55,123.81 188.60,122.42 188.70,120.30 188.80,118.91 188.90,118.09 189.05,117.39 189.20,117.15 190.00,116.83 192.00,116.01 192.60,115.65 193.50,115.16 193.65,114.94 194.00,114.66 195.20,113.38 195.75,113.08 196.20,113.30 196.60,114.35 197.20,116.43 197.75,117.48 198.30,117.78 199.45,117.69"/><text x="138.0" y="101.0" font-family="Figtree,system-ui,sans-serif" font-size="3.6" font-weight="600" fill="#23272E">V3</text><polyline fill="none" stroke="#23272E" stroke-width=".45" stroke-linejoin="round" points="199.50,34.13 200.10,34.18 202.00,33.76 202.90,33.74 207.95,33.83 208.40,33.63 209.05,33.25 210.30,33.77 210.75,34.09 212.25,34.04 212.35,34.91 212.45,35.17 212.50,34.79 212.55,33.48 212.65,29.79 212.70,27.78 212.75,25.55 212.80,22.57 212.85,20.13 212.95,17.75 213.00,16.89 213.15,23.74 213.20,27.50 213.25,31.76 213.30,35.45 213.35,38.89 213.40,39.49 213.45,37.65 213.55,35.47 213.60,34.67 213.70,33.70 213.90,33.04 214.95,33.44 216.20,33.39 217.40,33.20 217.75,33.03 218.20,32.88 218.85,32.32 219.50,31.22 220.50,29.04 220.60,28.76 220.80,28.60 221.25,28.81 221.55,29.81 221.95,31.42 222.45,33.10 223.00,33.81 223.75,34.16 227.95,33.63 230.00,33.67 230.50,33.76 231.90,33.82 232.55,33.86 233.55,33.65 234.15,33.18 235.10,33.67 235.35,33.75 235.65,34.07 237.30,34.00 237.35,34.27 237.45,35.17 237.50,35.19 237.55,34.94 237.60,33.76 237.75,28.08 237.80,25.98 237.85,23.07 237.90,20.36 237.95,18.83 238.00,17.86 238.05,16.62 238.10,17.90 238.20,22.23 238.25,25.52 238.30,29.74 238.35,33.52 238.40,37.54 238.45,39.75 238.50,38.01 238.55,36.60 238.65,34.77 238.70,34.21 238.90,33.25 239.00,33.05 239.80,33.47 242.05,33.42 242.40,33.27 242.85,33.17 243.60,32.76 244.05,32.23 244.55,31.39 245.55,29.16 245.85,28.63 246.15,28.59 246.45,29.30 246.95,31.20 247.15,31.99 247.65,33.37 248.10,33.88 249.35,34.12 250.70,33.99 253.00,33.70 258.45,33.60 259.30,32.93 261.95,33.00"/><text x="200.5" y="17.0" font-family="Figtree,system-ui,sans-serif" font-size="3.6" font-weight="600" fill="#23272E">V4</text><polyline fill="none" stroke="#23272E" stroke-width=".45" stroke-linejoin="round" points="199.50,75.45 202.90,75.30 205.90,75.47 208.45,75.38 209.05,75.22 210.15,75.34 210.65,75.70 212.20,75.62 212.35,76.18 212.40,76.52 212.45,76.64 212.55,76.23 212.60,75.50 212.75,71.86 212.90,67.01 212.95,66.03 213.00,66.10 213.05,67.04 213.15,70.09 213.25,73.73 213.30,74.91 213.40,75.24 213.50,75.40 218.20,75.33 219.20,74.75 220.75,72.87 221.30,72.92 221.80,73.72 222.50,74.91 223.05,75.37 224.10,75.53 229.35,75.16 229.65,75.20 232.60,75.26 233.60,75.04 234.20,74.68 235.30,75.11 235.55,75.40 236.10,75.50 237.30,75.53 237.40,75.92 237.45,76.30 237.50,76.46 237.60,76.02 237.65,75.46 237.80,72.12 237.85,70.71 237.95,67.49 238.00,66.33 238.05,66.08 238.10,66.66 238.15,67.90 238.25,70.95 238.30,72.72 238.35,74.10 238.40,74.69 238.50,75.12 239.30,75.08 239.65,75.31 240.35,75.38 242.00,75.42 243.60,75.20 244.70,74.28 245.50,73.20 245.85,72.85 246.15,72.73 246.55,73.11 247.55,74.89 248.15,75.35 249.75,75.54 250.95,75.37 251.55,75.40 253.15,75.34 258.25,75.33 259.25,75.00 261.95,75.00"/><text x="200.5" y="59.0" font-family="Figtree,system-ui,sans-serif" font-size="3.6" font-weight="600" fill="#23272E">V5</text><polyline fill="none" stroke="#23272E" stroke-width=".45" stroke-linejoin="round" points="199.50,117.53 200.10,117.64 202.85,117.40 207.75,117.47 209.75,117.19 210.35,117.49 210.75,117.73 212.20,117.69 212.35,118.20 212.40,118.54 212.45,118.66 212.55,118.27 212.60,117.57 212.75,113.90 212.90,109.07 212.95,108.09 213.00,108.16 213.05,109.10 213.15,112.15 213.25,115.81 213.30,116.94 213.35,117.21 213.55,117.42 214.45,117.50 217.70,117.43 218.85,117.04 219.45,116.51 220.50,115.14 221.00,114.88 221.40,115.13 222.55,117.21 223.00,117.59 224.00,117.87 226.50,117.61 228.60,117.33 232.50,117.36 233.75,117.00 235.05,117.00 235.55,117.41 235.95,117.56 237.30,117.59 237.40,117.96 237.45,118.34 237.50,118.50 237.60,118.09 237.65,117.53 237.80,114.19 237.90,111.16 237.95,109.57 238.00,108.41 238.05,108.14 238.10,108.72 238.15,109.98 238.25,113.06 238.30,114.79 238.35,116.16 238.40,116.75 238.50,117.16 239.40,117.32 240.40,117.49 243.35,117.31 244.30,116.66 245.80,114.80 246.15,114.69 246.55,115.06 247.45,116.68 247.90,117.18 249.20,117.49 250.45,117.45 256.65,117.31 258.60,117.16 259.95,116.97 261.95,117.00"/><text x="200.5" y="101.0" font-family="Figtree,system-ui,sans-serif" font-size="3.6" font-weight="600" fill="#23272E">V6</text><polyline fill="none" stroke="#23272E" stroke-width=".45" stroke-linejoin="round" points="17.00,162.31 17.25,162.32 17.50,162.72 17.75,161.05 17.90,159.32 17.95,159.35 18.00,159.99 18.10,162.38 18.15,163.23 18.20,163.29 18.35,162.34 18.55,161.48 19.40,162.17 20.25,162.30 22.95,162.16 23.95,161.61 24.50,161.04 24.65,160.89 24.80,160.67 25.35,160.19 25.95,159.92 26.35,160.18 26.80,160.86 27.15,161.26 27.30,161.45 27.45,161.75 28.40,162.12 31.80,162.17 32.05,162.33 34.05,162.14 34.20,162.27 34.35,162.37 36.00,162.27 36.25,162.35 36.50,162.40 36.65,162.56 37.15,162.25 38.20,162.17 38.45,161.75 38.60,161.43 38.80,161.22 38.95,161.19 39.75,161.80 40.40,162.52 42.25,162.49 42.40,162.85 42.45,162.82 42.55,162.26 42.80,160.10 42.85,159.61 42.90,159.32 42.95,159.68 43.05,162.09 43.10,163.08 43.15,163.34 43.30,162.80 43.55,161.64 43.90,162.03 44.10,162.35 47.60,162.27 48.05,162.12 48.30,161.85 48.65,161.90 49.10,161.50 49.60,161.17 49.70,160.76 49.90,160.70 50.15,160.38 50.30,160.09 50.80,160.02 51.20,159.99 52.20,161.53 53.00,162.03 54.05,162.29 54.50,162.33 56.15,162.24 56.35,162.38 57.80,162.22 58.30,162.37 62.95,162.21 63.40,161.94 63.60,161.37 63.75,161.20 63.90,160.97 65.15,162.23 65.50,162.56 67.20,162.57 67.35,162.63 67.45,162.80 67.55,162.51 67.65,161.48 67.75,160.87 67.85,159.80 67.90,159.52 67.95,159.77 68.00,160.62 68.10,163.00 68.15,163.59 68.20,163.58 68.50,161.82 68.60,161.60 68.75,161.65 69.35,162.30 71.15,162.32 73.30,162.05 73.60,161.85 73.80,161.64 74.10,161.60 74.25,161.18 74.75,160.89 74.90,160.67 75.05,160.62 75.25,160.12 75.90,160.02 76.50,160.41 76.85,161.10 77.85,162.14 78.90,162.40 79.25,162.29 79.40,162.42 81.10,162.25 82.55,162.33 84.45,162.38 87.30,162.27 88.10,162.16 88.90,161.12 90.30,162.37 91.00,162.58 92.25,162.39 92.30,162.61 92.45,162.76 92.55,162.53 92.70,161.49 92.85,159.96 92.90,159.58 92.95,159.67 93.00,160.32 93.10,162.77 93.15,163.54 93.20,163.61 93.55,161.49 94.30,162.17 95.25,162.39 95.85,162.37 96.70,162.20 96.90,162.44 97.50,162.17 98.05,162.19 99.00,161.64 99.45,161.21 99.65,160.88 99.90,160.74 100.05,160.53 100.40,160.29 100.80,160.08 101.35,160.22 102.35,161.65 103.20,162.20 103.60,162.24 104.05,162.36 106.00,162.10 106.15,162.27 107.70,162.22 107.85,162.46 108.00,162.53 108.45,162.32 109.35,162.41 111.15,162.40 113.00,162.21 113.35,161.76 113.55,161.36 114.15,161.45 114.35,161.60 114.55,161.99 114.70,161.83 115.30,162.51 116.20,162.67 116.35,162.75 117.25,162.61 117.35,162.98 117.40,162.93 117.65,160.97 117.75,159.84 117.80,159.45 117.85,159.56 117.90,160.36 118.00,162.62 118.05,163.33 118.10,163.29 118.30,162.19 118.60,161.80 119.15,162.25 120.80,162.41 123.25,162.00 123.65,161.79 123.75,161.52 124.00,161.55 124.20,161.11 124.60,160.93 124.90,160.53 125.10,160.38 125.80,159.88 126.60,160.76 127.45,161.80 128.20,162.17 128.70,162.32 128.90,162.42 132.25,162.21 134.15,162.23 134.40,162.33 137.90,162.22 138.30,161.98 138.50,161.57 138.70,161.51 138.85,161.09 139.50,161.49 139.65,161.92 140.20,162.19 140.25,162.24 140.35,162.55 142.25,162.62 142.30,162.60 142.40,162.81 142.50,162.38 142.75,160.17 142.80,159.62 142.85,159.28 142.90,159.50 142.95,160.28 143.05,162.52 143.10,163.08 143.15,163.02 143.50,161.50 144.35,162.24 144.45,162.27 144.55,162.44 147.45,162.22 148.55,161.85 149.05,161.49 149.90,160.58 150.20,160.32 150.25,160.33 150.35,160.06 150.45,160.14 150.60,159.92 151.30,160.33 152.60,162.09 153.20,162.28 154.80,162.32 155.50,162.23 156.00,162.31 160.05,162.28 163.30,162.42 163.75,161.31 163.95,161.35 164.05,161.04 165.25,162.10 165.65,162.42 166.15,162.66 166.80,162.68 167.50,162.54 167.60,162.92 167.65,162.91 167.80,161.79 167.90,160.96 168.00,159.81 168.05,159.47 168.10,159.67 168.15,160.57 168.20,161.79 168.25,162.75 168.30,163.40 168.35,163.41 168.50,162.75 168.65,161.66 168.95,161.75 169.60,162.37 169.75,162.39 170.85,162.39 173.15,162.13 173.95,161.76 174.25,161.61 174.45,161.52 174.60,161.12 175.00,160.80 175.30,160.62 175.55,160.24 176.00,160.17 176.15,159.92 176.85,160.75 177.20,161.44 178.15,162.13 178.75,162.27 182.35,162.34 183.95,162.27 186.30,162.34 186.75,162.20 187.95,162.16 188.60,161.84 188.80,161.46 189.20,161.27 190.40,162.26 190.60,162.64 191.45,162.65 191.55,162.74 192.50,162.64 192.60,162.95 192.70,162.61 192.75,162.37 192.95,160.60 193.05,159.60 193.10,159.58 193.15,160.20 193.25,162.56 193.30,163.50 193.35,163.52 193.45,163.03 193.60,162.01 193.80,161.71 194.05,161.84 194.50,162.31 198.50,162.07 199.05,161.66 199.45,161.40 199.65,161.07 199.85,160.96 200.30,160.36 200.80,160.06 201.40,160.17 201.95,160.76 202.10,161.14 202.45,161.42 202.65,161.85 203.60,162.29 204.75,162.30 204.90,162.55 205.40,162.20 207.30,162.19 207.55,162.30 208.95,162.19 209.55,162.37 210.50,162.20 210.70,162.37 211.15,162.31 211.30,162.50 213.35,162.14 213.50,162.03 213.65,161.52 214.05,161.27 214.50,161.63 214.90,161.99 215.05,161.93 215.55,162.54 215.75,162.67 216.80,162.54 216.90,162.82 217.40,162.76 217.55,163.12 217.60,162.91 217.70,161.69 217.80,161.15 217.85,160.72 217.95,159.46 218.00,159.32 218.05,159.94 218.15,162.31 218.20,163.27 218.25,163.62 218.60,161.64 218.70,161.61 218.90,161.74 219.05,162.16 219.35,162.17 219.50,162.32 219.75,162.30 219.90,162.45 221.45,162.39 223.10,162.17 223.50,161.92 223.95,161.77 224.50,161.23 224.65,160.91 224.90,160.77 225.10,160.62 225.40,160.22 225.75,160.19 226.00,159.96 226.35,160.14 227.55,161.75 228.65,162.40 229.95,162.31 230.45,162.35 231.65,162.23 231.75,162.51 232.35,162.17 233.25,162.36 233.35,162.52 233.80,162.28 235.00,162.31 235.10,162.47 235.55,162.26 236.60,162.34 236.90,162.26 237.05,162.44 238.50,162.06 238.80,161.54 238.95,161.34 239.05,161.02 239.50,161.35 240.20,162.10 240.55,162.54 241.00,162.80 242.25,162.58 242.40,162.57 242.55,162.91 242.70,162.29 242.75,161.77 242.90,160.72 243.00,159.67 243.05,159.49 243.10,159.80 243.15,160.60 243.25,162.88 243.30,163.33 243.45,162.85 243.55,162.22 243.95,161.72 244.15,162.16 244.30,162.11 244.80,162.46 247.85,162.31 248.75,161.93 249.05,161.68 249.60,161.44 249.95,160.78 250.30,160.59 250.45,160.25 250.90,160.26 251.10,160.10 251.60,160.61 252.95,162.18"/><path d="M11.0 162.0h1.6v-5.0h4v5.0h1.6" fill="none" stroke="#23272E" stroke-width=".45"/><text x="18" y="144" font-family="Figtree,system-ui,sans-serif" font-size="3.6" font-weight="600" fill="#23272E">II</text><text x="10.0" y="191" font-family="Figtree,system-ui,sans-serif" font-size="3.2" fill="#5E646B">25 mm/s · 5 mm/mV (metade do ganho) · PTB-XL (PhysioNet), CC BY 4.0 — registro 03269</text></svg>