<svg xmlns="http://www.w3.org/2000/svg" viewBox="0 0 264 214" role="img" aria-label="Infra de ST difuso com supra em aVR"><defs><pattern id="p1" width="1" height="1" patternUnits="userSpaceOnUse"><path d="M1 0V1M0 1H1" fill="none" stroke="#F3C9C3" stroke-width=".12"/></pattern><pattern id="p5" width="5" height="5" patternUnits="userSpaceOnUse"><rect width="5" height="5" fill="url(#p1)"/><path d="M5 0V5M0 5H5" fill="none" stroke="#E39C93" stroke-width=".3"/></pattern></defs><rect width="264" height="214" fill="#FFF8F7"/><rect x="10.0" y="12.0" width="250.0" height="192.0" fill="url(#p5)"/><text x="10.0" y="8" font-family="Figtree,system-ui,sans-serif" font-size="4.2" font-weight="600" fill="#23272E">Infra de ST difuso com supra em aVR</text><text x="260" y="8" text-anchor="end" font-family="Figtree,system-ui,sans-serif" font-size="3.4" fill="#5E646B">laudo: supra em aVR, infra em I, II, aVL</text><polyline fill="none" stroke="#23272E" stroke-width=".45" stroke-linejoin="round" points="17.00,36.28 17.25,36.27 17.35,36.46 18.45,36.27 18.50,36.56 18.95,36.53 19.05,36.63 20.35,36.37 20.45,36.11 20.60,36.22 20.70,36.69 20.75,36.46 21.25,36.66 21.90,36.59 22.10,36.69 22.15,36.86 22.20,36.78 22.25,36.36 22.55,36.85 22.70,37.23 22.80,36.65 22.85,36.12 22.95,34.59 23.00,33.98 23.10,31.78 23.15,30.85 23.20,29.43 23.30,25.45 23.35,23.79 23.40,22.68 23.45,22.35 23.50,22.94 23.55,24.35 23.60,25.47 23.70,28.77 23.80,30.59 23.85,31.72 23.95,34.54 24.00,35.61 24.15,36.41 24.20,36.61 24.25,37.03 24.60,37.93 24.95,37.92 25.05,38.06 25.10,37.94 25.20,38.44 25.50,37.79 25.65,38.74 25.70,38.92 26.05,38.19 26.25,38.38 27.65,38.18 27.75,38.03 27.85,38.33 28.15,38.11 28.20,38.28 28.25,38.82 29.00,38.08 29.35,37.45 29.60,36.56 29.75,36.56 29.95,36.24 30.00,36.33 30.10,36.02 30.20,35.91 30.25,35.64 30.50,35.85 31.10,36.22 31.25,36.41 31.75,36.33 32.35,35.87 32.45,35.69 32.55,36.36 33.30,36.11 33.55,36.23 34.10,36.20 34.70,36.43 34.80,36.19 34.90,36.53 35.15,35.95 36.40,36.21 37.10,36.30 37.20,36.83 38.00,36.52 38.05,36.36 38.15,36.78 38.55,36.52 38.95,36.46 39.00,36.34 39.10,36.39 39.20,36.24 39.30,36.86 40.25,36.63 40.60,36.73 41.60,36.30 41.90,36.20 42.25,36.35 42.45,36.81 42.55,36.29 42.70,34.72 42.80,33.18 42.90,31.14 42.95,29.94 43.05,26.20 43.10,24.49 43.15,23.27 43.20,22.76 43.25,23.11 43.40,26.48 43.45,27.76 43.55,29.87 43.60,30.69 43.65,32.21 43.70,34.17 43.75,35.20 43.85,36.29 43.90,36.63 44.25,37.39 44.30,37.72 44.60,37.53 44.65,37.63 44.75,38.44 44.80,38.22 44.90,38.51 45.15,38.03 45.30,38.26 46.35,38.17 46.60,37.99 46.75,38.25 46.80,38.47 46.85,38.40 46.95,38.92 47.30,38.49 48.00,38.15 48.35,37.99 48.65,38.20 48.85,37.89 49.00,37.44 49.05,37.05 49.10,37.15 49.15,37.68 49.20,37.77 49.25,37.26 49.35,37.38 49.85,36.19 50.10,35.90 50.20,35.93 50.30,35.31 50.75,35.75 51.10,35.73 51.25,35.83 51.40,35.80 51.50,35.74 52.25,36.12 52.65,35.95 52.80,36.10 53.05,35.88 53.10,35.94 53.20,35.60 53.65,36.06 53.90,36.23 54.10,36.14 54.50,35.70 55.65,36.25 56.00,36.23 56.05,35.63 56.10,35.56 56.35,36.12 56.45,36.55 57.20,36.43 57.25,36.60 57.55,36.40 58.50,36.43 58.60,36.94 58.70,36.72 58.75,36.88 58.80,36.41 58.90,36.31 59.00,34.80 59.05,33.86 59.15,32.50 59.25,30.48 59.30,28.71 59.40,24.78 59.45,23.46 59.50,22.83 59.55,22.83 59.65,24.74 59.70,25.90 59.75,27.68 59.90,30.58 59.95,31.86 60.05,35.14 60.10,35.85 60.20,36.76 60.60,37.69 60.85,37.94 60.95,38.26 61.05,38.13 61.15,38.32 61.35,38.14 61.50,38.10 61.55,38.71 61.60,38.65 61.65,38.17 61.70,37.97 61.80,37.96 61.90,38.28 62.70,37.98 62.75,38.18 63.30,37.82 63.35,38.20 63.45,38.01 63.50,38.51 64.00,38.41 64.05,38.66 64.35,38.45 64.50,38.41 64.55,38.67 65.35,37.78 65.45,37.99 65.90,36.95 66.40,36.13 67.05,35.93 67.30,36.18 67.40,35.90 67.70,36.08 67.75,36.32 68.20,35.80 69.40,36.03 69.65,36.07 69.90,35.72 71.15,36.42 71.60,36.35 71.70,36.36 71.80,36.68 71.85,36.53 71.95,36.66 72.10,35.43 72.20,33.69 72.25,33.05 72.30,32.03 72.35,30.62 72.45,28.17 72.55,24.10 72.65,21.82 72.70,21.54 72.80,24.34 72.85,25.52 72.95,28.75 73.00,29.55 73.05,29.97 73.10,31.27 73.15,32.86 73.20,34.08 73.25,34.99 73.35,35.99 73.40,36.33 73.70,37.32 73.80,37.95 74.20,37.93 74.25,38.21 74.50,38.09 74.60,38.33 75.65,37.82 75.85,38.07 75.95,37.90 76.10,38.40 76.20,38.99 76.65,38.39 76.70,38.49 76.75,38.86 77.30,38.09 77.40,38.45 77.85,37.92 77.95,38.12 78.70,37.16 78.90,36.67 79.45,36.36"/><path d="M11.0 36.3h1.6v-10.0h4v10.0h1.6" fill="none" stroke="#23272E" stroke-width=".45"/><text x="18.0" y="17.0" font-family="Figtree,system-ui,sans-serif" font-size="3.6" font-weight="600" fill="#23272E">I</text><polyline fill="none" stroke="#23272E" stroke-width=".45" stroke-linejoin="round" points="17.00,85.03 17.25,85.03 17.35,85.22 18.45,85.02 18.55,85.60 18.95,85.07 19.05,85.21 20.40,85.06 20.60,84.78 20.75,85.35 20.80,85.89 20.85,85.72 20.90,85.13 20.95,84.91 21.05,85.07 21.90,85.10 22.05,85.18 22.50,84.83 22.90,84.18 22.95,83.89 23.00,83.20 23.10,80.99 23.25,77.63 23.35,75.90 23.40,74.43 23.45,74.08 23.50,76.48 23.55,78.20 23.65,82.66 23.70,83.65 23.80,84.50 23.85,85.20 23.90,85.51 24.15,85.22 24.25,85.68 24.55,86.02 25.45,86.12 25.50,86.31 25.55,86.87 25.60,86.96 26.00,86.35 28.85,85.77 29.35,85.58 29.70,84.93 29.95,85.03 30.00,85.19 30.25,84.75 30.30,85.09 30.75,84.82 31.75,85.09 32.45,84.66 32.55,85.34 33.05,84.79 34.10,84.87 34.70,85.21 35.15,84.34 37.05,84.84 37.10,84.78 37.20,85.31 38.60,84.98 38.95,84.99 39.20,84.60 39.30,85.22 40.25,84.98 40.60,85.15 41.70,84.95 42.10,84.78 42.20,84.85 42.60,84.13 42.70,84.04 42.75,83.38 42.85,81.44 43.00,78.02 43.05,76.62 43.10,75.73 43.15,74.63 43.20,74.34 43.30,78.11 43.40,82.51 43.45,83.73 43.55,84.83 43.75,85.89 44.25,85.71 44.30,86.09 44.65,85.98 44.70,86.15 44.75,86.68 45.15,85.94 45.30,86.18 46.60,86.11 46.75,86.44 46.80,86.70 47.45,86.24 48.05,86.02 48.85,85.85 49.05,85.38 49.10,85.94 49.15,86.13 49.20,85.55 49.25,85.20 49.35,85.43 50.00,84.68 50.20,84.70 50.30,84.13 50.80,84.71 51.55,84.90 51.65,85.42 52.55,84.88 52.80,84.85 53.05,84.76 53.10,84.87 53.20,84.48 54.05,84.58 54.20,84.49 56.00,84.91 56.05,84.32 56.10,84.25 56.35,84.88 56.45,85.32 57.55,84.68 58.60,84.89 58.80,83.99 58.95,84.56 59.00,84.50 59.05,83.48 59.15,81.82 59.25,79.29 59.30,78.20 59.35,76.85 59.50,74.16 59.55,75.68 59.60,77.55 59.70,82.41 59.75,83.64 59.85,84.78 59.95,86.17 60.50,86.03 61.05,85.99 61.15,86.26 61.50,86.09 61.55,86.65 61.60,86.58 61.65,86.12 61.75,85.88 61.85,86.03 62.00,86.17 62.70,86.11 62.75,86.35 63.85,86.05 64.30,85.98 64.80,85.62 65.15,85.46 65.35,85.27 65.45,85.54 65.90,85.00 66.80,84.82 67.60,85.12 67.70,85.14 67.75,85.39 68.20,84.81 70.00,84.80 71.20,85.12 71.55,84.99 71.80,84.59 71.90,84.12 72.10,84.18 72.15,83.94 72.25,82.70 72.30,81.67 72.40,79.13 72.50,77.39 72.55,76.25 72.60,74.84 72.65,74.90 72.80,80.50 72.85,82.63 72.90,83.91 72.95,84.39 73.00,85.17 73.10,85.94 73.15,85.98 73.25,85.40 73.40,85.17 73.75,85.68 73.80,86.01 74.20,86.02 74.25,86.30 75.65,85.94 75.85,86.17 76.05,85.81 76.10,85.91 76.20,86.53 76.65,85.94 76.70,86.04 76.75,86.41 77.20,85.82 77.80,85.45 77.90,85.46 78.00,85.53 78.65,85.20 79.45,85.06"/><path d="M11.0 85.0h1.6v-10.0h4v10.0h1.6" fill="none" stroke="#23272E" stroke-width=".45"/><text x="18.0" y="65.7" font-family="Figtree,system-ui,sans-serif" font-size="3.6" font-weight="600" fill="#23272E">II</text><polyline fill="none" stroke="#23272E" stroke-width=".45" stroke-linejoin="round" points="17.00,133.74 18.50,133.76 18.60,133.98 18.95,133.53 20.35,133.74 20.45,133.87 20.65,133.41 20.70,133.44 20.80,134.32 20.85,134.11 20.90,133.58 20.95,133.33 22.05,133.52 22.15,133.26 22.20,133.34 22.25,133.71 22.60,132.82 22.70,132.27 22.80,132.70 22.85,133.15 22.90,133.88 22.95,134.30 23.15,134.09 23.20,134.29 23.35,137.11 23.40,136.73 23.45,136.73 23.50,138.53 23.55,138.85 23.60,140.04 23.65,140.62 23.70,139.87 23.85,138.48 23.90,137.45 23.95,135.84 24.00,134.73 24.15,133.80 24.55,133.17 24.95,133.15 25.00,133.00 25.10,133.20 25.20,132.69 25.45,133.26 25.55,133.77 25.60,133.53 25.65,133.05 25.70,132.81 26.05,133.16 26.25,132.96 27.75,133.00 27.90,132.71 28.15,132.82 28.20,132.66 28.25,132.12 29.00,132.67 29.60,133.54 29.70,133.27 30.10,133.95 30.20,133.89 30.30,134.34 30.80,133.86 31.10,133.73 31.25,133.61 32.60,133.93 33.15,133.66 33.70,133.58 34.80,133.81 34.90,133.29 36.30,133.53 37.20,133.47 38.00,133.52 38.05,133.68 38.15,133.24 39.00,133.51 39.10,133.32 40.80,133.48 41.85,133.69 42.25,133.36 42.45,132.53 42.55,132.90 42.70,134.32 42.85,134.30 42.90,134.11 42.95,134.15 43.00,134.89 43.05,135.41 43.10,136.24 43.20,136.57 43.25,138.16 43.30,138.91 43.35,140.07 43.40,141.03 43.45,140.97 43.60,139.50 43.65,138.19 43.70,136.49 43.75,135.69 43.85,134.53 43.90,134.19 44.25,133.32 44.60,133.52 44.70,133.12 44.80,133.37 44.90,132.89 46.35,132.97 46.85,133.30 46.95,132.66 48.35,132.92 48.65,132.72 49.00,133.09 49.05,133.33 49.10,133.79 49.15,133.45 49.20,132.77 49.65,133.41 50.20,133.77 51.10,134.10 51.35,133.97 51.45,134.26 51.55,134.10 51.65,134.60 52.25,134.04 52.90,133.72 53.15,133.92 53.60,133.58 53.85,133.34 54.20,133.46 54.50,133.88 55.70,133.58 56.55,133.74 57.20,133.39 57.30,133.26 58.50,133.42 58.60,132.95 58.70,132.74 58.75,132.42 58.85,132.70 58.90,133.06 59.00,134.70 59.15,134.32 59.25,133.80 59.35,135.21 59.40,136.08 59.45,136.49 59.50,136.33 59.55,137.85 59.60,138.80 59.70,141.51 59.75,140.96 59.90,139.98 59.95,139.31 60.00,137.48 60.05,135.91 60.10,135.20 60.20,134.28 60.60,133.33 60.85,133.07 60.95,132.76 61.35,132.99 62.15,132.97 63.30,133.34 63.35,132.92 63.45,133.07 63.50,132.54 64.00,132.64 64.05,132.39 64.45,132.49 64.55,132.04 65.30,132.48 65.65,132.67 66.40,133.71 67.15,133.93 67.30,133.85 67.40,134.19 69.65,133.72 69.90,134.07 71.65,133.56 71.90,132.50 71.95,132.42 72.20,134.65 72.40,134.68 72.45,135.00 72.50,136.29 72.55,137.15 72.60,136.97 72.65,138.08 72.70,140.14 72.75,140.76 72.80,141.16 72.85,142.10 72.90,141.81 72.95,140.64 73.05,140.55 73.10,139.66 73.20,136.53 73.25,135.41 73.35,134.19 73.40,133.83 73.65,133.48 73.80,133.06 74.50,133.10 74.60,132.87 75.95,133.09 76.05,132.58 77.25,132.61 77.30,132.69 77.40,132.29 78.30,132.59 78.70,133.04 78.95,133.50 79.45,133.70"/><path d="M11.0 133.7h1.6v-10.0h4v10.0h1.6" fill="none" stroke="#23272E" stroke-width=".45"/><text x="18.0" y="114.3" font-family="Figtree,system-ui,sans-serif" font-size="3.6" font-weight="600" fill="#23272E">III</text><polyline fill="none" stroke="#23272E" stroke-width=".45" stroke-linejoin="round" points="74.50,36.33 74.70,36.42 74.95,36.73 75.10,36.69 75.40,36.24 75.70,36.87 76.15,36.79 76.30,36.82 77.10,36.57 78.35,36.32 78.75,35.89 78.95,35.65 79.45,36.29 80.80,36.19 81.00,35.99 81.10,36.50 81.60,36.03 81.85,35.92 81.95,36.19 82.00,35.92 82.20,36.03 82.35,37.07 82.40,37.10 82.45,37.38 82.60,40.00 82.75,43.69 82.85,46.68 82.90,47.80 82.95,48.16 83.00,47.45 83.05,45.95 83.15,42.46 83.20,41.12 83.30,39.49 83.35,38.98 83.45,37.00 83.60,36.10 84.05,35.39 84.45,35.02 84.70,34.95 84.80,34.83 85.75,34.76 85.80,34.97 85.90,34.50 86.25,34.97 86.35,34.68 87.20,34.86 87.25,35.03 87.30,34.70 88.15,35.37 88.25,35.33 89.55,36.35 89.85,36.90 90.50,36.79 90.60,36.79 90.80,36.33 91.05,36.96 92.50,36.49 92.55,36.39 92.70,36.95 93.05,36.38 93.25,36.49 93.55,36.24 93.85,36.70 93.95,36.39 94.05,35.73 94.40,36.47 94.75,36.10 94.95,36.65 95.00,36.47 95.15,37.15 95.25,37.27 95.30,37.23 95.35,37.84 95.55,42.45 95.60,43.90 95.65,45.58 95.70,47.05 95.75,47.94 95.80,47.97 95.85,47.06 95.90,45.58 96.00,42.19 96.05,40.93 96.15,39.29 96.25,37.86 96.45,36.49 96.50,36.49 96.65,35.42 96.95,35.05 97.00,35.12 97.10,34.74 97.25,34.74 97.50,35.02 97.75,34.69 98.15,35.09 99.00,34.89 99.40,34.82 99.50,34.46 99.85,34.81 100.05,34.76 100.15,34.54 100.30,34.63 100.55,34.72 100.85,35.18 101.00,34.83 101.40,34.87 101.80,35.81 102.00,35.96 102.05,36.43 102.65,36.34 102.75,36.73 103.35,36.70 103.65,36.13 104.30,36.47 104.55,36.63 104.70,36.81 104.85,36.37 104.95,37.13 105.30,36.58 105.75,36.69 105.85,36.20 106.25,36.63 107.60,36.32 108.60,36.42 108.65,36.09 108.70,35.97 108.75,36.62 109.15,36.13 109.75,36.18 109.80,36.02 109.95,36.27 110.00,36.25 110.25,37.27 110.30,37.76 110.40,39.66 110.50,41.82 110.65,46.40 110.70,47.75 110.75,48.41 110.80,47.57 110.90,44.38 111.00,41.34 111.10,39.86 111.20,38.93 111.25,37.76 111.35,36.40 111.40,35.94 111.60,35.44 111.75,35.36 111.85,35.08 112.05,35.01 112.30,35.00 112.70,35.08 112.80,34.77 114.45,34.80 114.60,34.79 114.75,34.73 114.85,34.52 116.05,35.37 116.15,35.52 116.25,35.13 116.60,36.17 116.80,36.07 116.90,36.61 117.05,36.54 117.10,36.82 117.20,36.71 117.25,37.10 118.50,36.55 118.65,37.00 119.00,36.54 119.70,36.67 119.75,36.83 120.55,36.69 120.75,36.52 120.90,36.67 121.95,36.51 122.15,36.02 122.35,36.00 122.60,36.50 123.60,36.22 123.85,36.35 124.70,36.33 124.75,36.59 125.35,36.35 125.95,36.18 126.05,36.05 126.30,35.99 126.40,36.30 126.75,36.00 127.15,36.03 127.30,36.11 127.40,36.40 127.45,36.39 127.60,37.09 127.65,37.14 127.70,37.39 127.75,38.08 127.85,40.05 127.95,42.35 128.10,46.75 128.15,47.93 128.20,48.35 128.25,47.55 128.45,41.27 128.50,40.26 128.55,39.51 128.60,39.25 128.65,38.76 128.70,37.86 128.80,36.65 129.15,35.61 129.30,35.32 129.40,35.49 129.50,34.89 130.75,35.00 130.85,34.76 131.10,34.71 131.45,34.53 131.65,34.45 131.95,34.46 132.10,34.26 132.30,34.28 132.85,34.74 133.25,34.85 133.35,34.69 133.80,35.41 134.05,35.59 134.15,35.16 134.55,36.11 134.70,36.56 136.10,36.65 136.60,36.99 136.80,36.69 136.95,36.64"/><text x="75.5" y="17.0" font-family="Figtree,system-ui,sans-serif" font-size="3.6" font-weight="600" fill="#23272E">aVR</text><polyline fill="none" stroke="#23272E" stroke-width=".45" stroke-linejoin="round" points="74.50,84.98 74.75,84.68 74.90,84.46 75.30,84.91 75.50,84.87 75.80,84.58 76.10,84.59 76.20,84.19 77.60,84.87 78.30,84.86 78.45,85.32 78.80,85.46 79.00,85.50 79.55,85.18 80.85,85.28 81.00,85.22 81.05,84.98 81.15,85.26 81.85,85.34 81.95,85.19 82.00,85.34 82.05,85.72 82.20,86.16 82.25,86.14 82.35,85.21 82.45,84.77 82.60,83.12 82.75,80.72 82.85,78.45 83.00,76.64 83.15,77.11 83.20,77.82 83.25,78.89 83.30,79.64 83.35,80.06 83.40,81.38 83.45,83.14 83.60,85.19 83.65,85.47 84.00,85.63 84.15,85.98 84.95,86.29 85.05,86.30 85.15,86.52 85.65,86.44 85.80,86.39 85.90,86.61 86.25,86.38 86.45,86.50 87.20,86.32 87.25,86.20 87.35,86.40 88.05,85.90 88.10,85.70 88.20,86.05 89.70,84.68 90.10,84.50 90.40,84.78 90.45,84.70 90.55,84.07 90.85,84.37 91.10,84.20 92.60,84.72 92.70,84.51 92.90,84.59 93.25,84.67 93.55,85.03 93.85,84.73 93.90,84.84 94.00,85.35 94.10,85.49 94.40,85.15 94.80,85.28 94.90,85.07 94.95,85.17 95.00,85.73 95.05,85.82 95.20,84.78 95.30,84.69 95.35,84.34 95.55,81.80 95.60,80.91 95.65,79.36 95.70,78.09 95.75,77.77 95.80,76.73 95.85,75.45 95.90,75.44 95.95,75.92 96.00,75.65 96.10,77.67 96.25,79.71 96.35,82.46 96.40,83.51 96.45,84.15 96.50,84.18 96.70,85.35 96.95,85.77 97.05,85.65 97.20,86.28 97.55,86.05 97.75,86.38 98.30,86.20 99.35,86.26 99.45,86.21 99.50,86.67 100.05,86.55 100.20,86.55 100.25,86.51 100.40,86.82 100.90,86.58 101.10,86.86 101.25,86.93 101.50,86.82 101.80,85.85 102.00,85.62 102.05,85.33 102.70,84.78 102.80,84.55 103.30,84.28 103.70,84.72 104.30,84.68 104.70,84.56 104.85,84.81 104.95,84.45 105.35,84.75 105.65,84.74 105.75,84.54 106.95,84.94 107.30,85.13 108.60,85.05 108.70,85.28 108.75,84.95 109.55,85.28 109.75,85.28 109.80,85.58 109.90,85.60 110.00,86.11 110.10,85.86 110.15,85.51 110.30,83.82 110.40,82.68 110.50,81.87 110.60,79.67 110.65,78.29 110.70,77.15 110.75,76.60 110.80,75.76 110.85,75.50 110.95,76.01 111.05,77.33 111.10,78.19 111.15,78.50 111.20,79.09 111.25,81.10 111.30,82.84 111.35,83.73 111.45,84.70 111.60,85.33 111.95,85.82 112.00,86.01 112.25,85.82 112.30,86.09 112.75,86.08 113.05,86.10 113.20,86.34 114.25,86.41 114.35,86.58 114.75,86.53 115.20,86.41 116.05,86.02 116.25,86.28 116.65,85.43 116.80,85.44 116.90,85.10 117.20,84.92 117.30,84.70 118.55,84.70 118.70,84.54 119.20,84.65 119.85,84.54 120.50,84.69 120.75,84.69 120.80,85.03 122.00,84.84 122.10,84.90 122.20,84.79 122.30,85.26 122.65,84.81 123.60,84.77 124.00,85.11 124.70,85.11 124.95,85.10 125.05,85.21 125.90,85.13 126.00,85.50 126.35,85.37 127.20,85.49 127.40,85.80 127.45,85.99 127.75,83.84 127.90,82.18 127.95,81.44 128.10,77.62 128.15,76.89 128.20,76.43 128.25,75.64 128.40,76.23 128.45,77.13 128.50,78.46 128.55,79.16 128.60,79.37 128.65,80.34 128.70,82.00 128.75,83.24 128.80,84.18 128.85,84.53 129.05,85.17 129.15,85.63 129.25,85.63 129.30,85.87 129.40,85.59 129.45,85.83 129.50,86.33 130.75,86.12 131.30,86.30 131.40,86.32 131.50,86.73 131.90,86.41 132.05,86.57 132.15,87.09 132.90,86.70 133.50,86.56 133.95,86.07 134.05,85.99 134.15,86.20 134.70,85.02 135.40,84.84 136.40,84.63 136.60,84.29 136.65,84.37 136.75,84.89 136.95,84.88"/><text x="75.5" y="65.7" font-family="Figtree,system-ui,sans-serif" font-size="3.6" font-weight="600" fill="#23272E">aVL</text><polyline fill="none" stroke="#23272E" stroke-width=".45" stroke-linejoin="round" points="74.50,133.69 74.95,133.73 75.30,133.69 75.55,133.69 75.80,133.58 76.15,133.77 76.60,133.87 77.65,133.65 78.35,133.66 78.55,133.53 79.00,133.76 79.60,133.52 80.90,133.64 81.05,133.71 81.15,133.24 81.70,133.65 81.95,133.62 82.00,133.74 82.10,133.08 82.25,132.51 82.40,132.87 82.45,132.84 82.65,131.44 82.90,129.36 82.95,129.50 83.05,132.24 83.15,135.41 83.20,136.04 83.25,135.83 83.35,135.94 83.40,135.54 83.45,134.83 83.60,133.69 83.65,133.53 84.05,133.78 84.70,133.83 85.05,133.82 85.65,133.70 85.80,133.65 85.90,133.87 86.25,133.64 86.45,133.76 87.25,133.75 87.35,133.94 88.05,133.81 88.15,133.81 88.25,133.70 89.60,133.70 89.95,133.59 90.45,133.56 90.55,134.03 90.85,134.20 91.10,133.86 92.50,133.79 92.60,133.76 92.70,133.52 93.05,134.06 93.35,133.75 93.75,133.53 93.95,133.43 94.05,133.77 94.45,133.41 94.80,133.46 94.95,133.18 95.05,132.39 95.10,132.48 95.20,132.93 95.30,133.06 95.35,132.82 95.60,130.17 95.70,129.85 95.75,129.28 95.80,130.30 95.85,132.49 95.90,133.96 95.95,135.18 96.00,137.14 96.05,137.40 96.15,137.28 96.25,137.41 96.35,135.35 96.40,134.69 96.45,134.35 96.65,134.41 96.95,134.15 97.05,134.47 97.25,133.99 97.70,133.84 98.50,133.80 99.35,133.80 99.45,134.18 99.50,133.86 99.95,133.67 100.25,133.80 100.50,133.52 100.90,133.28 101.05,133.43 101.30,133.23 101.65,133.23 102.00,133.41 102.10,133.23 102.70,133.76 103.20,133.96 103.70,134.09 104.75,133.70 104.85,133.82 104.95,133.43 105.45,133.60 105.75,133.76 105.85,134.12 106.35,133.71 108.35,133.49 108.60,133.53 108.70,133.75 108.75,133.42 109.15,133.65 109.75,133.53 109.95,132.88 110.05,132.56 110.15,132.70 110.25,133.28 110.30,133.40 110.35,133.17 110.55,130.76 110.60,130.38 110.75,129.97 110.80,131.65 110.85,133.57 110.90,134.91 111.00,137.04 111.10,136.93 111.15,137.07 111.20,136.97 111.30,135.11 111.35,134.83 111.60,134.22 111.95,134.12 112.25,134.06 112.35,133.87 112.75,134.00 113.10,133.99 114.55,133.65 114.95,133.83 116.05,133.59 116.15,133.23 116.25,133.59 116.65,133.36 116.80,133.49 116.90,133.26 117.05,133.39 117.15,133.28 117.20,133.35 117.25,133.16 118.55,133.65 118.65,133.48 119.10,133.74 119.70,133.77 120.60,133.65 120.75,133.78 120.80,133.30 120.95,133.26 122.00,133.79 122.20,134.21 122.35,133.76 122.65,133.72 123.55,134.08 123.85,133.55 124.70,133.56 124.80,133.41 125.55,133.52 125.95,133.53 126.55,133.48 127.25,133.36 127.45,132.62 127.60,132.88 127.65,133.24 127.70,133.37 127.85,132.22 127.95,131.19 128.05,130.67 128.10,130.63 128.15,130.19 128.20,130.22 128.25,131.80 128.30,133.04 128.40,135.98 128.45,136.57 128.50,136.25 128.60,136.36 128.65,135.89 128.75,134.56 128.80,134.15 129.15,133.75 129.30,133.80 129.35,133.72 129.45,134.02 129.50,133.77 130.75,133.87 131.40,134.05 131.50,133.84 132.00,133.99 132.15,133.73 133.25,133.53 133.50,133.48 134.05,133.41 134.15,133.64 134.75,133.45 136.25,133.55 136.55,133.63 136.65,133.69 136.80,133.44 136.95,133.48"/><text x="75.5" y="114.3" font-family="Figtree,system-ui,sans-serif" font-size="3.6" font-weight="600" fill="#23272E">aVF</text><polyline fill="none" stroke="#23272E" stroke-width=".45" stroke-linejoin="round" points="137.00,36.22 138.60,36.57 139.45,36.20 140.85,36.17 142.60,36.37 142.80,36.47 144.45,36.15 144.80,36.15 145.35,36.40 145.70,35.86 145.85,36.33 146.05,37.29 146.15,38.54 146.20,39.33 146.25,40.41 146.30,41.99 146.40,44.27 146.45,44.83 146.55,43.85 146.60,42.84 146.65,41.37 146.70,40.17 146.95,36.09 147.05,35.57 149.95,35.71 150.50,35.58 150.55,35.29 152.30,35.72 153.30,36.36 154.10,36.45 156.20,36.50 156.35,36.56 158.85,36.20 160.15,36.53 161.10,36.18 162.15,36.02 162.35,35.63 162.45,35.99 162.70,37.17 162.75,37.55 162.85,38.71 162.90,39.59 163.00,42.57 163.10,45.08 163.15,45.24 163.25,44.16 163.35,41.59 163.45,39.69 163.55,38.18 163.70,36.72 164.45,35.72 164.95,35.50 165.55,35.27 165.65,34.98 166.10,35.36 166.40,35.74 168.00,35.54 168.15,35.29 168.90,35.26 169.55,35.87 170.25,36.76 172.85,36.21 173.55,36.09 173.95,36.40 174.25,36.73 174.45,36.86 176.90,36.07 177.55,36.16 179.35,36.45 181.05,36.06 181.50,36.24 181.80,36.42 182.15,35.93 182.25,35.59 182.60,37.46 182.70,38.60 182.75,39.46 182.80,40.68 182.90,43.68 182.95,44.63 183.00,44.98 183.05,44.39 183.10,43.56 183.20,40.69 183.35,38.30 183.45,36.60 183.55,35.55 184.05,35.57 185.70,35.58 188.05,35.51 189.15,35.93 189.60,36.30 191.10,36.42 193.05,36.39 195.45,36.30 196.55,36.20 197.95,36.53 199.45,36.15"/><text x="138.0" y="17.0" font-family="Figtree,system-ui,sans-serif" font-size="3.6" font-weight="600" fill="#23272E">V1</text><polyline fill="none" stroke="#23272E" stroke-width=".45" stroke-linejoin="round" points="137.00,84.71 138.60,84.89 139.85,84.66 142.80,84.87 144.70,84.65 145.45,84.65 145.60,83.84 145.65,83.50 145.90,83.33 145.95,83.17 146.05,81.54 146.10,81.78 146.20,82.83 146.25,84.26 146.30,86.66 146.40,90.55 146.45,92.27 146.55,94.34 146.60,94.25 146.70,92.40 146.75,91.66 146.85,89.52 147.00,87.83 147.15,86.98 147.25,86.00 147.40,85.47 148.30,85.15 150.50,84.88 151.05,84.41 151.30,84.17 152.30,84.11 152.60,84.05 155.65,84.80 156.90,84.71 157.85,84.52 160.60,84.94 161.90,84.65 162.25,84.05 162.35,83.50 162.40,83.39 162.50,83.54 162.60,82.81 162.70,81.62 162.75,81.54 162.85,82.67 162.90,83.84 163.10,92.40 163.15,94.20 163.20,95.49 163.25,96.17 163.30,95.37 163.50,91.10 163.85,87.08 164.00,86.05 164.45,85.32 166.15,85.09 166.75,85.27 167.45,84.88 167.85,84.38 168.00,84.33 168.10,84.11 168.20,84.10 168.30,83.84 168.55,83.73 168.75,83.56 169.00,83.57 169.10,83.41 170.05,84.22 170.65,85.07 171.80,85.07 172.20,84.86 172.45,84.59 174.20,84.73 175.25,84.91 175.85,84.63 177.60,84.82 178.95,85.08 181.85,84.62 182.10,84.13 182.25,83.32 182.40,83.75 182.45,83.59 182.60,81.83 182.65,81.92 182.75,83.21 182.80,84.62 182.90,89.21 182.95,90.97 183.00,92.44 183.05,93.46 183.10,94.22 183.15,93.77 183.20,92.61 183.30,91.38 183.40,89.33 183.45,88.67 183.60,87.45 183.75,86.47 183.95,85.16 185.40,85.32 185.50,85.63 187.05,85.31 187.55,84.73 188.50,84.26 188.80,83.98 189.10,83.97 191.05,84.75 195.60,84.72 195.95,84.56 198.00,84.82 199.20,84.72 199.35,84.50 199.45,84.50"/><text x="138.0" y="65.7" font-family="Figtree,system-ui,sans-serif" font-size="3.6" font-weight="600" fill="#23272E">V2</text><polyline fill="none" stroke="#23272E" stroke-width=".45" stroke-linejoin="round" points="137.00,133.63 138.10,133.63 139.50,133.55 141.35,133.48 141.65,133.72 142.60,133.66 142.70,133.91 143.90,133.48 145.25,133.45 145.40,133.18 145.55,132.85 145.70,131.96 145.85,131.93 145.90,131.75 145.95,131.25 146.00,130.45 146.05,129.38 146.10,128.73 146.15,128.87 146.25,129.64 146.35,133.04 146.45,136.79 146.55,140.86 146.60,141.92 146.65,141.86 146.75,141.15 146.85,139.64 146.90,138.99 147.00,137.22 147.25,134.93 147.40,134.29 150.25,133.85 152.10,132.91 152.90,132.69 154.65,133.38 155.20,133.60 157.00,133.45 157.25,133.40 157.35,133.62 161.15,133.63 162.05,133.41 162.25,132.79 162.30,132.54 162.35,132.06 162.40,131.79 162.50,131.84 162.60,131.17 162.75,129.05 162.80,128.76 162.90,129.70 162.95,130.51 163.10,136.16 163.20,140.85 163.25,142.65 163.30,143.02 163.55,140.09 163.70,137.47 163.75,136.68 163.90,135.21 164.05,134.48 164.30,133.96 166.85,133.87 167.45,133.51 168.00,133.00 168.15,132.76 168.30,132.78 168.45,132.52 168.90,132.32 169.00,132.33 169.10,132.10 170.10,132.85 170.65,133.50 170.95,133.72 173.35,133.35 174.30,133.57 174.55,133.75 175.80,133.52 176.50,133.56 176.60,133.74 178.30,133.77 181.45,133.36 182.05,132.98 182.15,132.54 182.25,131.91 182.40,132.03 182.45,131.90 182.65,128.82 182.70,128.81 182.80,130.02 182.85,131.40 182.95,135.18 183.00,136.85 183.05,138.91 183.10,140.75 183.15,141.38 183.25,141.26 183.40,139.43 183.50,137.68 183.65,136.05 183.85,134.59 184.00,134.25 184.25,133.90 185.35,134.07 185.55,134.52 186.75,134.45 187.70,133.54 189.00,132.59 190.55,133.10 191.30,133.41 193.10,133.43 196.70,133.67 197.35,133.77 198.80,133.57 199.45,133.35"/><text x="138.0" y="114.3" font-family="Figtree,system-ui,sans-serif" font-size="3.6" font-weight="600" fill="#23272E">V3</text><polyline fill="none" stroke="#23272E" stroke-width=".45" stroke-linejoin="round" points="199.50,36.32 200.45,36.39 200.70,36.07 200.80,35.59 200.90,34.82 201.05,34.10 201.10,33.68 201.15,32.97 201.25,30.74 201.30,29.54 201.35,28.77 201.45,28.21 201.50,28.49 201.60,30.86 201.65,32.93 201.75,39.45 201.80,41.82 201.85,43.40 201.90,43.91 202.05,43.52 202.15,41.46 202.25,39.93 202.45,37.98 202.50,37.59 202.95,37.14 204.75,37.25 205.80,36.94 206.45,36.50 207.55,35.82 208.15,35.48 209.70,36.03 211.45,35.94 211.70,35.88 212.00,34.71 212.15,33.89 212.20,33.46 212.25,32.62 212.45,28.47 212.55,27.14 212.60,27.29 212.65,28.10 212.70,29.49 212.75,31.85 212.85,39.20 212.90,41.73 212.95,42.81 213.00,43.16 213.10,43.23 213.15,42.85 213.25,40.47 213.30,39.45 213.40,38.59 213.50,38.13 213.75,37.58 215.40,37.55 216.35,37.33 216.80,36.99 217.60,35.92 218.25,35.73 218.55,35.38 219.20,35.63 219.70,35.96 220.95,36.07 223.95,36.51 225.70,36.33 227.90,36.26 228.15,35.67 228.30,34.62 228.40,34.31 228.45,34.06 228.50,34.03 228.55,33.39 228.70,30.01 228.80,28.34 228.90,28.68 228.95,29.21 229.05,31.74 229.10,34.45 229.15,37.53 229.20,39.80 229.25,41.51 229.30,42.48 229.35,42.68 229.45,42.63 229.50,42.20 229.55,41.16 229.60,40.38 229.80,38.18 229.95,37.30 230.35,37.11 232.15,37.23 233.25,36.94 233.90,36.24 234.05,36.39 234.45,35.70 234.55,35.91 234.70,35.55 235.20,35.13 235.50,34.94 235.55,34.68 236.80,35.39 238.75,35.97 241.10,36.48 242.60,36.62 242.80,36.72 247.95,36.17 248.30,34.20 248.35,34.10 248.40,33.70 248.50,31.83 248.60,29.59 248.65,28.76 248.70,28.47 248.80,28.95 248.85,29.96 248.90,31.32 248.95,33.51 249.00,37.13 249.05,39.66 249.10,41.51 249.15,42.91 249.20,43.46 249.35,42.88 249.40,42.14 249.45,41.02 249.50,40.23 249.65,38.75 249.85,37.64 250.30,37.28 251.50,37.39 253.05,37.25 254.05,36.63 254.75,35.91 254.95,35.78 255.15,35.45 255.65,35.30 257.15,36.08 259.10,36.28 261.95,36.33"/><text x="200.5" y="17.0" font-family="Figtree,system-ui,sans-serif" font-size="3.6" font-weight="600" fill="#23272E">V4</text><polyline fill="none" stroke="#23272E" stroke-width=".45" stroke-linejoin="round" points="199.50,84.91 200.60,84.89 200.80,84.74 200.95,83.93 201.00,83.48 201.10,82.18 201.15,81.23 201.20,79.77 201.25,77.97 201.40,71.50 201.50,66.39 201.55,64.68 201.60,63.66 201.65,64.83 201.70,68.63 201.75,73.53 201.80,78.19 201.85,82.31 201.90,85.00 201.95,86.30 202.00,87.21 202.05,87.88 202.10,87.86 202.45,86.71 204.35,86.71 206.45,86.53 207.45,86.24 208.20,84.92 208.65,84.51 211.75,84.37 211.95,84.15 212.10,83.29 212.15,82.81 212.20,82.10 212.25,81.15 212.30,79.68 212.40,76.16 212.45,74.24 212.50,72.05 212.55,69.48 212.60,67.25 212.65,65.73 212.70,65.48 212.75,67.26 212.80,71.47 212.85,77.53 212.90,82.67 212.95,85.44 213.00,86.76 213.10,88.34 213.15,88.43 213.25,87.42 213.35,86.74 213.40,86.59 215.05,86.75 215.30,87.01 217.35,86.45 218.25,85.98 218.55,85.20 219.30,84.62 220.80,84.42 222.10,84.83 222.20,84.50 222.75,85.00 223.85,85.02 223.95,85.24 224.35,84.96 225.85,85.08 226.65,85.31 227.60,85.27 228.05,85.13 228.25,84.81 228.40,83.87 228.50,82.82 228.55,82.02 228.60,80.88 228.65,79.26 228.75,75.56 228.90,69.28 228.95,67.53 229.00,66.81 229.05,66.70 229.10,69.99 229.15,74.30 229.20,78.18 229.25,82.43 229.30,85.03 229.35,86.44 229.40,87.20 229.50,88.11 229.65,87.43 230.00,86.76 230.40,86.82 230.70,86.94 231.35,86.96 231.45,87.25 232.90,86.98 233.05,86.96 233.15,87.17 233.65,86.66 234.45,86.29 235.25,84.98 236.05,84.35 236.95,84.69 237.35,84.94 238.95,85.01 239.05,85.33 240.00,85.44 241.05,85.67 242.65,85.63 247.80,84.93 248.15,84.39 248.35,82.72 248.40,81.95 248.45,80.82 248.50,79.25 248.65,72.90 248.80,66.00 248.85,64.75 248.90,64.57 248.95,66.71 249.00,71.60 249.05,75.64 249.10,80.19 249.15,83.85 249.20,85.61 249.25,86.64 249.35,87.80 249.40,87.90 249.50,87.22 249.75,86.66 253.05,86.49 254.25,86.23 254.60,85.99 255.75,84.29 256.65,84.24 259.80,84.92 261.95,85.00"/><text x="200.5" y="65.7" font-family="Figtree,system-ui,sans-serif" font-size="3.6" font-weight="600" fill="#23272E">V5</text><polyline fill="none" stroke="#23272E" stroke-width=".45" stroke-linejoin="round" points="199.50,133.83 200.80,133.90 200.95,133.45 201.10,132.45 201.15,131.95 201.20,130.93 201.25,129.44 201.35,125.92 201.40,124.00 201.50,119.11 201.60,114.96 201.65,114.59 201.70,116.24 201.75,118.85 201.85,126.23 201.90,128.76 202.05,132.26 202.10,132.74 202.40,134.28 202.50,134.34 202.60,134.94 203.05,135.04 203.15,135.37 204.35,135.38 206.05,135.41 207.50,135.19 208.35,133.67 208.70,133.36 209.55,133.31 210.45,133.23 211.75,133.22 211.95,133.21 212.15,132.39 212.20,132.04 212.25,131.45 212.35,129.09 212.40,127.68 212.45,126.04 212.50,124.10 212.55,121.81 212.65,117.87 212.70,116.79 212.75,117.53 212.80,119.77 212.85,124.03 212.90,128.00 212.95,130.15 213.00,131.32 213.05,132.24 213.20,133.55 213.55,134.30 213.65,134.80 214.55,134.80 214.70,135.05 214.90,135.29 215.70,135.44 215.80,135.56 217.15,135.38 217.90,134.90 218.20,134.66 218.90,133.53 219.75,133.27 220.25,133.18 220.50,133.09 222.40,133.67 224.85,133.69 226.20,133.92 228.15,133.89 228.40,133.22 228.50,132.75 228.55,132.28 228.60,131.41 228.65,130.14 228.75,127.04 228.85,123.16 228.95,118.78 229.00,117.25 229.05,115.93 229.10,117.24 229.15,119.55 229.20,122.36 229.25,126.42 229.30,128.86 229.35,130.20 229.40,131.21 229.45,131.96 229.70,133.95 230.05,134.96 231.35,135.50 231.45,135.79 234.60,135.23 235.05,134.54 235.35,134.33 235.75,133.70 236.55,133.18 237.25,133.65 238.35,133.59 238.90,133.94 240.55,134.02 240.65,134.24 244.10,134.19 247.75,133.75 247.85,133.52 248.20,133.54 248.40,132.19 248.45,131.53 248.50,130.44 248.60,127.23 248.65,125.38 248.75,120.86 248.80,118.27 248.85,116.29 248.90,114.97 248.95,115.33 249.05,120.35 249.10,124.35 249.15,127.77 249.20,129.35 249.25,130.50 249.35,131.96 249.45,133.12 249.65,134.03 250.25,135.11 251.00,135.04 251.10,135.39 252.35,135.38 253.35,135.22 254.00,135.31 254.80,134.87 255.15,134.38 255.80,133.54 256.25,133.48 256.40,133.19 256.50,132.95 258.50,133.42 261.95,133.66"/><text x="200.5" y="114.3" font-family="Figtree,system-ui,sans-serif" font-size="3.6" font-weight="600" fill="#23272E">V6</text><polyline fill="none" stroke="#23272E" stroke-width=".45" stroke-linejoin="round" points="17.00,182.02 17.25,182.02 17.35,182.21 18.45,182.02 18.55,182.60 18.95,182.06 19.05,182.20 20.40,182.06 20.60,181.78 20.75,182.35 20.80,182.89 20.85,182.72 20.90,182.12 20.95,181.90 21.05,182.06 21.90,182.09 22.05,182.18 22.50,181.82 22.90,181.17 22.95,180.89 23.00,180.19 23.10,177.99 23.25,174.63 23.35,172.90 23.40,171.42 23.45,171.08 23.50,173.48 23.55,175.19 23.65,179.65 23.70,180.64 23.80,181.50 23.85,182.19 23.90,182.51 24.15,182.21 24.25,182.68 24.55,183.02 25.45,183.11 25.50,183.31 25.55,183.86 25.60,183.95 26.00,183.34 28.85,182.77 29.35,182.57 29.70,181.93 29.95,182.03 30.00,182.19 30.25,181.75 30.30,182.09 30.75,181.81 31.75,182.09 32.45,181.65 32.55,182.33 33.05,181.78 34.10,181.87 34.70,182.20 35.15,181.34 37.05,181.83 37.10,181.78 37.20,182.30 38.60,181.98 38.95,181.98 39.20,181.60 39.30,182.22 40.25,181.98 40.60,182.15 41.70,181.94 42.10,181.78 42.20,181.84 42.60,181.12 42.70,181.03 42.75,180.38 42.85,178.43 43.00,175.01 43.05,173.61 43.10,172.73 43.15,171.62 43.20,171.33 43.30,175.11 43.40,179.50 43.45,180.72 43.55,181.83 43.75,182.88 44.25,182.71 44.30,183.08 44.65,182.98 44.70,183.14 44.75,183.68 45.15,182.94 45.30,183.17 46.60,183.11 46.75,183.44 46.80,183.69 47.45,183.24 48.05,183.01 48.85,182.85 49.05,182.38 49.10,182.94 49.15,183.13 49.20,182.54 49.25,182.20 49.35,182.43 50.00,181.68 50.20,181.70 50.30,181.13 50.80,181.71 51.55,181.89 51.65,182.41 52.55,181.88 52.80,181.85 53.05,181.76 53.10,181.87 53.20,181.47 54.05,181.58 54.20,181.48 56.00,181.91 56.05,181.32 56.10,181.24 56.35,181.87 56.45,182.32 57.55,181.67 58.60,181.88 58.80,180.98 58.95,181.56 59.00,181.50 59.05,180.48 59.15,178.82 59.25,176.28 59.30,175.20 59.35,173.85 59.50,171.16 59.55,172.68 59.60,174.54 59.70,179.41 59.75,180.64 59.85,181.77 59.95,183.17 60.50,183.03 61.05,182.98 61.15,183.25 61.50,183.08 61.55,183.65 61.60,183.58 61.65,183.12 61.75,182.87 61.85,183.02 62.00,183.17 62.70,183.10 62.75,183.35 63.85,183.05 64.30,182.97 64.80,182.61 65.15,182.45 65.35,182.27 65.45,182.54 65.90,181.99 66.80,181.82 67.60,182.12 67.70,182.14 67.75,182.39 68.20,181.80 70.00,181.79 71.20,182.11 71.55,181.99 71.80,181.59 71.90,181.11 72.10,181.18 72.15,180.94 72.25,179.70 72.30,178.66 72.40,176.12 72.50,174.38 72.55,173.25 72.60,171.84 72.65,171.89 72.80,177.49 72.85,179.63 72.90,180.91 72.95,181.38 73.00,182.16 73.10,182.93 73.15,182.98 73.25,182.40 73.40,182.16 73.75,182.67 73.80,183.01 74.20,183.01 74.25,183.30 75.65,182.93 75.85,183.17 76.05,182.81 76.10,182.91 76.20,183.52 76.65,182.94 76.70,183.04 76.75,183.40 77.20,182.81 77.80,182.44 77.90,182.46 78.00,182.53 78.65,182.19 79.75,181.92 80.10,181.74 80.45,182.12 80.70,181.55 81.80,181.92 82.10,181.88 83.60,182.05 83.95,182.54 84.45,181.92 85.80,182.03 86.00,182.30 86.10,181.70 86.15,181.61 86.60,182.16 86.85,182.31 86.95,182.06 87.00,182.32 87.10,181.80 87.20,181.62 87.30,180.97 87.40,180.96 87.45,180.75 87.60,178.36 87.75,175.03 87.85,172.55 87.90,171.48 87.95,171.34 88.00,172.74 88.05,174.63 88.15,179.07 88.20,180.39 88.40,182.10 88.45,182.32 88.70,182.15 89.30,182.94 89.70,183.02 89.80,183.15 90.65,183.01 90.75,183.10 90.80,182.89 90.90,183.36 91.25,182.89 91.35,183.18 92.20,183.08 92.25,182.93 92.30,183.26 93.10,182.76 94.55,182.04 94.80,181.54 95.45,181.66 95.80,182.39 96.05,181.71 97.50,181.98 97.55,182.09 97.70,181.48 98.05,182.23 98.20,181.94 98.55,182.10 98.85,181.68 98.95,181.80 99.05,182.47 99.40,181.72 99.75,182.06 100.00,181.32 100.05,180.85 100.10,180.75 100.30,180.98 100.35,180.43 100.55,175.96 100.65,173.42 100.75,171.33 100.80,171.99 100.95,177.98 101.00,180.41 101.05,181.42 101.25,183.48 101.35,182.56 101.50,182.32 101.60,182.96 101.75,183.10 102.00,183.19 102.05,183.52 102.25,183.28 102.50,183.02 102.70,183.10 102.75,183.26 103.15,182.87 104.00,183.08 104.35,183.04 104.45,183.49 104.80,182.98 105.05,183.06 105.15,183.28 105.65,182.79 105.90,182.53 106.00,182.84 106.50,182.50 106.90,182.09 107.00,182.07 107.05,181.65 107.25,181.78 107.65,182.07 107.75,181.74 108.40,182.01 108.65,182.45 109.30,182.01 109.55,181.83 109.70,181.65 109.85,182.07 109.95,181.31 110.30,181.82 110.75,181.82 110.85,182.40 111.00,182.22 111.30,181.87 113.60,181.84 113.65,182.17 113.70,182.29 113.75,181.63 114.15,182.12 114.85,181.90 115.10,181.06 115.25,181.12 115.30,180.86 115.35,180.12 115.50,176.75 115.60,174.06 115.70,171.99 115.75,171.48 115.80,173.15 115.85,175.55 115.95,179.20 116.00,180.91 116.15,182.20 116.25,182.68 116.30,182.49 116.40,183.00 116.75,182.96 116.85,183.19 117.70,183.00 117.80,183.31 119.55,182.95 119.75,183.11 119.85,183.35 121.05,182.58 121.10,182.30 121.15,182.24 121.25,182.74 121.60,181.89 121.80,182.06 121.90,181.54 122.05,181.67 122.10,181.40 122.20,181.53 122.25,181.14 123.50,181.86 123.65,181.42 124.00,181.92 124.70,181.84 124.80,181.72 125.65,181.77 125.75,181.95 125.80,181.53 126.20,181.62 126.95,181.89 127.20,182.60 127.60,181.89 128.55,182.38 128.85,181.91 129.70,181.93 129.75,181.64 131.30,182.11 131.40,181.85 131.75,182.11 132.25,181.92 132.35,181.62 132.45,181.26 132.55,180.95 132.65,181.18 132.70,181.08 132.80,179.57 133.00,175.21 133.05,173.99 133.15,171.94 133.20,171.68 133.25,173.27 133.35,177.16 133.40,179.25 133.45,180.64 133.55,181.65 133.75,182.03 134.30,182.76 134.35,182.61 134.40,182.72 134.45,183.03 135.75,183.02 135.85,183.25 136.10,183.29 137.25,183.48 137.85,182.97 138.25,182.89 138.35,183.05 138.75,182.45 139.05,182.31 139.15,182.76 139.55,182.06 139.70,181.66 141.10,181.74 141.40,181.57 142.90,181.72 143.90,181.60 145.10,181.73 145.60,181.71 146.50,181.92 146.60,181.68 146.95,181.76 147.10,181.68 147.50,181.91 147.80,181.94 147.90,181.59 148.80,182.11 148.85,182.26 148.95,181.77 150.45,181.97 150.75,181.42 150.80,181.08 150.85,181.00 150.90,181.13 150.95,180.98 151.05,180.10 151.10,178.97 151.15,177.45 151.25,174.95 151.30,173.91 151.35,173.21 151.40,172.11 151.45,171.70 151.50,173.40 151.60,177.50 151.65,179.65 151.70,180.98 151.85,181.89 152.20,182.48 152.30,183.03 152.70,183.13 152.80,183.25 153.00,183.16 153.15,183.44 155.50,183.15 155.55,183.76 155.60,183.57 155.65,182.85 155.70,182.62 155.75,182.94 156.85,182.95 157.30,182.86 158.05,181.81 158.70,181.56 159.00,181.61 159.10,182.13 159.20,182.08 159.50,181.66 161.00,181.96 161.05,181.77 161.20,182.30 161.60,181.68 162.30,182.14 162.40,182.33 162.75,181.61 164.25,182.05 164.45,182.23 166.35,182.02 167.25,181.86 167.30,181.35 167.35,181.26 167.55,181.58 167.65,180.28 167.70,179.86 167.80,177.92 168.00,172.91 168.10,171.01 168.15,171.61 168.25,175.68 168.30,178.33 168.35,180.35 168.40,181.29 168.50,182.32 168.55,183.05 168.60,183.18 169.00,183.08 170.10,183.13 170.55,182.91 170.65,183.42 172.00,183.10 172.25,183.20 173.25,182.80 174.15,182.52 174.60,181.88 175.65,181.63 176.00,182.15 176.75,181.82 176.85,182.00 177.80,181.78 178.60,182.05 179.30,181.99 179.40,181.39 179.65,181.89 179.80,182.01 180.90,181.73 180.95,181.61 181.30,182.16 181.35,182.12 181.45,182.59 182.95,181.96 183.20,181.44 183.70,182.09 184.20,182.38 184.85,181.87 185.25,182.11 186.55,181.84 186.65,182.41 187.00,182.08 187.10,181.65 187.20,181.58 187.25,181.24 187.45,181.23 187.50,180.95 187.65,178.42 187.70,177.46 187.75,176.23 187.80,174.70 187.85,173.47 187.95,171.73 188.00,171.85 188.05,173.81 188.10,175.55 188.20,180.04 188.25,180.98 188.35,181.89 188.45,182.95 188.80,182.38 188.85,182.54 188.95,183.37 190.00,183.04 190.05,183.11 190.10,182.94 190.20,183.52 191.40,183.07 191.50,183.46 191.80,183.18 191.85,183.51 191.90,183.59 192.00,182.92 193.75,182.55 193.80,182.77 194.35,182.13 194.85,181.87 195.00,181.65 195.45,181.53 195.50,181.32 196.90,181.55 197.25,182.30 197.65,181.58 198.00,181.67 198.05,181.41 199.60,181.89 199.85,182.19 200.20,181.75 202.65,181.93 202.75,181.55 203.15,182.19 204.50,181.95 204.70,181.71 205.00,181.71 205.25,182.25 205.30,182.51 205.70,181.84 205.75,181.56 205.80,181.70 206.00,181.01 206.10,181.06 206.15,180.84 206.20,180.33 206.25,179.57 206.35,177.14 206.55,172.79 206.60,171.42 206.65,171.46 206.70,173.16 206.75,175.13 206.80,177.56 206.85,179.75 206.90,180.91 207.10,182.99 207.15,183.14 207.35,182.48 207.40,182.49 207.50,183.33 208.75,182.91 209.25,182.89 209.40,182.98 209.70,183.02 209.80,183.27 210.30,183.31 211.70,182.90 212.55,182.69 212.95,182.13 215.40,181.92 215.65,182.15 216.50,181.55 216.80,181.62 216.85,181.78 216.95,180.96 217.20,181.01 217.25,180.57 217.30,179.92 217.40,177.92 217.55,173.84 217.60,172.86 217.65,171.66 217.70,171.18 217.75,172.57 217.80,174.33 217.85,176.98 217.90,179.32 217.95,180.40 218.05,181.44 218.35,182.17 218.50,182.61 218.65,183.00 218.85,182.85 218.95,183.20 219.35,182.99 220.55,183.12 220.70,183.11 220.75,183.36 221.65,182.98 221.85,183.00 221.95,183.36 222.45,182.65 224.05,181.72 224.35,182.20 225.00,182.04 225.35,181.60 226.20,181.57 226.30,181.44 227.65,181.77 228.00,181.96 228.25,181.61 228.50,182.16 229.20,181.90 229.50,182.00 229.55,182.26 230.05,181.67 230.30,181.25 230.70,181.95 231.95,182.01 232.10,182.20 232.95,181.93 233.00,181.68 233.15,181.90 233.55,181.28 233.60,180.67 233.85,175.14 233.90,173.87 233.95,172.82 234.05,171.25 234.10,172.63 234.20,176.78 234.25,179.22 234.30,180.48 234.45,181.88 234.55,182.66 234.80,182.75 235.30,182.74 235.40,183.05 236.40,183.12 236.50,182.99 236.55,183.40 238.05,183.13 238.70,182.97 239.45,183.05 239.80,182.38 239.90,182.58 240.35,182.27 240.65,181.89 241.75,181.90 241.90,181.67 242.30,181.87 242.95,181.81 243.00,182.11 243.95,182.21 244.55,182.02 245.15,182.11 245.25,182.18 246.20,181.95 246.35,182.18 247.45,182.00 247.70,181.48 248.20,181.97 250.10,182.15 250.20,182.45 250.55,181.79 250.65,182.17 252.65,181.94 252.90,182.42 252.95,182.32"/><path d="M11.0 182.0h1.6v-10.0h4v10.0h1.6" fill="none" stroke="#23272E" stroke-width=".45"/><text x="18" y="164" font-family="Figtree,system-ui,sans-serif" font-size="3.6" font-weight="600" fill="#23272E">II</text><text x="10.0" y="211" font-family="Figtree,system-ui,sans-serif" font-size="3.2" fill="#5E646B">25 mm/s · 10 mm/mV · PTB-XL (PhysioNet), CC BY 4.0 — registro 02886</text></svg>