<svg xmlns="http://www.w3.org/2000/svg" viewBox="0 0 264 194" role="img" aria-label="Infarto ântero-septal estabelecido"><defs><pattern id="p1" width="1" height="1" patternUnits="userSpaceOnUse"><path d="M1 0V1M0 1H1" fill="none" stroke="#F3C9C3" stroke-width=".12"/></pattern><pattern id="p5" width="5" height="5" patternUnits="userSpaceOnUse"><rect width="5" height="5" fill="url(#p1)"/><path d="M5 0V5M0 5H5" fill="none" stroke="#E39C93" stroke-width=".3"/></pattern></defs><rect width="264" height="194" fill="#FFF8F7"/><rect x="10.0" y="12.0" width="250.0" height="172.0" fill="url(#p5)"/><text x="10.0" y="8" font-family="Figtree,system-ui,sans-serif" font-size="4.2" font-weight="600" fill="#23272E">Infarto ântero-septal estabelecido</text><text x="260" y="8" text-anchor="end" font-family="Figtree,system-ui,sans-serif" font-size="3.4" fill="#5E646B">perda de progressão de R em V1–V3</text><polyline fill="none" stroke="#23272E" stroke-width=".45" stroke-linejoin="round" points="17.00,33.05 17.50,33.10 17.70,33.25 18.50,33.11 18.65,33.20 19.10,33.06 19.20,33.00 19.25,33.42 20.65,33.05 20.75,33.04 20.85,32.92 20.95,33.32 21.05,33.23 21.15,33.45 21.50,33.10 21.85,33.39 21.95,33.66 22.35,33.15 22.45,33.48 22.65,33.25 22.70,33.38 22.90,33.19 23.40,33.12 23.55,32.76 23.60,32.89 23.70,33.52 24.00,33.16 24.10,32.79 24.25,33.17 24.45,32.82 24.95,32.65 25.20,32.95 25.45,32.41 25.85,33.03 25.90,32.87 25.95,32.96 26.00,33.41 26.45,33.34 26.50,33.13 27.45,33.22 27.50,33.16 27.75,34.26 27.85,34.12 27.95,33.59 28.00,33.52 28.20,31.72 28.25,31.09 28.35,28.81 28.50,27.07 28.55,26.81 28.65,26.84 28.70,27.13 28.80,28.41 28.90,30.01 29.05,31.75 29.25,33.08 29.45,33.22 29.50,33.52 30.85,33.34 31.10,33.64 31.20,33.00 31.50,33.09 31.60,33.27 32.20,33.43 32.25,33.68 33.60,33.54 34.05,33.64 34.50,33.33 34.95,33.38 35.00,33.54 35.30,33.00 35.45,33.30 36.20,32.68 36.35,32.43 36.75,32.53 36.95,32.88 37.30,32.70 37.40,33.12 37.65,32.95 37.75,32.89 38.80,33.11 39.60,32.88 40.00,32.86 40.10,33.10 40.70,32.93 41.65,33.05 42.20,33.00 42.30,33.19 42.90,33.06 43.00,32.94 43.10,33.21 44.45,33.23 44.65,33.20 45.30,32.92 45.70,33.15 45.90,33.32 46.25,32.59 46.55,32.85 46.65,33.03 46.90,32.65 47.05,32.65 47.15,32.45 47.25,32.66 47.40,32.60 47.85,33.35 48.10,33.08 48.35,33.21 49.10,33.40 49.20,33.69 49.45,33.40 49.55,33.63 49.65,34.19 49.80,34.25 49.95,33.48 50.00,32.85 50.05,32.55 50.20,30.73 50.25,29.63 50.40,27.27 50.55,26.26 50.60,26.35 50.65,26.86 50.80,29.28 50.85,29.73 50.90,30.39 50.95,31.31 51.00,31.81 51.20,32.78 51.45,33.14 52.10,33.36 52.95,33.38 53.00,33.53 53.25,33.18 53.40,33.42 54.75,33.40 54.95,33.53 55.05,33.51 55.15,33.75 55.65,33.44 55.90,33.34 56.15,33.56 56.55,33.42 56.70,33.63 57.20,33.36 57.45,33.10 57.50,33.18 57.70,32.74 58.55,32.95 58.70,32.68 58.75,32.44 59.40,33.07 59.65,33.00 59.80,33.00 60.10,33.03 60.25,32.74 60.55,33.38 60.95,32.95 61.15,33.29 62.15,32.88 62.30,32.58 62.40,33.01 62.65,33.31 63.40,33.04 63.55,33.21 64.15,32.99 64.30,33.16 64.90,33.04 65.05,33.17 65.95,33.04 66.15,33.17 66.45,33.21 66.50,33.42 67.05,33.02 67.20,33.11 67.40,33.05 68.05,33.07 68.25,32.75 68.45,32.89 68.50,33.10 69.35,32.43 69.70,32.95 69.75,32.97 69.80,33.31 69.85,33.33 69.90,33.13 70.05,33.38 70.70,33.47 71.40,33.20 71.55,33.68 71.65,33.90 71.70,34.16 71.85,34.28 71.95,33.83 72.10,32.28 72.20,30.67 72.25,29.48 72.30,28.54 72.55,26.56 72.60,26.57 72.65,26.86 72.70,27.55 72.75,28.64 72.85,29.81 72.95,31.64 73.05,32.39 73.30,33.05 73.40,33.46 73.60,33.39 73.90,33.28 74.05,33.64 74.20,33.11 74.85,33.35 75.25,33.34 75.35,33.55 76.55,33.57 77.50,33.61 77.60,33.69 77.70,33.46 78.05,33.62 78.15,33.42 78.55,33.73 78.75,33.26 79.35,33.38 79.45,33.06"/><path d="M11.0 33.0h1.6v-10.0h4v10.0h1.6" fill="none" stroke="#23272E" stroke-width=".45"/><text x="18.0" y="17.0" font-family="Figtree,system-ui,sans-serif" font-size="3.6" font-weight="600" fill="#23272E">I</text><polyline fill="none" stroke="#23272E" stroke-width=".45" stroke-linejoin="round" points="17.00,74.75 17.45,74.76 17.65,75.02 19.10,74.82 19.20,74.76 19.25,75.18 20.65,75.10 20.80,75.03 20.85,74.98 20.95,75.39 21.85,75.15 21.95,75.49 22.60,75.08 22.70,75.32 23.55,74.37 23.65,74.76 24.05,74.28 24.10,74.10 24.15,74.14 24.25,74.53 24.50,73.82 24.90,74.27 25.20,75.25 25.85,75.13 25.90,74.95 25.95,75.04 26.00,75.50 27.40,75.24 27.65,74.62 27.90,73.14 28.10,73.38 28.30,73.79 28.40,73.53 28.50,74.06 28.55,74.58 28.60,76.12 28.65,78.42 28.70,80.23 28.75,80.85 28.80,81.22 28.95,80.79 29.15,78.05 29.30,76.57 29.45,75.63 31.05,75.23 31.50,75.08 31.60,75.27 32.20,75.24 32.25,75.49 33.65,75.28 34.05,75.29 34.55,74.93 34.95,74.93 35.00,75.09 35.45,74.45 35.95,74.15 36.25,73.97 36.30,73.75 37.00,74.82 37.30,74.84 37.40,75.23 38.80,74.81 38.90,75.13 40.00,74.72 40.10,74.91 40.70,74.91 40.75,75.12 42.10,74.99 42.20,74.87 42.25,75.26 43.00,74.96 43.05,75.30 44.45,75.28 44.90,75.24 45.45,74.47 45.65,74.38 45.90,74.74 46.35,74.07 46.55,74.05 46.90,74.63 47.00,74.72 47.05,75.01 47.10,75.06 47.15,74.90 47.25,75.22 47.35,75.29 48.35,75.37 49.15,75.54 49.20,75.66 49.45,75.32 49.75,73.92 49.85,73.28 49.95,73.29 50.00,73.12 50.35,73.73 50.50,74.86 50.55,76.19 50.60,78.49 50.65,80.31 50.70,80.96 50.80,81.42 50.90,80.59 50.95,80.14 51.15,77.33 51.25,76.46 51.40,75.66 51.50,75.47 52.95,75.26 53.05,75.32 53.25,75.05 53.40,75.50 54.75,75.22 54.80,75.52 55.05,75.47 55.15,75.70 55.75,75.23 55.90,75.13 56.15,75.23 56.95,74.85 57.30,74.59 57.45,74.46 57.50,74.54 57.70,74.11 58.55,74.56 58.70,74.36 58.75,74.11 59.40,74.96 59.65,75.00 60.10,75.03 60.30,74.53 60.55,75.22 61.25,74.91 62.25,74.86 62.30,74.78 62.40,75.23 63.40,75.04 63.55,75.22 64.90,75.04 65.00,75.27 66.45,75.13 66.55,75.27 67.15,74.93 67.45,74.54 67.55,74.67 67.65,74.32 68.05,74.35 68.25,74.04 68.50,73.90 68.95,74.72 69.65,75.32 70.05,75.14 70.70,75.37 71.50,75.21 71.65,74.23 71.75,74.02 71.85,73.69 72.05,73.28 72.35,73.27 72.50,73.80 72.55,75.21 72.60,77.49 72.65,79.26 72.70,80.16 72.75,80.76 72.80,80.93 72.95,80.33 73.05,78.67 73.20,76.95 73.30,76.19 73.60,75.35 73.95,75.18 74.05,75.34 74.20,74.89 76.50,75.26 76.55,75.34 76.65,74.84 77.55,75.14 77.65,74.76 78.05,74.94 78.15,74.74 78.30,74.82 78.40,74.67 78.55,74.83 78.75,74.43 79.10,74.36 79.20,74.05 79.35,74.27 79.45,73.97"/><path d="M11.0 75.0h1.6v-10.0h4v10.0h1.6" fill="none" stroke="#23272E" stroke-width=".45"/><text x="18.0" y="59.0" font-family="Figtree,system-ui,sans-serif" font-size="3.6" font-weight="600" fill="#23272E">II</text><polyline fill="none" stroke="#23272E" stroke-width=".45" stroke-linejoin="round" points="17.00,116.70 18.50,116.79 18.65,116.69 21.05,117.09 21.15,116.80 21.50,117.05 21.75,116.69 22.35,117.09 22.45,116.73 22.85,116.95 23.40,116.47 23.60,116.73 23.70,116.15 24.35,116.33 24.50,116.04 25.15,117.21 25.45,117.81 25.90,117.09 26.45,117.09 26.55,117.22 27.45,116.89 27.50,116.84 27.65,115.88 27.75,114.78 27.85,114.27 27.95,114.51 28.00,114.72 28.20,116.88 28.25,117.58 28.30,118.92 28.35,119.75 28.40,120.33 28.55,122.77 28.60,124.36 28.65,126.58 28.70,128.10 28.75,128.18 28.80,127.80 28.95,125.22 29.00,124.05 29.05,122.59 29.10,121.52 29.25,118.94 29.45,117.41 29.50,117.10 30.95,116.83 31.10,116.60 31.20,117.18 32.50,116.77 33.55,116.69 35.30,116.62 35.45,116.16 36.35,116.35 36.75,116.89 37.15,117.10 37.40,117.12 37.65,117.16 37.75,117.23 38.75,116.77 38.80,116.69 38.90,117.14 40.40,116.84 40.80,117.06 42.20,116.88 42.25,117.08 43.00,117.02 43.15,117.11 44.65,117.12 45.05,117.05 45.65,116.31 46.25,116.54 46.60,116.13 46.95,117.02 47.00,117.07 47.10,117.47 47.30,117.59 47.40,117.78 47.80,117.01 48.00,117.15 49.45,116.91 49.55,116.19 49.65,115.14 49.80,114.26 49.90,114.57 49.95,114.82 50.05,115.68 50.20,117.77 50.25,118.99 50.40,121.75 50.50,123.36 50.55,124.92 50.60,127.14 50.65,128.45 50.70,128.31 50.80,127.13 50.85,126.38 51.00,122.67 51.10,120.58 51.20,119.02 51.30,118.07 51.45,117.35 52.10,116.98 53.30,116.85 53.40,117.08 54.75,116.83 54.85,117.02 56.45,116.62 56.60,116.40 56.75,116.31 58.35,116.53 59.95,117.06 60.25,116.93 60.35,116.70 60.95,117.04 61.15,116.62 62.10,117.04 62.40,117.21 62.65,116.84 64.15,117.14 64.25,116.89 65.80,117.10 65.95,117.13 66.15,116.96 67.10,116.87 67.45,116.41 67.55,116.59 67.65,116.27 68.30,116.21 68.45,116.09 68.50,115.80 68.85,116.77 69.40,117.68 69.75,117.27 69.80,116.89 69.85,116.83 69.90,116.99 70.00,116.73 71.35,117.08 71.50,116.66 71.70,114.99 71.75,114.88 71.80,114.45 71.95,114.61 72.05,115.41 72.15,116.73 72.20,117.63 72.25,118.81 72.30,119.76 72.40,120.63 72.50,121.84 72.55,123.65 72.60,125.91 72.65,127.39 72.70,127.61 72.80,126.77 72.85,125.94 72.95,123.70 73.05,121.27 73.15,119.79 73.30,118.14 73.40,117.40 73.70,116.87 73.95,116.76 74.15,116.74 74.40,116.81 74.80,116.63 75.25,116.68 75.35,116.47 76.50,116.69 76.55,116.78 76.65,116.35 77.55,116.40 77.70,116.30 78.30,116.32 78.40,116.03 79.05,116.14 79.20,115.79 79.45,115.91"/><path d="M11.0 117.0h1.6v-10.0h4v10.0h1.6" fill="none" stroke="#23272E" stroke-width=".45"/><text x="18.0" y="101.0" font-family="Figtree,system-ui,sans-serif" font-size="3.6" font-weight="600" fill="#23272E">III</text><polyline fill="none" stroke="#23272E" stroke-width=".45" stroke-linejoin="round" points="74.50,33.38 74.60,33.27 74.70,33.84 77.10,33.12 78.00,33.13 78.10,33.25 78.30,33.32 78.50,33.42 78.95,33.11 80.25,33.02 80.40,33.10 81.65,33.13 82.05,33.05 83.45,32.97 83.50,32.74 83.70,32.77 83.80,32.85 83.90,33.17 84.10,32.85 84.25,33.26 84.50,33.36 84.80,33.26 85.10,33.27 85.20,33.63 85.30,33.48 85.45,33.75 85.85,33.60 85.95,33.39 86.00,33.55 86.15,33.22 86.55,33.23 86.75,32.83 88.45,32.56 88.55,32.80 88.70,32.80 88.85,33.14 89.10,33.85 89.25,34.68 89.40,36.06 89.45,36.43 89.55,36.55 89.60,35.88 89.70,33.71 89.80,32.16 89.85,31.64 89.95,31.40 90.00,31.11 90.15,31.42 90.25,31.96 90.55,32.60 90.70,32.68 91.05,32.66 91.15,32.79 91.80,32.66 92.15,32.56 92.55,32.52 92.85,32.74 93.25,32.78 93.30,32.66 93.40,33.06 93.75,32.65 94.15,32.77 94.20,32.58 94.45,32.56 94.55,32.65 95.15,32.56 95.25,32.56 95.35,32.75 95.55,32.67 95.65,32.87 96.05,32.66 96.15,32.91 96.25,33.01 96.45,33.31 96.80,33.17 96.90,33.65 97.00,33.62 97.10,33.74 97.40,33.45 97.45,33.53 97.50,33.88 98.00,33.21 98.75,32.95 99.00,33.02 99.90,33.02 100.00,33.21 101.35,33.01 101.45,32.84 101.50,33.15 104.65,32.79 104.90,32.78 105.00,33.18 106.25,32.72 106.60,33.17 106.80,33.37 107.50,33.43 107.60,33.66 107.75,33.53 107.85,33.69 108.85,32.95 109.10,33.13 109.30,32.85 110.75,32.54 111.05,33.00 111.40,34.19 111.55,35.08 111.65,35.96 111.75,36.53 111.85,36.05 111.90,35.20 111.95,33.95 112.05,32.29 112.10,31.76 112.25,31.12 112.30,31.53 112.50,31.82 112.70,32.57 113.00,32.77 113.10,32.96 113.30,32.98 113.50,32.72 114.70,32.60 114.80,32.87 115.85,32.59 116.20,32.58 116.30,32.28 116.40,32.78 116.80,32.57 116.95,32.73 117.55,32.63 117.65,33.22 118.10,33.02 118.55,32.93 118.65,33.47 118.85,33.11 118.95,33.63 119.25,33.49 119.50,33.49 119.65,33.40 120.05,33.40 120.45,32.93 120.55,33.10 120.95,32.88 121.00,33.10 121.05,33.01 121.15,33.26 122.55,33.03 122.65,33.12 122.75,32.94 122.90,33.34 123.80,33.19 124.25,33.22 124.60,32.93 124.90,32.97 125.05,33.06 126.35,32.81 126.45,33.15 126.85,32.79 127.30,32.93 128.00,32.92 128.15,33.32 128.50,32.72 128.80,32.69 128.90,33.10 129.20,33.04 129.30,32.89 129.50,33.13 129.80,33.33 130.00,33.23 130.20,33.43 130.45,33.59 130.55,33.70 130.85,33.63 131.00,33.81 131.10,33.15 131.15,33.00 131.50,33.29 131.65,33.32 132.15,32.89 132.65,32.78 133.55,32.42 133.80,32.91 133.90,32.81 134.05,33.26 134.15,33.74 134.30,34.04 134.45,34.92 134.55,36.06 134.70,36.64 134.75,36.44 134.80,35.14 134.85,34.05 134.95,32.37 135.10,31.31 135.15,31.22 135.50,32.24 135.55,32.49 135.75,32.59 135.90,32.83 136.00,32.54 136.05,32.85 136.95,32.65"/><text x="75.5" y="17.0" font-family="Figtree,system-ui,sans-serif" font-size="3.6" font-weight="600" fill="#23272E">aVR</text><polyline fill="none" stroke="#23272E" stroke-width=".45" stroke-linejoin="round" points="74.50,75.63 74.65,75.54 74.75,75.35 77.60,75.23 77.85,75.35 78.05,75.19 78.20,75.33 78.35,75.14 78.50,75.34 79.30,75.39 81.40,75.05 81.60,74.92 81.70,75.33 83.40,75.06 83.45,75.19 83.50,75.58 83.85,75.32 84.30,75.28 84.45,75.46 84.60,75.65 85.15,75.31 85.25,75.23 85.35,75.51 85.85,75.31 86.05,75.06 86.50,74.49 86.75,75.24 88.40,75.25 88.55,75.43 88.75,76.58 88.85,76.87 89.00,76.45 89.15,75.19 89.25,74.04 89.30,72.96 89.45,70.61 89.55,69.81 89.65,67.70 89.70,67.28 89.75,67.30 89.85,68.59 89.90,69.05 89.95,69.79 90.05,71.75 90.15,73.17 90.20,73.70 90.45,74.93 90.60,75.16 91.05,75.33 91.15,75.31 91.20,75.46 92.10,75.31 92.20,75.62 93.25,75.22 93.30,75.28 93.40,75.03 93.75,75.24 94.05,75.15 94.10,74.94 94.15,75.09 94.20,75.46 95.45,75.36 95.50,75.63 96.10,75.58 96.60,75.35 96.70,75.58 96.95,75.23 97.35,75.13 97.45,75.11 97.50,74.90 98.15,75.17 99.40,75.14 101.40,75.21 102.10,75.04 104.85,74.99 104.95,75.17 105.05,75.03 106.60,75.16 106.85,75.34 107.65,75.22 107.75,75.53 108.05,75.20 108.25,74.93 108.75,74.47 109.00,75.01 109.10,74.85 109.20,75.20 110.70,75.25 110.90,75.88 111.05,76.77 111.15,76.90 111.25,76.78 111.40,75.32 111.50,74.06 111.55,73.27 111.60,72.16 111.75,69.82 111.80,69.45 111.85,68.66 111.90,67.51 111.95,66.72 112.00,66.79 112.10,68.10 112.15,68.67 112.25,70.37 112.30,71.04 112.40,72.68 112.50,73.89 112.65,74.61 112.85,75.18 113.30,74.93 113.40,75.29 114.70,75.32 115.00,75.15 115.25,75.32 115.80,75.32 115.90,75.50 116.25,75.48 116.35,75.44 116.55,75.29 116.85,75.42 117.55,75.47 117.65,75.17 117.80,75.20 117.90,75.48 118.20,75.35 118.25,75.57 118.55,75.55 118.65,75.23 118.90,75.34 119.00,75.17 119.10,75.34 119.45,75.05 119.55,75.34 120.00,74.90 120.45,75.24 120.75,75.21 120.95,75.23 121.15,75.00 122.55,75.14 122.80,75.11 123.10,75.02 123.80,74.97 123.90,75.16 124.25,74.80 124.35,75.11 125.05,75.05 126.40,75.07 126.60,75.07 127.00,75.22 128.05,74.94 128.20,74.83 128.45,75.17 128.80,75.22 128.95,75.04 129.20,75.08 129.25,75.28 129.55,75.42 129.80,75.28 129.90,75.50 130.35,75.20 130.45,75.41 130.60,75.34 130.85,75.29 131.00,74.93 131.15,75.12 131.45,74.72 131.55,74.27 131.95,75.04 132.60,75.18 133.45,75.23 133.55,75.35 133.65,75.23 133.85,76.10 133.95,76.89 134.05,77.08 134.25,75.77 134.35,74.82 134.40,74.16 134.45,73.26 134.50,72.01 134.65,69.69 134.75,68.42 134.85,66.68 134.90,66.71 134.95,67.36 135.00,67.65 135.25,71.88 135.35,73.26 135.45,74.08 135.60,74.91 135.70,75.11 135.95,75.21 136.05,75.28 136.30,75.28 136.40,75.50 136.95,75.40"/><text x="75.5" y="59.0" font-family="Figtree,system-ui,sans-serif" font-size="3.6" font-weight="600" fill="#23272E">aVL</text><polyline fill="none" stroke="#23272E" stroke-width=".45" stroke-linejoin="round" points="74.50,116.00 74.60,116.09 74.70,115.82 77.55,116.75 77.75,116.61 78.05,116.56 78.30,116.47 78.40,116.33 78.45,116.17 79.20,116.53 81.65,116.77 81.85,116.69 83.35,116.85 83.45,116.85 83.55,116.69 83.85,116.63 84.10,116.82 84.25,116.44 84.35,116.31 84.60,116.13 85.15,116.26 85.35,115.93 85.45,115.72 85.80,115.92 85.90,116.39 85.95,116.46 86.00,116.25 86.10,116.81 86.50,117.22 86.80,116.95 88.40,117.24 88.60,116.59 88.75,115.50 88.90,114.87 89.05,115.26 89.25,116.27 89.35,117.24 89.55,118.63 89.60,120.38 89.65,122.57 89.70,124.00 89.75,124.77 89.85,124.75 89.90,124.43 90.00,123.02 90.15,120.40 90.25,119.10 90.45,117.63 90.60,117.15 91.05,117.03 91.35,116.88 92.15,116.98 93.25,117.00 93.55,116.99 94.15,117.16 94.20,116.97 95.25,117.06 95.35,116.83 95.40,116.99 95.45,116.92 95.50,116.64 96.10,116.60 96.55,116.38 96.80,116.35 96.90,116.12 97.45,116.36 97.55,116.26 98.20,116.73 98.90,116.90 99.90,116.85 100.00,116.59 101.45,116.89 101.55,116.78 103.90,117.03 104.80,117.25 104.85,117.30 104.95,116.86 106.30,117.05 106.70,116.46 106.75,116.26 107.50,116.29 107.80,115.90 108.25,116.72 108.60,117.31 108.80,117.44 109.00,116.89 109.15,116.98 110.75,117.08 110.90,116.35 111.10,114.89 111.25,114.63 111.50,116.20 111.80,119.21 111.85,120.27 111.95,124.31 112.00,125.07 112.10,125.12 112.15,124.73 112.25,123.50 112.35,121.43 112.50,119.28 112.65,117.97 112.90,117.09 113.35,117.01 114.15,117.02 114.70,117.08 114.90,116.99 116.20,117.02 116.30,117.17 116.45,116.93 116.80,117.12 116.90,116.73 117.55,116.89 117.65,116.60 117.85,116.57 118.55,116.53 118.65,116.31 118.85,116.49 118.95,116.16 119.50,116.37 119.75,116.44 120.45,116.82 121.05,116.87 121.35,116.77 122.80,116.81 123.10,116.71 123.80,116.83 123.90,116.61 124.25,116.99 124.35,116.85 124.90,116.91 126.40,116.96 126.60,116.96 126.80,117.08 126.95,116.86 128.00,117.08 128.20,116.95 128.80,117.09 128.95,116.91 129.20,116.88 129.35,116.68 129.45,116.42 130.30,116.24 130.40,116.19 130.50,115.98 130.95,116.20 131.05,116.49 131.15,116.87 131.50,117.21 131.60,117.29 132.05,116.94 133.60,117.22 133.65,117.20 133.70,116.96 133.75,116.48 133.85,116.07 134.00,114.86 134.10,114.69 134.30,115.56 134.40,116.29 134.50,117.49 134.60,118.24 134.70,119.28 134.75,120.13 134.85,124.24 134.90,125.12 135.00,125.32 135.15,123.58 135.30,120.76 135.40,119.33 135.55,117.86 135.65,117.42 135.95,117.04 136.00,117.12 136.10,116.80 136.95,116.94"/><text x="75.5" y="101.0" font-family="Figtree,system-ui,sans-serif" font-size="3.6" font-weight="600" fill="#23272E">aVF</text><polyline fill="none" stroke="#23272E" stroke-width=".45" stroke-linejoin="round" points="137.00,32.30 139.85,32.12 141.70,32.11 141.80,32.33 142.00,32.32 142.10,32.46 142.35,32.67 143.15,32.94 144.75,32.91 145.65,32.94 147.95,32.90 150.00,32.83 150.15,32.92 151.70,32.86 153.10,32.74 153.35,32.84 153.80,33.09 153.90,33.19 153.95,33.35 154.85,33.19 155.30,32.69 156.95,32.56 157.25,31.59 157.35,31.19 157.40,31.36 157.55,32.81 157.60,33.91 157.70,36.92 157.80,40.43 157.85,41.89 157.90,43.07 157.95,43.57 158.20,42.18 158.25,41.59 158.50,37.43 158.60,35.43 158.65,34.71 158.75,33.78 158.95,32.77 159.00,32.46 161.90,32.18 162.05,32.33 163.55,32.16 163.90,32.07 165.25,32.42 165.50,32.72 166.00,32.83 166.20,32.82 166.40,33.09 167.80,32.67 167.90,32.88 169.70,32.80 172.70,32.75 172.95,33.03 173.15,33.09 173.60,33.23 175.90,32.88 176.15,32.88 176.25,33.15 176.40,32.96 176.50,33.25 176.80,33.23 177.00,33.45 177.90,33.28 178.35,32.72 179.75,32.59 180.00,32.44 180.30,31.36 180.35,31.13 180.40,31.36 180.55,33.40 180.60,34.74 180.80,41.44 180.85,42.67 180.90,43.48 180.95,43.63 181.05,42.68 181.20,41.93 181.40,38.78 181.55,35.93 181.65,34.56 181.75,33.61 181.90,32.92 182.50,32.30 182.90,32.24 184.15,32.22 184.30,32.25 184.40,32.04 184.70,32.14 184.80,32.01 185.85,32.23 185.95,31.88 186.80,31.97 186.95,31.88 188.15,32.18 189.20,32.78 190.45,32.83 190.55,32.69 195.50,33.00 195.65,32.82 198.05,32.86 198.30,32.84 198.55,32.66 199.45,32.97"/><text x="138.0" y="17.0" font-family="Figtree,system-ui,sans-serif" font-size="3.6" font-weight="600" fill="#23272E">V1</text><polyline fill="none" stroke="#23272E" stroke-width=".45" stroke-linejoin="round" points="137.00,74.35 137.70,74.31 138.15,74.13 138.70,74.26 138.80,73.96 139.70,74.09 139.75,73.88 140.25,73.90 140.45,73.70 140.75,73.71 140.85,73.49 141.25,73.41 141.45,73.27 142.30,73.62 143.10,74.75 143.70,74.97 143.85,75.02 144.40,75.07 145.95,74.98 146.40,75.05 148.25,75.03 148.45,75.22 150.00,75.07 150.35,75.03 150.45,75.26 152.55,74.81 153.85,74.95 154.05,75.29 155.65,74.86 156.95,74.79 157.10,75.24 157.15,75.13 157.25,74.42 157.35,72.89 157.40,72.40 157.45,72.58 157.55,73.51 157.60,74.74 157.75,79.51 157.85,82.93 157.90,84.37 157.95,85.08 158.05,84.68 158.10,84.73 158.20,85.80 158.25,85.97 158.35,85.28 158.40,84.56 158.55,80.72 158.60,79.26 158.65,78.06 158.75,76.71 158.90,75.24 158.95,74.89 159.40,74.34 161.35,74.21 161.85,74.08 162.55,74.09 162.65,74.09 162.75,73.97 163.35,73.92 163.45,73.91 163.55,73.78 164.60,73.27 164.90,73.20 165.45,73.46 165.55,73.48 166.30,74.59 166.80,74.93 167.80,74.89 167.95,74.99 169.95,75.00 170.60,75.11 171.75,75.19 173.40,75.09 175.00,75.01 175.30,74.96 176.20,74.79 176.35,75.01 176.70,74.89 176.85,75.02 177.00,75.16 177.40,75.07 177.55,75.24 177.95,75.07 179.90,74.96 180.10,75.25 180.15,75.04 180.25,74.08 180.35,72.42 180.40,72.36 180.50,73.33 180.55,74.11 180.70,79.11 180.80,82.42 180.85,83.88 180.90,84.82 180.95,85.06 181.05,84.72 181.10,85.13 181.15,85.84 181.20,86.14 181.30,85.76 181.35,85.00 181.50,81.34 181.60,78.71 181.65,77.69 181.70,76.93 181.85,75.58 181.95,74.99 182.40,74.48 183.55,74.44 184.25,74.25 184.50,74.27 184.65,74.19 185.55,74.21 185.70,74.11 186.00,74.12 186.05,73.98 186.15,74.05 186.20,73.85 186.65,73.80 186.90,73.47 187.25,73.53 187.45,73.34 187.85,73.15 188.35,73.39 189.30,74.54 189.65,74.87 189.90,74.85 190.30,74.94 190.55,74.91 190.70,75.02 193.25,74.94 193.45,75.14 194.75,75.12 196.20,75.12 197.85,75.11 199.10,74.91 199.20,75.14 199.45,74.93"/><text x="138.0" y="59.0" font-family="Figtree,system-ui,sans-serif" font-size="3.6" font-weight="600" fill="#23272E">V2</text><polyline fill="none" stroke="#23272E" stroke-width=".45" stroke-linejoin="round" points="137.00,116.70 138.50,116.65 139.60,116.69 140.50,116.44 140.70,116.31 141.00,116.20 141.10,116.01 141.30,115.88 141.50,115.71 141.55,115.82 141.65,115.53 142.10,115.49 142.60,115.96 142.75,116.14 142.90,116.17 143.60,116.71 143.90,116.86 144.30,116.99 146.75,116.91 148.10,116.98 148.25,116.95 148.40,117.19 150.35,117.07 150.45,117.28 152.40,116.90 153.85,116.72 153.95,117.04 154.70,117.17 154.90,117.25 156.15,116.94 156.95,116.96 157.10,117.28 157.15,117.20 157.25,116.52 157.35,114.65 157.40,113.91 157.50,113.23 157.55,113.09 157.65,114.03 157.70,114.56 157.75,115.35 157.80,116.49 157.90,119.66 157.95,120.96 158.05,122.45 158.15,125.44 158.20,126.77 158.25,127.70 158.30,128.04 158.35,127.90 158.40,127.12 158.60,121.68 158.65,120.50 158.70,119.69 158.85,118.04 158.95,117.29 159.30,116.75 160.20,116.73 160.90,116.65 161.00,116.72 162.30,116.56 162.50,116.72 162.95,116.67 163.05,116.80 164.50,116.12 164.75,115.82 165.00,115.67 165.10,115.49 166.25,116.31 166.80,116.89 167.40,116.93 167.80,116.85 167.90,117.07 169.55,116.81 169.70,116.91 170.35,117.03 170.90,117.05 173.25,117.08 173.45,117.26 175.25,117.04 176.10,116.76 176.45,117.07 177.40,117.04 177.50,117.24 178.15,117.23 179.80,116.91 180.05,117.21 180.20,116.74 180.25,115.96 180.35,113.96 180.40,113.42 180.50,113.17 180.60,113.84 180.65,114.41 180.75,116.19 180.80,117.44 180.85,119.10 180.90,120.44 181.00,122.30 181.05,123.47 181.15,126.61 181.20,127.64 181.25,128.11 181.35,127.22 181.40,126.37 181.60,121.06 181.65,120.05 181.75,118.74 181.85,117.79 181.95,117.27 182.35,116.81 182.70,116.89 184.20,116.69 185.70,116.61 186.50,116.46 186.60,116.56 187.15,116.23 187.30,116.12 187.50,116.04 187.60,115.78 187.80,115.72 187.90,115.51 188.85,116.00 189.75,116.91 190.10,116.99 190.25,117.10 191.90,116.95 193.40,117.06 194.15,117.11 194.40,117.14 195.35,117.33 197.30,117.29 198.20,117.23 198.30,117.28 198.80,116.91 199.10,116.95 199.20,117.16 199.45,117.12"/><text x="138.0" y="101.0" font-family="Figtree,system-ui,sans-serif" font-size="3.6" font-weight="600" fill="#23272E">V3</text><polyline fill="none" stroke="#23272E" stroke-width=".45" stroke-linejoin="round" points="199.50,32.62 201.20,32.73 202.60,32.67 202.95,32.91 203.05,32.64 203.10,32.28 203.15,31.63 203.25,29.59 203.35,28.58 203.40,28.23 203.45,28.26 203.60,29.80 203.65,30.84 203.70,32.45 203.75,34.37 203.80,35.92 203.85,37.22 203.95,39.56 204.00,41.26 204.10,43.75 204.15,44.03 204.25,43.33 204.40,39.64 204.50,36.87 204.55,35.71 204.65,34.52 204.80,33.26 205.20,32.60 205.35,32.56 205.75,32.45 207.00,32.69 207.15,32.60 208.60,32.77 210.05,32.50 211.05,31.81 211.55,31.99 212.20,32.94 212.60,33.17 212.75,33.28 214.80,33.18 216.35,33.11 217.00,33.34 218.40,33.33 219.90,33.26 220.35,33.26 221.75,32.92 222.35,32.87 222.55,33.12 222.90,33.07 223.00,33.29 224.40,33.11 225.65,33.10 225.70,32.94 225.80,31.69 225.90,29.72 225.95,29.05 226.05,28.12 226.10,28.33 226.20,29.24 226.25,29.95 226.30,30.89 226.35,32.33 226.40,34.18 226.45,35.79 226.55,37.81 226.70,42.48 226.75,43.65 226.80,44.19 226.85,44.28 226.90,43.54 227.05,39.69 227.15,37.13 227.25,35.22 227.40,33.75 227.50,33.14 228.00,32.67 229.35,32.57 229.95,32.66 231.05,32.70 232.05,32.60 232.20,32.67 233.40,31.96 233.60,31.69 234.25,31.97 234.85,32.80 235.55,33.21 236.15,33.27 236.25,33.34 237.10,32.99 239.15,32.97 240.10,32.94 240.25,33.08 241.65,32.98 243.35,32.98 244.35,32.52 244.60,32.78 245.05,32.54 245.25,32.89 245.90,32.98 247.70,32.80 248.30,32.82 248.35,32.94 248.40,32.75 248.50,31.89 248.60,29.91 248.75,28.35 248.80,28.15 248.95,29.66 249.00,30.33 249.05,31.65 249.15,35.08 249.20,36.37 249.30,38.56 249.40,41.75 249.45,43.03 249.50,43.82 249.60,43.41 249.65,42.76 249.80,38.68 249.90,36.16 249.95,35.31 250.15,33.32 250.20,33.01 250.70,32.58 252.10,32.46 252.20,32.61 252.25,32.48 252.35,32.72 254.55,32.54 255.45,32.28 255.95,32.05 256.05,31.79 256.45,31.66 256.55,31.57 257.10,32.19 257.75,32.81 257.90,33.05 258.30,33.17 261.95,33.00"/><text x="200.5" y="17.0" font-family="Figtree,system-ui,sans-serif" font-size="3.6" font-weight="600" fill="#23272E">V4</text><polyline fill="none" stroke="#23272E" stroke-width=".45" stroke-linejoin="round" points="199.50,74.77 200.00,74.72 200.10,74.87 200.40,74.92 200.50,74.88 200.65,75.31 202.45,75.24 203.00,75.07 203.15,73.95 203.40,70.29 203.50,68.37 203.60,66.89 203.65,66.90 203.75,68.06 203.80,69.37 203.85,71.19 203.90,73.55 203.95,76.28 204.00,78.59 204.05,80.07 204.10,81.31 204.15,82.14 204.20,82.12 204.35,80.19 204.50,77.83 204.75,75.70 205.10,75.12 205.25,75.21 206.15,75.11 206.25,75.37 207.40,75.19 207.55,75.49 208.55,75.56 208.70,75.66 210.30,75.25 210.65,74.81 210.95,74.48 211.15,74.24 211.30,74.00 212.00,74.31 212.45,74.77 213.75,75.14 214.30,74.86 214.50,74.96 215.65,74.78 217.00,75.02 218.05,75.11 218.15,75.12 218.25,75.19 219.60,75.01 220.70,75.13 220.80,75.18 221.35,74.67 222.60,74.69 224.95,75.12 225.10,75.00 225.55,75.30 225.70,74.89 225.75,74.55 226.00,70.92 226.15,68.13 226.25,66.35 226.30,65.82 226.35,66.06 226.40,67.13 226.50,70.22 226.55,72.74 226.60,75.50 226.65,77.90 226.70,79.69 226.75,80.94 226.80,81.81 226.85,81.68 226.95,80.83 227.15,77.91 227.35,76.05 227.50,75.21 227.80,75.05 228.10,75.16 228.65,75.13 229.65,75.25 230.60,75.44 230.85,75.52 232.05,75.43 232.20,75.53 232.90,75.19 233.25,74.82 233.80,74.19 234.20,73.80 234.85,74.49 235.70,75.00 236.10,75.26 236.30,75.26 237.20,74.86 237.65,74.76 240.00,74.97 241.75,75.07 242.80,74.97 243.60,75.06 244.05,74.82 244.90,74.74 246.85,75.12 247.90,75.19 248.20,75.25 248.40,74.97 248.45,74.76 248.70,71.53 248.85,68.67 249.00,66.22 249.10,67.26 249.15,68.08 249.20,69.62 249.25,71.67 249.35,77.05 249.40,79.02 249.45,80.39 249.50,81.29 249.55,81.75 249.65,80.85 249.70,80.33 249.80,78.77 249.95,77.05 250.15,75.52 250.20,75.27 251.00,75.10 252.20,75.30 252.25,75.09 253.40,75.46 253.60,75.52 254.80,75.63 255.35,75.37 255.80,75.04 255.95,74.96 256.05,74.71 256.25,74.46 256.55,74.10 256.75,74.17 256.85,74.03 258.60,75.11 259.00,75.01 261.95,75.00"/><text x="200.5" y="59.0" font-family="Figtree,system-ui,sans-serif" font-size="3.6" font-weight="600" fill="#23272E">V5</text><polyline fill="none" stroke="#23272E" stroke-width=".45" stroke-linejoin="round" points="199.50,116.88 200.50,116.89 200.70,117.19 201.65,117.27 202.95,117.13 203.00,117.09 203.15,116.31 203.35,114.30 203.60,110.65 203.65,110.08 203.70,110.02 203.80,110.96 203.85,112.10 203.90,114.11 203.95,116.35 204.00,118.19 204.10,120.53 204.15,121.36 204.20,121.55 204.30,121.13 204.55,118.97 204.80,117.73 206.30,117.36 207.10,117.34 207.45,117.36 207.60,117.58 209.25,117.43 210.25,117.27 211.00,116.51 211.30,116.08 212.05,116.39 212.55,116.80 213.55,117.06 213.75,117.14 214.55,116.85 215.15,116.81 215.65,116.73 216.95,117.02 218.00,117.14 218.15,117.23 218.85,117.11 219.05,117.21 220.50,117.15 221.10,117.12 221.45,116.69 222.10,116.80 222.30,116.65 224.75,117.16 225.35,117.27 225.65,117.09 225.75,116.74 226.00,114.21 226.20,111.12 226.30,109.37 226.35,109.47 226.45,110.19 226.50,111.33 226.55,113.38 226.60,115.66 226.65,117.60 226.70,119.03 226.80,120.94 226.85,121.40 226.90,121.25 227.15,119.31 227.40,117.89 227.80,117.22 227.95,117.48 229.35,117.22 230.75,117.51 232.10,117.46 233.05,117.03 233.20,116.95 233.55,116.46 234.00,116.11 234.20,115.88 235.30,116.72 235.60,116.76 237.40,116.71 240.25,117.00 241.75,117.05 241.85,116.86 243.55,117.10 243.65,116.94 243.75,117.04 243.85,116.86 244.20,116.87 244.40,116.75 244.75,116.79 244.85,116.65 245.15,116.61 247.45,117.22 247.75,117.27 247.90,117.18 248.40,117.14 248.70,114.62 249.00,109.90 249.05,109.40 249.15,110.27 249.20,110.91 249.25,112.42 249.30,114.81 249.35,116.92 249.40,118.44 249.45,119.58 249.50,120.46 249.55,121.04 249.65,120.85 249.70,120.67 249.90,119.03 250.20,117.63 251.10,117.45 252.10,117.29 252.20,117.42 252.25,117.25 252.35,117.67 255.20,117.49 256.00,116.96 256.55,116.23 256.80,116.15 256.95,116.09 258.30,116.87 261.00,117.00 261.95,117.00"/><text x="200.5" y="101.0" font-family="Figtree,system-ui,sans-serif" font-size="3.6" font-weight="600" fill="#23272E">V6</text><polyline fill="none" stroke="#23272E" stroke-width=".45" stroke-linejoin="round" points="17.00,161.75 17.45,161.76 17.65,162.02 19.10,161.82 19.20,161.76 19.25,162.18 20.65,162.10 20.80,162.03 20.85,161.98 20.95,162.39 21.85,162.15 21.95,162.49 22.60,162.08 22.70,162.32 23.55,161.37 23.65,161.76 24.05,161.28 24.10,161.10 24.15,161.14 24.25,161.53 24.50,160.82 24.90,161.27 25.20,162.25 25.85,162.13 25.90,161.95 25.95,162.04 26.00,162.50 27.40,162.24 27.65,161.62 27.90,160.14 28.10,160.38 28.30,160.79 28.40,160.53 28.50,161.06 28.55,161.58 28.60,163.12 28.65,165.42 28.70,167.23 28.75,167.85 28.80,168.22 28.95,167.79 29.15,165.05 29.30,163.57 29.45,162.63 31.05,162.23 31.50,162.08 31.60,162.27 32.20,162.24 32.25,162.49 33.65,162.28 34.05,162.29 34.55,161.93 34.95,161.93 35.00,162.09 35.45,161.45 35.95,161.15 36.25,160.97 36.30,160.75 37.00,161.82 37.30,161.84 37.40,162.23 38.80,161.81 38.90,162.13 40.00,161.72 40.10,161.91 40.70,161.91 40.75,162.12 42.10,161.99 42.20,161.87 42.25,162.26 43.00,161.96 43.05,162.30 44.45,162.28 44.90,162.24 45.45,161.47 45.65,161.38 45.90,161.74 46.35,161.07 46.55,161.05 46.90,161.63 47.00,161.72 47.05,162.01 47.10,162.06 47.15,161.90 47.25,162.22 47.35,162.29 48.35,162.37 49.15,162.54 49.20,162.66 49.45,162.32 49.75,160.92 49.85,160.28 49.95,160.29 50.00,160.12 50.35,160.73 50.50,161.86 50.55,163.19 50.60,165.49 50.65,167.31 50.70,167.96 50.80,168.42 50.90,167.59 50.95,167.14 51.15,164.33 51.25,163.46 51.40,162.66 51.50,162.47 52.95,162.26 53.05,162.32 53.25,162.05 53.40,162.50 54.75,162.22 54.80,162.52 55.05,162.47 55.15,162.70 55.75,162.23 55.90,162.13 56.15,162.23 56.95,161.85 57.30,161.59 57.45,161.46 57.50,161.54 57.70,161.11 58.55,161.56 58.70,161.36 58.75,161.11 59.40,161.96 59.65,162.00 60.10,162.03 60.30,161.53 60.55,162.22 61.25,161.91 62.25,161.86 62.30,161.78 62.40,162.23 63.40,162.04 63.55,162.22 64.90,162.04 65.00,162.27 66.45,162.13 66.55,162.27 67.15,161.93 67.45,161.54 67.55,161.67 67.65,161.32 68.05,161.35 68.25,161.04 68.50,160.90 68.95,161.72 69.65,162.32 70.05,162.14 70.70,162.37 71.50,162.21 71.65,161.23 71.75,161.02 71.85,160.69 72.05,160.28 72.35,160.27 72.50,160.80 72.55,162.21 72.60,164.49 72.65,166.26 72.70,167.16 72.75,167.76 72.80,167.93 72.95,167.33 73.05,165.67 73.20,163.95 73.30,163.19 73.60,162.35 73.95,162.18 74.05,162.34 74.20,161.89 76.50,162.26 76.55,162.34 76.65,161.84 77.55,162.14 77.65,161.76 78.05,161.94 78.15,161.74 78.30,161.82 78.40,161.67 78.55,161.83 78.75,161.43 79.10,161.36 79.20,161.05 79.35,161.27 79.45,160.97 79.60,161.22 79.70,160.65 82.10,161.69 82.65,161.70 83.00,161.66 83.15,161.48 83.35,161.41 83.45,161.11 83.95,161.58 85.25,161.79 85.40,161.71 88.30,161.86 88.70,161.98 88.80,161.92 88.90,161.61 89.10,161.97 89.25,161.46 89.50,161.21 90.10,161.38 90.20,161.02 90.30,161.07 90.45,160.65 90.80,160.82 90.90,161.31 90.95,161.39 91.00,161.13 91.10,161.70 92.10,162.20 93.45,162.41 93.55,161.98 93.65,161.69 93.75,161.06 93.90,160.35 94.45,160.35 94.55,160.72 94.60,162.33 94.65,164.58 94.70,166.19 94.75,167.23 94.80,167.79 94.85,168.07 94.90,167.96 95.00,167.28 95.25,164.10 95.45,162.79 95.65,162.27 96.05,162.25 96.20,162.13 97.55,162.30 97.85,162.14 98.25,162.14 98.30,162.26 98.40,161.89 98.80,162.26 99.45,162.30 99.55,162.21 100.15,162.33 100.25,162.33 100.30,162.09 100.45,162.14 100.50,161.94 100.75,161.85 101.05,162.01 101.15,161.76 101.25,161.66 101.45,161.36 101.80,161.45 101.90,160.98 102.00,161.03 102.10,160.92 102.40,161.29 102.45,161.21 102.50,160.89 103.00,161.63 103.75,161.98 104.15,161.89 104.85,161.99 105.00,161.59 106.35,161.90 106.45,162.03 106.50,161.73 109.00,162.06 109.85,162.38 110.00,161.76 111.25,162.25 111.65,161.56 111.75,161.25 112.50,161.24 112.65,161.05 112.80,160.80 113.55,162.10 113.80,162.36 114.00,161.85 114.70,162.23 115.75,162.36 116.00,161.21 116.10,160.48 116.25,160.02 116.70,160.62 116.75,160.74 116.80,161.26 116.85,162.14 116.90,164.06 116.95,166.24 117.00,167.29 117.05,167.93 117.10,168.24 117.25,167.59 117.30,166.59 117.35,165.88 117.55,163.78 117.70,162.76 117.95,162.18 118.00,162.23 118.10,162.04 119.70,162.32 119.80,162.05 121.20,162.29 121.30,162.59 121.40,162.09 121.80,162.37 121.90,161.98 122.55,162.17 122.65,161.59 123.55,161.73 123.65,161.23 123.85,161.58 123.95,161.02 125.10,161.51 125.45,161.93 125.55,161.79 125.95,162.02 126.00,161.81 126.05,161.91 126.15,161.65 127.55,161.87 127.65,161.78 127.75,161.96 127.90,161.56 128.80,161.76 128.95,161.66 129.85,162.06 129.95,161.83 131.35,162.15 131.45,161.81 131.80,162.23 131.95,161.97 133.00,162.11 133.15,161.73 133.50,162.25 133.80,162.28 133.90,161.86 134.30,161.96 134.40,161.58 134.90,161.38 135.30,161.19 135.45,160.94 135.60,160.91 136.00,160.97 136.10,161.72 136.20,161.91 137.35,162.14 137.65,162.22 138.60,162.47 138.70,162.18 138.75,161.73 138.90,161.22 139.00,160.48 139.10,160.08 139.50,160.67 139.55,160.48 139.70,161.09 139.75,161.80 139.80,164.07 139.85,166.13 139.90,167.31 139.95,167.93 140.00,168.20 140.10,167.96 140.15,167.57 140.30,165.38 140.55,162.91 140.90,162.15 141.00,162.38 141.05,162.02 142.05,162.23 142.45,162.25 142.50,162.00 145.00,162.23 145.10,162.04 145.50,162.39 145.60,161.83 146.10,162.08 146.25,161.51 146.60,161.71 146.70,161.18 147.05,161.34 147.20,161.07 147.40,161.05 147.50,161.07 148.45,161.89 148.60,162.01 148.75,161.87 149.55,162.07 149.70,161.66 150.55,161.87 150.70,161.82 150.75,161.56 153.25,161.97 153.40,161.88 154.80,162.16 154.90,161.94 155.50,162.13 155.60,161.94 156.00,162.08 156.15,162.36 156.20,162.29 156.25,161.87 157.40,162.06 157.50,161.76 157.70,161.78 157.85,161.54 158.25,161.35 158.45,161.16 158.80,161.13 158.90,160.69 159.25,161.47 159.35,161.39 159.75,162.10 160.05,162.21 160.15,161.92 160.75,162.26 161.00,162.10 161.95,162.05 162.05,161.53 162.10,161.06 162.15,160.82 162.25,160.67 162.30,160.45 162.50,160.46 162.55,160.24 162.80,160.46 162.95,161.66 163.00,162.48 163.05,164.86 163.10,166.71 163.15,167.68 163.20,168.21 163.25,168.23 163.35,167.93 163.40,167.41 163.45,166.57 163.55,165.31 163.60,164.44 163.65,163.90 163.80,163.02 163.90,162.33 164.30,162.10 164.90,162.37 165.00,162.26 165.05,162.01 166.20,162.25 166.35,161.99 168.10,162.32 168.20,162.08 168.80,162.21 168.90,161.94 169.30,162.24 169.40,161.65 169.85,161.58 170.00,161.12 170.35,161.14 170.45,161.34 170.50,161.07 170.70,160.93 171.60,161.71 172.85,161.98 172.95,161.58 173.55,161.83 173.65,161.37 174.45,161.85 174.50,161.72 174.60,162.02 174.70,161.59 176.90,162.07 177.25,162.00 178.45,162.14 178.60,162.08 179.40,162.12 179.50,161.75 179.85,162.20 180.00,162.09 180.30,162.25 180.45,161.61 180.75,161.53 181.00,161.32 181.30,161.58 181.40,161.18 181.55,161.32 181.70,160.84 181.75,161.05 181.80,160.76 182.10,161.28 182.65,162.06 182.80,162.07 182.90,161.79 184.05,162.27 184.25,162.64 184.30,162.93 184.35,162.70 184.40,162.20 184.45,161.97 184.60,162.03 184.80,161.90 184.90,162.10 185.10,161.15 185.25,160.17 185.30,159.98 185.70,160.50 185.75,160.34 185.90,161.08 185.95,161.96 186.00,163.90 186.05,166.10 186.10,167.37 186.15,167.89 186.20,168.00 186.30,167.63 186.45,166.37 186.55,164.97 186.80,162.47 186.90,162.35 188.20,162.20 188.30,162.18 188.35,162.01 188.45,162.40 189.60,162.25 189.70,162.10 189.80,162.46 191.50,162.14 191.80,162.03 191.90,161.63 192.25,161.95 192.35,161.79 192.55,162.04 192.65,161.42 192.85,161.56 192.95,161.08 195.20,161.80 196.05,161.86 196.15,162.18 196.50,161.73 196.90,162.02 197.15,161.58 199.65,162.12 199.75,161.92 200.05,162.17 200.40,162.11 200.50,161.90 200.85,162.30 200.90,162.09 200.95,162.11 201.00,162.44 201.85,162.00 201.95,162.29 203.30,162.18 203.45,161.62 203.50,161.66 203.60,161.30 203.80,161.33 203.90,161.05 204.55,161.07 204.75,160.94 204.80,161.09 204.90,160.80 205.25,161.42 205.35,161.98 205.50,162.26 205.95,161.71 206.05,161.80 206.15,162.28 206.75,162.32 206.85,162.55 207.75,161.94 207.90,161.69 208.00,161.19 208.10,160.56 208.25,160.08 208.65,160.37 208.75,160.81 208.80,161.21 208.85,161.96 208.90,163.77 208.95,165.91 209.00,167.01 209.05,167.71 209.20,167.86 209.30,166.82 209.40,165.11 209.50,163.96 209.70,162.76 209.75,162.42 211.10,162.05 211.25,162.17 212.05,162.17 212.20,162.27 212.65,162.26 212.75,162.33 214.10,162.10 214.20,162.04 214.25,162.25 215.25,161.96 215.35,161.40 215.85,161.39 216.00,161.22 216.05,161.25 216.15,160.80 216.90,161.21 217.20,161.67 217.35,161.52 217.85,161.96 218.25,162.05 219.00,161.89 219.55,161.85 219.70,161.49 221.10,161.83 221.30,161.67 221.40,161.90 221.45,161.82 221.50,162.05 222.70,162.01 223.65,162.01 223.75,162.19 223.80,162.14 223.90,162.69 224.25,162.03 224.50,161.83 224.60,162.07 225.00,161.97 225.20,162.25 225.80,162.04 225.90,162.11 226.30,161.32 226.35,161.58 226.40,161.44 226.45,161.00 227.05,161.29 227.35,160.83 227.70,160.84 228.00,161.84 228.05,161.70 228.15,162.08 228.50,162.17 228.95,162.08 229.05,162.16 229.15,162.22 229.25,162.28 229.40,162.10 229.45,162.23 229.50,162.67 229.55,162.54 229.65,162.80 230.00,162.11 230.10,162.24 230.25,162.15 230.30,162.45 230.35,162.36 230.50,161.69 230.60,161.30 230.65,160.88 230.70,160.68 230.80,160.60 230.90,160.16 231.10,160.07 231.35,160.37 231.40,160.31 231.45,160.55 231.50,161.79 231.60,165.68 231.65,166.83 231.75,167.44 231.80,167.28 231.85,167.53 231.90,167.35 232.00,165.80 232.15,164.08 232.35,162.61 232.40,162.40 235.55,162.13 235.65,162.03 235.75,162.39 236.65,162.26 236.75,162.60 237.20,161.95 237.25,161.86 237.30,162.19 237.50,161.96 237.70,161.73 238.45,161.45 238.80,161.00 239.00,161.12 239.10,160.81 239.50,161.36 239.75,161.31 239.85,161.53 240.00,161.65 240.20,161.73 240.25,161.65 240.35,161.84 240.50,161.80 240.60,162.03 241.55,161.66 241.65,161.93 242.85,161.62 243.00,162.09 244.15,161.92 244.25,161.66 244.40,162.16 245.75,161.82 245.85,162.12 246.85,161.85 246.95,162.36 247.35,161.92 247.50,162.23 248.10,162.17 248.20,162.07 248.25,162.36 249.20,161.49 249.90,161.20 250.10,160.65 250.55,161.50 250.60,161.35 250.65,161.55 250.70,161.99 250.90,161.85 250.95,162.07 251.35,162.26 252.00,162.18 252.15,162.19 252.25,162.47 252.95,162.28"/><path d="M11.0 162.0h1.6v-10.0h4v10.0h1.6" fill="none" stroke="#23272E" stroke-width=".45"/><text x="18" y="144" font-family="Figtree,system-ui,sans-serif" font-size="3.6" font-weight="600" fill="#23272E">II</text><text x="10.0" y="191" font-family="Figtree,system-ui,sans-serif" font-size="3.2" fill="#5E646B">25 mm/s · 10 mm/mV · PTB-XL (PhysioNet), CC BY 4.0 — registro 00536</text></svg>