<svg xmlns="http://www.w3.org/2000/svg" viewBox="0 0 264 218" role="img" aria-label="Padrão S1Q3 em taquicardia sinusal"><defs><pattern id="p1" width="1" height="1" patternUnits="userSpaceOnUse"><path d="M1 0V1M0 1H1" fill="none" stroke="#F3C9C3" stroke-width=".12"/></pattern><pattern id="p5" width="5" height="5" patternUnits="userSpaceOnUse"><rect width="5" height="5" fill="url(#p1)"/><path d="M5 0V5M0 5H5" fill="none" stroke="#E39C93" stroke-width=".3"/></pattern></defs><rect width="264" height="218" fill="#FFF8F7"/><rect x="10.0" y="12.0" width="250.0" height="196.0" fill="url(#p5)"/><text x="10.0" y="8" font-family="Figtree,system-ui,sans-serif" font-size="4.2" font-weight="600" fill="#23272E">Padrão S1Q3 em taquicardia sinusal</text><text x="260" y="8" text-anchor="end" font-family="Figtree,system-ui,sans-serif" font-size="3.4" fill="#5E646B">laudo: S em DI e Q em DIII</text><polyline fill="none" stroke="#23272E" stroke-width=".45" stroke-linejoin="round" points="17.00,37.23 17.30,37.30 17.45,37.43 18.05,37.55 18.15,37.85 18.25,37.46 18.90,37.56 19.15,36.87 19.25,36.11 19.35,35.20 19.40,34.54 19.50,32.60 19.65,31.83 19.70,32.52 19.75,34.24 19.80,35.62 19.90,38.92 19.95,39.77 20.15,39.77 20.25,39.12 20.35,38.35 20.55,38.03 21.15,37.26 21.65,37.11 21.75,36.99 22.30,36.89 22.40,36.52 23.10,36.19 23.35,35.81 23.65,35.69 23.75,35.58 23.90,35.17 24.45,35.04 24.75,34.99 25.05,35.25 25.45,36.10 25.80,36.79 27.10,37.36 27.50,37.40 27.55,37.66 28.25,37.54 28.60,36.97 28.80,36.84 28.85,36.98 29.05,36.53 29.40,36.25 29.85,36.77 30.35,37.13 30.55,37.24 30.65,37.52 31.75,37.43 31.90,37.67 32.50,37.52 32.70,37.61 32.80,36.71 32.95,36.16 33.05,35.10 33.10,34.21 33.20,33.11 33.25,32.25 33.30,31.95 33.35,32.05 33.40,33.06 33.50,37.11 33.55,38.87 33.60,39.50 33.70,40.32 33.80,40.08 33.90,39.55 33.95,39.47 34.05,38.66 34.20,38.17 34.85,37.72 34.95,37.48 35.45,37.53 35.60,37.10 36.60,36.72 36.75,36.41 37.30,35.89 37.70,35.16 37.90,35.02 38.05,34.96 38.30,34.85 38.45,34.98 38.55,34.96 38.70,35.17 38.75,35.08 39.40,37.00 39.65,37.32 39.95,37.55 40.10,37.43 41.05,37.80 42.25,37.56 42.35,37.34 42.55,37.17 42.90,36.55 43.90,36.91 44.25,37.40 44.80,37.70 46.25,37.91 46.40,37.72 46.50,37.56 46.65,36.47 46.75,36.32 46.90,34.72 47.00,33.18 47.10,32.49 47.15,32.45 47.20,33.39 47.35,39.40 47.40,40.23 47.45,40.30 47.50,40.67 47.65,40.11 47.75,39.48 47.80,38.99 48.15,37.87 48.60,37.77 48.70,37.49 49.40,37.34 49.60,37.03 50.35,36.80 50.45,36.50 50.65,36.36 51.00,36.03 51.05,36.14 51.20,35.51 51.40,35.34 51.45,35.23 51.60,35.28 51.75,35.08 52.35,35.12 53.00,36.43 53.45,37.22 54.20,37.71 54.75,37.70 55.25,37.94 55.50,38.03 56.35,37.45 56.50,37.07 56.60,36.92 56.80,36.74 56.85,37.00 56.90,37.05 56.95,36.83 58.20,37.45 58.90,37.72 59.00,37.79 59.70,37.77 60.00,37.54 60.05,37.81 60.20,37.63 60.55,35.93 60.60,35.54 60.75,33.28 60.80,32.68 60.85,32.49 60.90,33.12 60.95,34.61 61.05,38.39 61.10,40.13 61.15,41.29 61.20,41.57 61.25,41.17 61.30,40.45 61.35,40.29 61.40,40.44 61.45,40.22 61.55,38.99 61.95,37.78 62.80,37.02 63.20,37.08 64.05,36.69 64.20,36.38 64.55,35.94 64.75,35.89 64.90,35.33 65.65,34.97 65.75,34.66 66.05,35.15 66.15,35.03 66.95,36.77 68.10,37.62 69.50,37.53 69.55,37.38 69.65,37.61 69.95,37.22 70.20,36.93 70.40,36.73 70.55,36.74 70.70,36.53 71.30,36.92 71.70,37.49 72.75,37.63 72.95,37.81 73.75,37.67 74.10,36.98 74.30,35.87 74.45,33.44 74.55,32.17 74.60,31.91 74.65,32.12 74.70,33.29 74.75,35.43 74.80,37.20 74.85,39.21 74.90,40.01 74.95,39.93 75.00,40.39 75.05,39.82 75.15,39.77 75.20,39.53 75.25,39.50 75.35,38.80 75.70,37.71 76.10,37.65 77.70,36.72 77.90,36.52 78.05,36.20 78.20,36.17 78.30,36.03 78.50,36.15 78.55,35.89 78.65,35.72 78.70,35.49 78.75,35.55 78.90,35.17 79.45,35.06"/><path d="M11.0 37.0h1.6v-10.0h4v10.0h1.6" fill="none" stroke="#23272E" stroke-width=".45"/><text x="18.0" y="17.0" font-family="Figtree,system-ui,sans-serif" font-size="3.6" font-weight="600" fill="#23272E">I</text><polyline fill="none" stroke="#23272E" stroke-width=".45" stroke-linejoin="round" points="17.00,87.26 17.30,87.34 17.70,87.43 18.05,87.37 18.15,87.72 19.00,87.73 19.15,87.98 19.20,87.85 19.30,86.66 19.40,85.81 19.65,81.79 19.70,81.55 19.85,83.29 20.05,86.93 20.15,88.05 20.20,88.29 20.60,87.76 20.70,87.93 21.15,87.39 23.15,86.85 24.05,86.18 24.60,85.91 25.30,86.19 25.80,86.72 27.35,87.27 27.50,87.22 27.55,87.48 28.25,87.33 28.60,86.82 28.80,86.70 28.85,86.83 29.05,86.39 29.40,86.16 29.85,86.69 30.35,87.07 30.55,87.18 30.65,87.46 31.75,87.44 31.90,87.69 32.50,87.59 32.60,87.56 32.70,88.10 32.95,87.34 33.15,84.98 33.20,84.24 33.30,82.19 33.35,81.49 33.40,81.45 33.45,82.25 33.50,83.39 33.60,84.99 33.70,86.82 33.80,87.82 33.95,88.37 34.40,87.79 36.45,87.26 37.55,86.62 37.75,86.39 38.15,86.22 38.30,86.10 38.55,85.98 38.95,86.38 39.45,87.00 39.95,87.34 40.10,87.21 41.00,87.54 42.45,87.14 42.90,86.36 43.80,86.64 44.25,87.26 44.80,87.58 46.30,87.79 46.40,87.74 46.50,88.18 46.75,87.49 46.90,85.76 47.00,84.17 47.10,81.61 47.15,80.73 47.20,80.76 47.25,81.74 47.30,82.92 47.45,85.28 47.55,87.11 47.60,87.76 47.75,88.34 48.30,87.80 50.90,86.97 51.05,87.03 51.20,86.74 51.40,86.68 51.65,86.49 52.00,86.35 52.70,86.42 53.85,87.35 54.55,87.41 54.75,87.41 55.15,87.61 56.20,87.17 56.45,86.90 56.65,86.47 56.90,86.42 57.00,86.35 58.45,87.36 59.75,87.63 60.00,87.54 60.05,87.79 60.15,87.83 60.25,88.19 60.40,87.85 60.60,86.39 60.75,83.89 60.85,81.15 60.90,80.49 60.95,80.69 61.00,81.61 61.05,82.74 61.20,85.23 61.25,86.23 61.40,88.08 61.45,88.44 61.95,87.72 62.80,87.26 63.10,87.50 64.60,86.93 64.75,86.96 64.90,86.43 65.70,86.37 65.75,86.12 66.75,86.57 67.55,86.97 69.15,87.21 69.65,87.13 70.05,86.79 70.15,86.54 70.25,86.56 70.35,86.37 70.55,86.43 70.65,86.20 71.30,86.72 71.70,87.29 72.75,87.53 72.90,87.78 74.05,87.86 74.10,88.01 74.15,87.91 74.25,87.29 74.40,85.71 74.45,84.92 74.60,81.90 74.65,81.19 74.70,81.33 74.85,84.54 74.95,85.83 75.00,86.84 75.10,87.88 75.25,88.53 75.70,87.73 77.90,87.01 78.05,86.83 78.50,86.88 78.60,86.55 78.85,86.49 79.45,86.13"/><path d="M11.0 87.0h1.6v-10.0h4v10.0h1.6" fill="none" stroke="#23272E" stroke-width=".45"/><text x="18.0" y="67.0" font-family="Figtree,system-ui,sans-serif" font-size="3.6" font-weight="600" fill="#23272E">II</text><polyline fill="none" stroke="#23272E" stroke-width=".45" stroke-linejoin="round" points="17.00,137.04 18.15,136.90 18.25,137.25 18.90,137.18 19.00,137.45 19.10,137.93 19.20,138.30 19.30,138.04 19.50,138.59 19.65,136.98 19.75,134.92 19.90,132.20 19.95,132.26 20.05,134.18 20.20,135.76 20.35,136.71 20.40,136.81 20.50,136.66 20.70,137.16 21.65,137.20 22.30,137.26 22.40,137.63 23.15,137.74 23.35,137.89 23.75,137.83 23.90,138.17 25.05,137.82 25.85,136.93 28.70,136.86 32.60,137.06 32.75,137.74 32.80,138.08 33.00,138.19 33.05,138.17 33.10,138.41 33.15,138.43 33.25,137.90 33.35,136.45 33.50,133.29 33.55,132.34 33.60,132.51 33.75,134.14 33.85,135.20 34.05,136.52 34.20,136.82 34.85,136.99 34.95,137.23 35.45,137.07 35.60,137.47 36.65,137.59 37.35,138.08 37.90,138.33 38.00,138.40 38.70,137.96 38.75,138.08 39.55,136.78 42.25,136.65 42.35,136.84 43.80,136.74 43.95,136.85 46.35,136.84 46.60,138.17 46.70,138.21 47.00,138.00 47.30,132.50 47.35,131.39 47.40,131.26 47.50,132.54 47.55,133.72 47.60,134.46 47.75,135.87 47.80,136.29 48.15,137.02 48.60,136.96 48.70,137.23 49.45,137.20 49.60,137.41 50.40,137.55 50.50,137.62 51.00,137.92 51.15,138.10 51.45,138.37 52.35,138.20 53.20,137.04 54.00,136.79 55.30,136.66 55.40,136.45 56.80,136.76 56.90,136.38 57.90,136.82 58.90,136.78 60.05,136.99 60.20,137.43 60.30,138.06 60.40,138.22 60.75,137.62 60.80,136.81 60.95,133.10 61.00,132.07 61.10,130.52 61.15,130.08 61.20,130.68 61.30,133.45 61.35,134.18 61.55,136.25 62.00,136.97 63.25,137.40 64.05,137.47 64.20,137.73 65.50,138.42 65.70,138.58 66.05,138.13 66.15,138.26 66.90,136.99 68.05,136.63 68.20,136.52 69.50,136.69 69.55,136.80 69.65,136.53 71.95,136.82 73.75,137.17 74.05,137.78 74.15,138.20 74.25,138.17 74.30,137.93 74.40,138.57 74.45,138.50 74.55,137.71 74.65,136.08 74.75,134.00 74.80,133.37 74.85,132.34 74.90,132.17 75.00,133.46 75.05,134.56 75.10,135.15 75.30,136.38 75.70,137.03 76.30,137.01 77.95,137.51 78.20,137.63 78.30,137.77 78.60,137.70 78.70,138.10 78.75,138.04 78.85,138.28 79.45,138.09"/><path d="M11.0 137.0h1.6v-10.0h4v10.0h1.6" fill="none" stroke="#23272E" stroke-width=".45"/><text x="18.0" y="117.0" font-family="Figtree,system-ui,sans-serif" font-size="3.6" font-weight="600" fill="#23272E">III</text><polyline fill="none" stroke="#23272E" stroke-width=".45" stroke-linejoin="round" points="74.50,38.40 74.60,38.51 75.20,38.06 75.50,37.63 75.90,36.80 77.20,36.42 78.15,36.43 78.60,36.63 78.85,36.83 78.95,36.78 79.00,37.07 79.15,37.55 80.10,37.15 80.95,36.23 82.55,36.34 82.70,36.31 82.85,36.79 82.95,36.92 83.05,37.60 83.10,38.14 83.20,39.80 83.25,40.43 83.35,41.95 83.40,42.13 83.45,41.54 83.50,40.23 83.60,37.29 83.65,36.60 83.70,36.23 83.75,35.65 83.90,35.04 84.00,34.97 84.35,36.02 84.90,36.57 86.15,37.05 86.50,37.20 86.80,37.18 87.35,37.82 87.55,37.93 87.70,38.32 88.20,38.36 88.45,38.70 89.20,37.64 89.25,37.72 89.65,36.86 90.80,36.59 91.00,36.42 92.45,36.73 92.70,36.96 93.00,37.46 93.65,37.40 94.50,36.42 94.70,36.48 94.80,36.30 96.05,36.44 96.15,36.16 96.25,36.34 96.50,36.10 96.75,37.04 96.90,38.60 97.00,39.89 97.05,40.98 97.10,41.81 97.15,42.24 97.20,42.16 97.25,41.22 97.35,37.98 97.40,36.86 97.50,35.89 97.55,35.76 97.65,35.01 97.70,34.87 97.85,35.58 98.20,36.16 99.85,36.87 100.65,37.03 100.85,37.38 101.05,37.48 101.40,38.11 102.15,38.30 102.90,37.71 103.45,36.90 103.80,36.71 104.10,36.63 104.20,36.42 105.55,36.66 105.65,36.52 105.75,36.66 105.80,36.40 106.30,36.84 106.65,37.02 107.00,37.69 107.30,37.31 107.45,37.39 107.95,36.54 108.00,36.65 108.05,36.44 108.20,36.73 108.30,36.31 109.75,36.27 109.80,36.31 109.90,35.87 110.20,36.02 110.35,36.50 110.50,36.80 110.65,38.05 110.80,39.82 110.90,41.66 110.95,42.19 111.00,42.10 111.05,41.16 111.10,39.84 111.20,36.93 111.30,35.44 111.45,35.07 111.50,34.88 111.70,35.68 112.70,36.32 114.10,36.96 114.75,37.37 115.00,37.61 115.50,38.29 115.70,38.44 116.15,38.42 116.25,38.41 116.95,37.43 117.40,36.68 117.55,36.59 117.70,36.43 119.25,36.57 119.85,36.56 120.60,37.26 120.80,37.08 121.50,37.02 122.00,36.70 122.10,36.45 122.55,36.46 122.75,36.25 123.80,36.16 124.05,36.31 124.20,36.51 124.30,36.93 124.50,38.40 124.55,39.09 124.65,40.99 124.75,42.13 124.80,41.93 124.85,40.99 124.95,37.85 125.00,36.74 125.15,35.38 125.25,34.85 125.35,34.72 125.45,35.25 125.80,36.08 127.70,36.92 128.40,37.26 128.90,37.94 129.05,38.09 129.15,38.41 129.50,38.30 129.70,38.46 129.75,38.71 130.25,38.16 130.70,37.35 131.15,36.84 131.90,36.51 132.25,36.47 133.25,36.62 133.35,36.50 134.05,36.91 134.30,37.48 135.10,37.07 135.45,36.80 135.80,36.75 136.15,36.27 136.95,36.35"/><text x="75.5" y="17.0" font-family="Figtree,system-ui,sans-serif" font-size="3.6" font-weight="600" fill="#23272E">aVR</text><polyline fill="none" stroke="#23272E" stroke-width=".45" stroke-linejoin="round" points="74.50,85.55 75.00,85.76 75.55,86.71 75.90,87.41 77.60,87.53 77.70,87.54 77.80,87.71 78.95,87.49 79.20,87.11 80.25,87.11 81.15,87.42 82.50,87.32 82.75,86.82 82.80,86.43 82.95,86.29 83.05,85.97 83.10,85.58 83.15,84.91 83.20,84.45 83.35,84.42 83.40,84.87 83.45,85.93 83.50,87.48 83.60,90.23 83.65,90.72 83.70,90.30 83.75,90.18 83.95,88.88 84.35,87.72 84.95,87.16 86.45,86.64 86.50,86.49 86.55,86.57 86.65,86.34 87.00,86.38 87.40,85.84 87.80,85.44 88.60,85.45 89.40,86.88 89.65,87.23 90.80,87.23 90.95,87.67 92.60,87.52 93.20,87.00 93.80,87.06 94.55,87.51 95.90,87.52 96.20,87.42 96.50,87.04 96.85,85.64 97.00,84.88 97.05,84.37 97.10,84.36 97.15,84.66 97.20,85.33 97.35,89.79 97.40,90.87 97.45,91.12 97.50,90.62 97.55,89.90 97.70,89.28 97.80,88.22 97.90,87.93 98.35,87.41 100.20,86.58 100.60,86.73 100.70,86.25 101.05,86.11 101.35,85.57 102.20,85.64 102.65,85.95 103.45,87.00 104.15,87.34 104.75,87.38 104.85,87.50 105.75,87.38 105.85,87.50 106.45,87.28 106.75,87.21 107.00,86.95 107.10,87.21 107.60,87.28 108.10,87.51 108.25,87.45 108.45,87.56 109.80,87.46 110.00,87.58 110.20,87.51 110.30,86.75 110.65,85.51 110.75,84.96 110.80,85.04 110.85,84.84 110.90,85.08 111.00,86.37 111.10,89.06 111.20,91.97 111.25,92.53 111.30,92.17 111.40,90.49 111.45,89.95 111.55,89.15 111.70,87.91 112.30,87.40 113.15,86.97 113.85,86.61 114.45,86.31 114.55,86.20 114.70,86.18 114.85,85.67 115.05,85.68 115.20,85.35 115.40,85.14 115.50,85.06 116.10,85.16 116.45,85.67 117.20,87.07 117.30,87.04 117.40,87.36 117.50,87.20 117.65,87.64 119.25,87.37 119.35,87.55 120.35,87.23 120.70,87.17 120.75,87.40 121.50,87.11 122.35,87.31 123.70,87.44 123.75,87.61 124.10,86.78 124.30,86.19 124.40,85.63 124.50,85.46 124.55,85.22 124.60,84.71 124.65,84.57 124.75,85.53 124.80,86.45 124.90,89.01 124.95,90.52 125.00,91.69 125.10,91.29 125.15,90.71 125.20,89.92 125.30,89.49 125.45,88.29 125.85,87.52 126.80,87.08 127.45,86.64 127.85,86.51 128.25,86.33 128.35,86.43 128.55,85.91 128.80,85.79 128.95,85.45 129.15,85.18 129.65,85.29 129.80,85.18 130.00,85.36 130.55,86.37 131.10,87.25 132.25,87.40 132.60,87.48 133.25,87.30 133.30,87.56 134.20,87.17 134.40,87.02 134.55,87.24 135.30,87.34 135.90,87.36 136.25,87.42 136.95,87.45"/><text x="75.5" y="67.0" font-family="Figtree,system-ui,sans-serif" font-size="3.6" font-weight="600" fill="#23272E">aVL</text><polyline fill="none" stroke="#23272E" stroke-width=".45" stroke-linejoin="round" points="74.50,137.09 75.65,136.84 77.70,137.06 78.85,136.75 79.05,136.60 79.15,136.40 80.50,137.09 81.05,137.38 82.60,137.54 82.85,137.92 83.00,137.63 83.15,137.14 83.20,136.79 83.40,134.04 83.45,133.58 83.50,133.34 83.55,133.61 83.60,133.53 83.65,133.72 83.75,135.22 83.85,136.45 83.95,137.10 84.00,137.38 86.45,137.24 86.70,137.50 87.15,137.34 87.60,137.30 88.35,137.10 88.55,137.05 89.20,136.83 89.40,136.80 90.20,137.08 90.85,137.16 91.05,137.00 92.55,136.79 93.05,136.52 94.20,137.03 95.90,137.16 96.10,137.29 96.30,137.39 96.50,137.89 96.75,137.87 96.90,137.03 97.00,136.26 97.05,135.71 97.15,134.14 97.25,133.10 97.40,133.31 97.45,133.65 97.55,135.39 97.70,136.89 97.80,137.42 100.55,137.43 100.85,137.56 102.30,137.14 103.20,137.07 103.90,137.16 104.75,137.13 105.75,137.01 105.90,137.09 106.60,136.78 107.10,136.37 107.55,136.61 108.10,137.05 108.20,136.94 108.35,137.20 109.80,137.29 109.90,137.54 110.20,137.52 110.35,137.92 110.50,138.23 110.75,136.82 110.85,135.47 110.95,133.09 111.05,132.21 111.20,132.15 111.25,132.40 111.35,134.43 111.45,136.04 111.55,136.87 111.70,137.45 114.75,137.66 115.15,137.78 115.60,137.60 116.15,137.41 116.90,136.93 117.35,137.03 117.55,137.09 119.85,137.01 120.85,136.62 122.30,137.26 123.20,137.40 123.85,137.41 124.00,137.56 124.15,138.05 124.25,138.12 124.45,137.41 124.55,136.74 124.60,136.22 124.65,135.48 124.75,133.39 124.80,132.67 124.85,132.41 124.95,132.68 125.00,132.62 125.10,134.04 125.20,135.93 125.35,137.15 125.45,137.49 126.90,137.43 128.30,137.47 128.70,137.59 129.10,137.53 129.70,137.32 130.40,136.94 130.85,137.02 131.75,137.08 132.35,137.09 133.25,137.12 133.60,136.92 134.20,136.66 134.60,136.51 135.95,137.14 136.70,137.31 136.95,137.26"/><text x="75.5" y="117.0" font-family="Figtree,system-ui,sans-serif" font-size="3.6" font-weight="600" fill="#23272E">aVF</text><polyline fill="none" stroke="#23272E" stroke-width=".45" stroke-linejoin="round" points="137.00,36.96 137.55,36.85 137.95,36.26 138.10,36.13 138.15,36.49 138.25,38.63 138.30,40.15 138.35,42.19 138.40,44.02 138.50,46.82 138.55,47.61 138.65,47.19 138.70,46.90 138.95,44.10 139.05,42.00 139.10,40.81 139.15,39.95 139.35,37.76 139.45,37.20 139.75,36.62 140.15,36.45 141.95,36.45 142.00,36.68 143.40,36.35 143.60,36.62 143.90,36.74 146.45,36.85 146.65,36.93 148.30,36.53 148.45,36.88 148.55,37.21 150.60,36.74 151.35,36.53 151.80,36.22 151.85,36.07 151.90,36.35 151.95,37.31 152.00,38.53 152.05,40.13 152.10,42.22 152.15,44.10 152.25,46.98 152.30,47.51 152.45,46.77 152.55,45.78 152.70,43.84 152.75,42.93 152.85,40.68 153.00,38.58 153.05,37.97 153.20,36.91 153.65,36.41 156.35,36.17 157.20,36.37 157.35,36.59 161.00,36.66 161.10,36.82 161.45,36.44 162.10,36.61 162.20,36.80 162.30,37.33 165.15,36.36 165.35,36.13 165.55,35.57 165.70,36.72 165.75,37.78 165.80,39.22 165.90,42.79 165.95,44.36 166.00,45.64 166.05,46.71 166.10,46.72 166.20,46.11 166.45,43.59 166.50,42.89 166.55,41.93 166.65,39.78 166.80,37.83 166.95,36.78 167.40,36.06 170.10,36.11 171.35,36.41 173.45,36.41 173.60,36.35 175.25,36.28 175.40,36.00 175.80,36.26 176.20,36.95 176.50,37.04 178.05,36.57 178.15,36.27 179.05,36.23 179.30,35.69 179.35,35.42 179.40,35.63 179.50,36.84 179.55,38.01 179.65,41.29 179.70,43.02 179.75,44.49 179.80,45.57 179.85,46.21 179.90,46.16 180.05,44.88 180.25,43.01 180.30,42.29 180.45,39.30 180.60,37.65 180.75,36.73 180.90,36.20 181.25,35.88 183.85,36.18 186.15,36.48 186.65,36.39 187.75,36.53 188.00,36.38 189.00,36.26 189.15,36.16 189.50,36.40 189.85,37.02 191.30,36.81 191.50,36.59 192.80,36.54 192.90,36.10 193.00,35.84 193.10,35.29 193.15,35.54 193.25,36.82 193.30,38.16 193.35,39.76 193.45,43.49 193.55,46.26 193.60,47.13 193.65,47.14 193.75,46.50 193.95,44.27 194.00,43.67 194.05,42.83 194.15,40.61 194.20,39.67 194.40,37.53 194.50,36.84 194.60,36.40 194.90,36.06 198.20,36.27 199.45,36.60"/><text x="138.0" y="17.0" font-family="Figtree,system-ui,sans-serif" font-size="3.6" font-weight="600" fill="#23272E">V1</text><polyline fill="none" stroke="#23272E" stroke-width=".45" stroke-linejoin="round" points="137.00,87.15 137.45,86.94 137.75,86.54 137.85,86.04 137.90,85.46 138.00,83.25 138.05,82.78 138.10,83.56 138.15,85.91 138.20,89.35 138.35,100.44 138.40,103.59 138.45,105.91 138.50,107.66 138.55,108.57 138.60,108.92 138.70,108.45 138.75,108.11 138.80,106.85 138.95,101.08 139.10,95.18 139.15,93.49 139.25,90.67 139.35,88.69 139.40,88.03 139.55,86.86 139.70,86.24 140.15,85.49 141.05,85.09 141.20,84.90 141.80,84.37 141.95,84.18 142.10,83.62 142.45,83.07 142.75,82.79 143.35,82.88 143.80,83.81 144.50,86.00 144.85,86.78 144.95,86.81 145.05,87.07 145.30,87.08 145.45,87.34 147.15,87.14 147.50,86.56 147.60,86.72 148.15,86.05 148.25,86.12 148.60,87.14 148.95,87.16 149.10,87.37 149.95,87.37 150.00,87.58 151.50,86.97 151.60,86.08 151.65,85.42 151.75,83.28 151.80,82.75 151.85,83.79 151.90,86.31 151.95,89.69 152.05,97.41 152.10,101.11 152.15,104.14 152.20,106.36 152.25,107.95 152.30,108.81 152.40,108.83 152.45,108.76 152.50,108.21 152.55,106.92 152.80,96.77 152.90,93.36 153.00,90.45 153.05,89.38 153.20,87.54 153.30,86.76 153.65,85.91 154.00,85.43 154.75,85.06 155.45,84.48 155.75,83.96 155.90,83.73 156.05,83.50 156.15,83.12 156.40,82.91 156.60,82.72 157.25,83.14 157.50,83.69 158.35,86.24 158.75,86.82 159.15,87.13 160.80,86.91 161.50,86.44 161.95,85.96 162.30,86.92 163.35,87.30 165.20,86.81 165.25,86.71 165.40,85.49 165.45,84.72 165.50,83.58 165.55,82.80 165.60,82.97 165.65,84.57 165.70,87.29 165.75,90.58 165.85,98.40 165.90,101.81 165.95,104.52 166.00,106.33 166.05,107.64 166.10,107.92 166.20,107.77 166.30,106.68 166.35,105.21 166.50,99.37 166.65,93.82 166.75,90.72 166.80,89.53 166.85,88.62 167.00,86.94 167.15,86.15 167.55,85.35 167.70,85.31 167.85,85.12 168.70,84.65 169.25,84.15 169.45,83.78 169.90,83.10 170.30,82.53 170.50,82.38 170.85,82.53 171.20,83.20 171.50,84.29 172.00,85.73 172.70,86.76 174.20,86.84 175.30,86.39 175.40,86.04 175.70,85.55 176.00,86.43 176.45,86.86 177.85,86.98 178.85,86.87 179.05,86.56 179.15,85.85 179.20,85.32 179.30,83.27 179.35,82.66 179.40,83.02 179.45,84.87 179.50,88.03 179.65,99.12 179.70,102.37 179.75,104.86 179.80,106.50 179.85,107.41 179.90,107.60 180.00,107.39 180.05,107.04 180.10,105.97 180.35,97.04 180.45,93.05 180.55,90.37 180.60,89.29 180.70,88.00 180.75,87.46 180.95,86.35 181.10,85.82 181.35,85.64 181.65,85.26 182.45,84.86 182.55,84.48 182.85,84.43 183.45,83.56 183.75,83.00 184.00,82.77 184.10,82.53 184.70,82.81 185.25,84.26 185.90,86.10 186.45,86.89 187.90,87.14 188.70,86.69 189.25,86.02 190.10,86.90 191.00,87.09 191.10,87.15 191.25,87.17 191.35,87.35 192.65,86.86 192.80,86.77 192.90,85.93 192.95,85.34 193.05,83.08 193.10,82.53 193.15,83.18 193.20,85.31 193.25,88.62 193.35,96.31 193.40,99.89 193.45,103.09 193.50,105.45 193.55,107.14 193.60,108.30 193.65,108.60 193.80,108.11 193.85,106.95 193.90,105.06 194.00,100.85 194.20,93.50 194.30,90.65 194.35,89.61 194.45,88.08 194.55,86.92 194.75,86.15 195.10,85.56 195.40,85.36 195.60,85.09 196.00,84.94 196.25,84.72 196.40,84.73 196.95,83.95 197.40,83.25 197.55,82.86 197.90,82.47 198.50,82.87 198.90,83.97 199.30,85.34 199.45,85.70"/><text x="138.0" y="67.0" font-family="Figtree,system-ui,sans-serif" font-size="3.6" font-weight="600" fill="#23272E">V2</text><polyline fill="none" stroke="#23272E" stroke-width=".45" stroke-linejoin="round" points="137.00,137.17 137.70,137.12 137.80,136.81 137.95,135.41 138.00,134.45 138.05,133.81 138.10,133.90 138.15,134.77 138.20,136.26 138.25,138.27 138.30,140.59 138.35,143.33 138.40,145.70 138.45,147.41 138.50,148.75 138.65,151.07 138.70,151.95 138.75,152.53 138.80,152.18 138.85,151.27 139.05,146.06 139.15,143.13 139.25,140.70 139.30,139.75 139.45,137.94 139.65,137.09 139.90,136.54 140.85,135.84 141.80,135.10 142.30,134.22 142.50,134.00 142.85,133.69 143.70,134.12 144.25,135.58 144.35,135.77 144.60,136.35 144.85,136.79 145.60,137.29 146.50,137.28 147.40,137.09 147.95,136.61 148.40,136.57 148.60,137.06 148.95,137.08 149.05,137.25 149.45,137.44 149.95,137.51 150.15,137.59 151.35,137.25 151.45,137.40 151.55,137.09 151.70,135.60 151.80,133.95 151.85,134.12 151.90,135.11 151.95,136.66 152.00,138.76 152.10,144.04 152.15,146.29 152.20,147.94 152.25,149.20 152.35,150.29 152.45,152.34 152.50,152.73 152.55,152.43 152.60,151.42 152.75,147.49 152.85,144.51 153.00,140.62 153.05,139.72 153.20,138.02 153.35,137.21 153.90,136.26 154.95,135.70 155.55,135.16 156.50,133.86 157.05,133.94 157.30,134.08 158.35,136.28 158.80,136.88 159.15,137.09 160.90,136.91 161.45,136.57 161.90,136.23 162.10,136.27 162.30,136.83 162.80,137.08 164.05,137.21 165.20,137.04 165.30,136.77 165.45,135.67 165.55,134.00 165.60,134.21 165.70,135.24 165.75,136.93 165.90,144.32 165.95,146.22 166.00,147.46 166.05,148.49 166.10,148.96 166.15,149.65 166.20,150.75 166.25,151.50 166.30,151.76 166.35,151.16 166.50,147.70 166.70,142.19 166.75,140.78 166.80,139.70 166.95,137.96 167.10,137.06 167.45,136.35 168.00,135.85 168.15,135.83 168.65,135.58 168.85,135.14 169.20,135.09 169.40,134.53 169.65,134.36 169.80,134.06 170.40,133.26 171.05,133.59 171.50,134.68 171.90,135.81 172.60,136.70 173.20,137.05 174.85,136.80 175.35,136.47 175.70,135.89 176.10,136.77 176.50,137.05 177.75,137.26 179.00,137.04 179.05,136.98 179.20,135.92 179.25,135.30 179.35,133.71 179.40,133.47 179.45,134.02 179.50,135.44 179.55,137.56 179.65,142.52 179.70,144.74 179.75,146.51 179.80,147.77 179.90,149.09 179.95,149.96 180.00,151.08 180.05,151.73 180.10,151.67 180.15,150.93 180.30,147.54 180.35,146.25 180.45,143.07 180.60,139.84 180.70,138.70 180.80,137.86 180.90,137.31 181.25,136.56 181.85,136.01 182.20,135.73 182.50,135.57 182.60,135.28 182.95,135.25 183.10,134.88 183.30,134.83 183.40,134.46 183.65,134.13 183.85,133.98 184.00,133.81 184.05,133.55 184.75,133.88 185.10,134.39 185.35,135.14 185.60,135.53 185.85,136.28 186.50,137.04 186.75,137.23 186.90,137.32 188.45,137.14 188.95,136.82 189.45,136.16 189.95,137.12 190.60,137.22 190.80,137.45 192.20,137.31 192.80,136.91 192.95,135.96 193.00,135.33 193.10,133.68 193.15,133.64 193.20,134.43 193.25,135.87 193.35,140.64 193.45,145.53 193.50,147.24 193.55,148.52 193.80,152.80 193.85,152.59 193.90,151.53 194.05,147.71 194.20,143.36 194.30,140.94 194.35,140.03 194.50,138.14 194.65,137.22 195.15,136.30 195.60,135.76 196.05,135.59 196.75,135.06 197.40,134.05 198.00,133.38 198.65,133.80 199.15,135.12 199.45,135.91"/><text x="138.0" y="117.0" font-family="Figtree,system-ui,sans-serif" font-size="3.6" font-weight="600" fill="#23272E">V3</text><polyline fill="none" stroke="#23272E" stroke-width=".45" stroke-linejoin="round" points="199.50,36.55 200.05,37.02 200.65,37.29 202.30,37.15 203.20,36.95 203.95,37.01 204.20,37.23 204.50,37.43 206.65,37.55 206.70,37.47 206.80,36.75 207.05,35.94 207.30,36.52 207.40,37.35 207.45,37.97 207.50,39.18 207.55,39.86 207.70,41.27 207.75,41.42 207.90,40.66 208.10,38.65 208.25,37.81 208.70,37.13 210.30,36.71 211.80,35.90 213.00,36.28 213.50,36.83 213.85,37.13 216.00,37.19 217.20,36.72 218.60,37.38 220.45,37.36 220.60,36.72 220.80,35.78 221.10,36.26 221.15,36.22 221.20,36.56 221.25,37.71 221.35,39.40 221.50,40.89 221.55,41.23 221.70,40.51 221.95,38.26 222.25,37.55 222.90,37.13 224.75,36.53 225.45,35.97 226.90,36.33 227.75,36.77 228.95,36.93 230.45,36.69 230.50,36.40 230.80,36.41 232.30,36.90 234.25,37.30 234.50,35.46 234.55,35.19 234.80,35.26 234.85,34.91 234.90,34.97 235.00,35.85 235.05,37.19 235.10,38.29 235.30,40.72 235.45,40.35 235.70,38.30 235.85,37.68 236.25,37.05 237.45,36.74 237.65,36.57 238.10,36.60 238.25,36.28 238.85,36.09 239.30,36.02 239.40,35.93 239.45,35.77 240.35,35.91 240.85,36.52 241.70,37.11 243.00,37.21 244.25,36.78 244.60,36.65 246.05,37.21 246.20,37.46 247.85,37.34 248.10,36.93 248.15,36.70 248.30,35.59 248.70,36.27 248.75,36.85 248.85,39.15 248.90,40.01 248.95,40.52 249.10,41.42 249.20,40.99 249.25,40.71 249.45,38.76 249.50,38.38 249.80,37.60 250.40,37.18 251.75,36.76 252.40,36.42 253.15,35.95 253.25,35.88 254.10,36.02 254.45,36.48 254.55,36.43 255.05,37.03 255.80,37.32 257.10,37.20 257.90,36.78 258.25,36.53 259.15,36.96 261.95,37.00"/><text x="200.5" y="17.0" font-family="Figtree,system-ui,sans-serif" font-size="3.6" font-weight="600" fill="#23272E">V4</text><polyline fill="none" stroke="#23272E" stroke-width=".45" stroke-linejoin="round" points="199.50,86.60 200.35,87.25 200.60,87.31 202.00,87.44 203.55,86.87 204.40,87.26 204.70,87.41 206.50,87.35 206.55,87.57 206.80,87.10 207.00,85.67 207.15,85.17 207.30,83.80 207.35,84.13 207.45,85.38 207.50,86.76 207.55,87.77 207.70,89.74 207.80,90.12 207.95,89.69 208.05,88.63 208.35,87.78 208.90,87.31 210.85,86.63 211.75,86.15 211.85,85.97 213.05,86.43 213.80,87.18 214.70,87.29 214.85,87.35 216.15,87.32 217.10,86.55 217.65,87.04 218.35,87.38 220.15,87.54 220.40,87.49 220.60,87.11 220.75,86.10 220.90,85.10 221.00,84.36 221.10,83.23 221.15,83.14 221.20,83.85 221.25,85.26 221.35,87.34 221.50,89.43 221.60,89.95 221.75,89.63 221.85,88.71 222.00,88.14 222.25,87.64 222.75,87.30 225.20,86.45 225.40,86.21 225.70,86.18 225.85,86.11 227.15,86.67 228.55,87.24 230.15,87.00 230.60,86.71 230.80,86.56 232.15,87.21 232.45,87.35 234.05,87.44 234.30,87.53 234.50,86.11 234.60,85.20 234.70,84.43 234.90,82.12 234.95,82.36 235.00,83.67 235.05,85.25 235.10,86.52 235.20,88.06 235.30,89.45 235.35,89.72 235.50,89.67 235.65,88.50 235.80,87.90 236.20,87.33 238.40,86.68 238.70,86.53 239.15,86.32 239.60,86.13 239.90,86.05 241.05,86.83 241.60,87.14 241.90,87.20 242.00,87.26 243.35,87.19 243.45,87.38 244.05,87.01 245.25,86.89 245.65,87.19 246.00,87.32 247.15,87.32 247.30,87.49 248.05,87.56 248.20,86.60 248.30,85.71 248.50,84.84 248.55,84.34 248.60,83.56 248.65,83.41 248.75,83.94 248.85,86.96 248.90,87.95 249.05,89.59 249.10,89.96 249.25,89.94 249.50,88.20 249.95,87.50 251.45,87.05 253.40,86.01 253.90,85.89 254.00,85.90 254.50,86.48 255.10,87.00 255.60,87.19 257.20,87.04 259.00,86.85 259.50,87.08 261.95,87.01"/><text x="200.5" y="67.0" font-family="Figtree,system-ui,sans-serif" font-size="3.6" font-weight="600" fill="#23272E">V5</text><polyline fill="none" stroke="#23272E" stroke-width=".45" stroke-linejoin="round" points="199.50,136.79 200.85,137.36 201.15,137.25 201.25,137.61 202.90,137.12 203.70,137.02 204.30,137.21 204.40,137.27 204.55,137.45 206.50,137.37 206.70,137.76 206.80,137.57 206.95,136.66 207.15,134.71 207.30,132.43 207.35,131.99 207.40,132.42 207.50,134.75 207.55,135.63 207.65,137.09 207.70,137.89 207.80,138.76 208.20,138.05 208.45,137.67 209.80,137.20 211.35,136.73 211.90,136.44 213.25,136.68 214.50,137.37 215.95,137.27 216.70,136.93 217.05,136.68 217.95,137.14 220.00,137.51 220.45,137.41 220.60,137.28 220.75,136.49 220.95,134.32 221.10,131.75 221.15,131.47 221.20,132.07 221.25,133.36 221.30,134.43 221.50,137.73 221.55,138.28 221.60,138.61 221.75,138.43 222.45,137.48 224.70,136.94 225.35,136.53 226.40,136.27 226.50,136.28 227.45,136.97 228.95,137.26 230.15,137.14 230.70,136.78 230.80,136.64 232.55,137.35 233.80,137.49 234.15,137.55 234.25,137.80 234.40,137.40 234.50,136.71 234.65,135.00 234.85,131.34 234.90,130.65 234.95,130.74 235.00,131.95 235.05,133.46 235.10,134.56 235.25,137.11 235.40,138.59 235.45,138.74 235.90,137.87 236.90,137.33 238.65,136.78 238.95,136.63 239.45,136.50 239.65,136.42 240.80,136.80 241.85,137.25 242.80,137.37 244.15,136.99 244.40,136.78 244.50,136.71 246.70,137.26 246.80,137.40 247.40,137.34 247.50,137.57 248.10,137.51 248.25,136.72 248.40,135.48 248.50,134.29 248.60,132.49 248.65,131.75 248.70,131.63 248.75,132.20 248.85,134.84 248.90,135.84 249.10,138.42 249.15,138.80 249.20,138.87 249.55,137.96 249.90,137.44 251.70,137.06 253.40,136.34 253.85,136.42 255.00,136.90 255.60,137.26 255.80,137.07 255.95,137.42 258.60,136.78 259.50,137.08 261.95,137.02"/><text x="200.5" y="117.0" font-family="Figtree,system-ui,sans-serif" font-size="3.6" font-weight="600" fill="#23272E">V6</text><polyline fill="none" stroke="#23272E" stroke-width=".45" stroke-linejoin="round" points="17.00,186.27 17.30,186.35 17.70,186.44 18.05,186.39 18.15,186.74 19.00,186.74 19.15,186.99 19.20,186.86 19.30,185.67 19.40,184.82 19.65,180.80 19.70,180.56 19.85,182.31 20.05,185.94 20.15,187.06 20.20,187.30 20.60,186.77 20.70,186.94 21.15,186.40 23.15,185.86 24.05,185.19 24.60,184.93 25.30,185.20 25.80,185.73 27.35,186.28 27.50,186.23 27.55,186.49 28.25,186.34 28.60,185.84 28.80,185.71 28.85,185.85 29.05,185.40 29.40,185.18 29.85,185.70 30.35,186.08 30.55,186.19 30.65,186.48 31.75,186.45 31.90,186.70 32.50,186.61 32.60,186.57 32.70,187.12 32.95,186.36 33.15,184.00 33.20,183.25 33.30,181.21 33.35,180.50 33.40,180.46 33.45,181.27 33.50,182.40 33.60,184.01 33.70,185.83 33.80,186.84 33.95,187.38 34.40,186.80 36.45,186.27 37.55,185.63 37.75,185.41 38.15,185.23 38.30,185.11 38.55,185.00 38.95,185.39 39.45,186.01 39.95,186.35 40.10,186.22 41.00,186.55 42.45,186.15 42.90,185.37 43.80,185.66 44.25,186.27 44.80,186.59 46.30,186.80 46.40,186.75 46.50,187.19 46.75,186.50 46.90,184.78 47.00,183.18 47.10,180.63 47.15,179.74 47.20,179.77 47.25,180.75 47.30,181.93 47.45,184.30 47.55,186.12 47.60,186.77 47.75,187.35 48.30,186.82 50.90,185.99 51.05,186.05 51.20,185.75 51.40,185.70 51.65,185.50 52.00,185.37 52.70,185.43 53.85,186.36 54.55,186.42 54.75,186.42 55.15,186.63 56.20,186.19 56.45,185.91 56.65,185.48 56.90,185.43 57.00,185.37 58.45,186.38 59.75,186.65 60.00,186.55 60.05,186.80 60.15,186.85 60.25,187.21 60.40,186.86 60.60,185.40 60.75,182.90 60.85,180.16 60.90,179.50 60.95,179.70 61.00,180.62 61.05,181.75 61.20,184.25 61.25,185.24 61.40,187.10 61.45,187.45 61.95,186.73 62.80,186.28 63.10,186.51 64.60,185.95 64.75,185.97 64.90,185.44 65.70,185.38 65.75,185.14 66.75,185.59 67.55,185.98 69.15,186.22 69.65,186.14 70.05,185.80 70.15,185.55 70.25,185.57 70.35,185.39 70.55,185.44 70.65,185.21 71.30,185.74 71.70,186.31 72.75,186.55 72.90,186.79 74.05,186.88 74.10,187.03 74.15,186.93 74.25,186.30 74.40,184.72 74.45,183.93 74.60,180.91 74.65,180.20 74.70,180.34 74.85,183.55 74.95,184.84 75.00,185.85 75.10,186.90 75.25,187.54 75.70,186.74 77.90,186.02 78.05,185.84 78.50,185.89 78.60,185.57 78.85,185.51 79.65,185.06 80.45,185.35 80.95,186.07 82.20,186.44 83.45,186.31 83.85,185.96 83.95,186.01 84.00,185.72 84.15,185.25 85.15,185.84 85.95,186.78 87.65,186.86 87.70,186.98 87.95,186.61 88.10,185.46 88.25,183.15 88.35,181.16 88.40,180.62 88.45,180.70 88.50,181.41 88.55,182.63 88.60,183.50 88.70,184.86 88.75,185.73 88.85,186.88 88.95,187.38 89.00,187.62 89.35,186.88 89.90,186.50 91.20,186.10 91.45,186.07 91.75,186.26 92.25,185.81 92.45,185.68 92.55,185.65 92.70,185.32 93.20,185.24 93.45,184.86 94.20,185.47 94.25,185.35 94.70,186.08 96.00,186.40 97.40,186.11 97.80,185.66 98.00,185.38 98.70,185.63 99.45,186.44 99.70,186.42 99.80,186.59 101.05,186.49 101.15,186.82 101.25,186.67 101.50,187.21 101.75,186.57 101.90,184.96 102.00,183.59 102.10,181.39 102.15,180.60 102.20,180.28 102.25,180.60 102.35,182.88 102.45,184.26 102.50,185.12 102.65,186.98 102.70,187.36 102.80,187.36 103.20,186.84 105.20,186.36 105.85,186.13 106.55,185.48 107.20,185.27 108.05,185.67 108.45,186.18 108.75,186.33 109.10,186.36 109.20,186.57 110.55,186.24 110.65,186.39 110.75,186.25 110.80,186.51 111.30,186.05 111.60,185.92 112.00,185.15 112.35,185.54 112.45,185.40 112.95,186.31 113.00,186.23 113.05,186.44 113.20,186.14 113.30,186.59 114.75,186.71 114.80,186.67 114.90,187.13 115.50,186.96 115.65,185.62 115.75,184.38 115.80,183.58 115.85,182.51 115.90,181.12 115.95,179.95 116.00,179.67 116.05,180.04 116.10,180.88 116.20,182.82 116.25,183.54 116.30,184.67 116.35,185.45 116.45,186.66 116.50,187.11 116.60,187.23 120.10,186.06 120.50,185.62 120.60,185.46 120.85,185.45 121.15,185.34 121.25,185.28 121.90,185.61 122.50,186.32 123.70,186.41 124.85,186.31 125.60,185.62 126.55,185.98 127.00,186.29 127.10,186.56 127.55,186.58 127.75,186.79 129.00,186.82 129.10,187.14 129.25,186.98 129.50,185.20 129.55,184.44 129.75,180.19 129.80,179.85 129.85,180.30 129.95,182.56 130.20,186.52 130.30,187.37 130.35,187.63 130.50,187.44 130.80,186.90 133.70,186.01 134.05,185.71 134.15,185.38 134.50,185.44 134.70,185.25 134.75,185.00 135.40,185.31 135.85,185.96 136.90,186.43 137.30,186.44 138.45,186.24 139.05,185.95 139.30,185.38 140.10,185.77 140.45,186.09 140.80,186.18 141.15,186.69 142.30,186.56 142.40,186.56 142.50,186.93 142.80,186.84 142.90,187.18 143.00,186.90 143.15,185.93 143.25,185.02 143.40,182.79 143.50,180.66 143.55,180.21 143.60,180.50 143.65,181.46 143.70,182.62 143.90,185.93 144.00,187.12 144.05,187.41 144.50,186.68 146.90,186.04 147.25,186.10 147.40,185.64 147.70,185.73 147.75,185.51 147.90,185.56 148.00,185.22 148.10,185.16 148.30,185.03 149.45,185.41 149.85,185.88 150.90,186.21 151.25,186.13 151.35,185.95 152.15,186.27 152.20,186.15 152.25,185.79 152.65,185.99 152.75,185.49 152.85,185.61 153.00,185.29 153.80,185.49 154.30,186.03 155.40,186.36 156.50,186.51 156.70,186.68 156.85,186.13 157.00,184.97 157.05,184.45 157.10,183.58 157.20,181.55 157.30,180.13 157.35,180.36 157.45,182.67 157.50,183.17 157.60,185.26 157.65,186.00 157.75,186.99 157.90,187.21 158.30,186.44 160.40,185.97 160.75,185.93 160.85,185.63 161.10,185.74 161.25,185.43 161.70,185.25 161.75,185.32 161.85,184.94 162.15,184.90 162.45,184.76 162.50,184.55 162.90,184.78 163.30,185.54 164.30,185.99 165.40,186.14 166.20,185.81 166.55,185.55 166.70,185.47 166.90,185.00 167.05,185.06 167.15,184.84 167.95,185.69 168.25,186.39 168.55,186.28 168.65,186.58 168.90,186.62 169.00,186.69 169.40,186.69 169.50,187.00 170.25,187.05 170.50,187.29 170.60,187.03 170.65,186.72 170.80,184.96 170.85,184.28 171.00,181.10 171.05,180.27 171.10,180.55 171.20,181.87 171.45,186.31 171.50,187.03 171.60,187.63 171.70,187.58 172.10,187.08 174.00,186.49 174.55,186.33 174.65,186.53 175.05,185.81 176.45,185.55 177.00,185.91 177.05,185.88 177.15,186.36 177.55,186.36 177.75,186.57 178.25,186.55 178.35,186.73 180.00,186.39 180.35,186.15 180.75,185.58 180.90,185.62 181.00,186.02 181.40,185.73 181.80,186.35 181.85,186.30 181.95,186.66 182.40,186.59 182.55,186.78 182.65,187.02 184.00,186.90 184.10,187.14 184.30,187.08 184.45,186.15 184.60,184.55 184.65,183.58 184.75,180.99 184.80,180.07 184.85,179.58 184.90,179.85 185.05,182.86 185.20,185.61 185.30,186.85 185.45,187.44 185.90,186.87 188.00,186.40 188.10,186.59 189.35,185.79 190.55,185.48 190.70,185.75 190.95,186.09 191.10,186.29 192.15,186.55 193.60,186.27 194.05,185.87 194.40,185.46 194.60,185.34 194.70,185.73 195.05,185.60 195.25,185.81 195.50,186.01 195.70,186.55 196.20,186.54 196.35,186.75 197.85,186.85 197.95,187.14 198.05,186.97 198.20,186.09 198.35,184.58 198.40,183.75 198.55,180.72 198.60,180.21 198.65,180.52 198.75,182.77 199.00,186.55 199.05,187.11 199.10,187.36 199.60,186.70 202.30,185.90 203.35,185.33 203.65,185.03 204.35,185.51 204.65,185.82 204.70,185.98 204.75,185.92 204.90,186.15 205.10,186.33 205.40,186.46 206.95,186.41 207.50,186.18 207.90,185.84 209.25,185.91 209.55,186.23 209.65,186.18 209.75,186.71 210.75,186.58 210.90,186.92 211.55,186.78 211.70,187.24 211.85,186.76 212.00,185.72 212.05,185.31 212.15,183.86 212.20,182.97 212.25,181.80 212.30,180.96 212.35,180.51 212.40,180.73 212.45,181.71 212.50,182.90 212.55,183.65 212.60,184.20 212.70,185.89 212.75,186.58 212.80,187.05 212.95,187.62 213.35,186.84 215.95,186.20 216.70,185.73 217.20,185.32 217.65,185.25 218.55,185.88 218.80,186.36 219.65,186.43 221.15,186.40 221.85,185.94 222.15,185.72 222.90,186.01 223.30,186.37 223.55,186.73 225.30,186.86 225.40,187.19 225.60,187.01 225.75,186.18 225.90,184.57 225.95,183.78 226.00,182.42 226.10,180.42 226.15,180.40 226.25,181.49 226.35,183.40 226.50,185.92 226.65,187.12 226.70,187.32 227.15,186.72 229.50,186.16 230.55,185.54 230.70,185.28 231.15,185.19 231.25,184.86 231.75,185.23 232.50,186.00 233.80,186.30 234.40,186.04 234.75,186.23 235.45,185.77 235.65,185.42 236.90,186.01 237.50,186.47 238.45,186.75 238.85,186.86 239.15,187.11 239.30,187.21 239.55,185.83 239.70,183.75 239.75,182.79 239.85,180.11 239.90,179.41 239.95,179.45 240.00,180.12 240.10,182.40 240.25,184.79 240.40,186.61 240.50,187.38 240.95,186.74 242.20,186.37 242.45,186.31 242.75,186.15 243.25,186.22 243.50,185.68 244.35,185.69 244.45,185.34 244.95,185.16 245.05,185.02 245.90,185.74 246.60,186.01 247.80,186.13 248.75,186.09 248.85,185.90 249.20,185.92 249.30,185.52 250.55,186.06 251.05,186.46 252.80,186.77 252.90,186.65 252.95,186.85"/><path d="M11.0 186.0h1.6v-10.0h4v10.0h1.6" fill="none" stroke="#23272E" stroke-width=".45"/><text x="18" y="168" font-family="Figtree,system-ui,sans-serif" font-size="3.6" font-weight="600" fill="#23272E">II</text><text x="10.0" y="215" font-family="Figtree,system-ui,sans-serif" font-size="3.2" fill="#5E646B">25 mm/s · 10 mm/mV · PTB-XL (PhysioNet), CC BY 4.0 — registro 06997</text></svg>