<svg xmlns="http://www.w3.org/2000/svg" viewBox="0 0 320 250" role="img" aria-label="Ultrassom pulmonar em modo M — sinal da praia"><style>text{font-family:Figtree,system-ui,sans-serif}.t{font-size:12.5px;font-weight:600;fill:#23272E}.l{font-size:10.5px;fill:#5E646B}.k{font-size:10.5px;font-weight:600;fill:#0B6A72}</style><rect width="320" height="250" fill="#FFFFFF"/><text class="t" x="10" y="20">Ultrassom pulmonar em modo M — sinal da praia</text><rect x="16" y="32" width="288" height="180" fill="#111"/><rect x="16" y="32" width="288" height="52" fill="#2A2A2A"/><path d="M16 40h288" stroke="#666" stroke-width="1.3"/><path d="M16 50h288" stroke="#666" stroke-width="1.3"/><path d="M16 60h288" stroke="#666" stroke-width="1.3"/><path d="M16 70h288" stroke="#666" stroke-width="1.3"/><path d="M16 80h288" stroke="#666" stroke-width="1.3"/><path d="M16 88h288" stroke="#EEE" stroke-width="2.4"/><circle cx="20" cy="96" r="1.4" fill="#BBB" opacity=".8"/><circle cx="27" cy="109" r="1.4" fill="#BBB" opacity=".8"/><circle cx="34" cy="122" r="1.4" fill="#BBB" opacity=".8"/><circle cx="41" cy="135" r="1.4" fill="#BBB" opacity=".8"/><circle cx="48" cy="148" r="1.4" fill="#BBB" opacity=".8"/><circle cx="55" cy="161" r="1.4" fill="#BBB" opacity=".8"/><circle cx="62" cy="174" r="1.4" fill="#BBB" opacity=".8"/><circle cx="69" cy="187" r="1.4" fill="#BBB" opacity=".8"/><circle cx="76" cy="200" r="1.4" fill="#BBB" opacity=".8"/><circle cx="83" cy="103" r="1.4" fill="#BBB" opacity=".8"/><circle cx="90" cy="116" r="1.4" fill="#BBB" opacity=".8"/><circle cx="97" cy="129" r="1.4" fill="#BBB" opacity=".8"/><circle cx="104" cy="142" r="1.4" fill="#BBB" opacity=".8"/><circle cx="111" cy="155" r="1.4" fill="#BBB" opacity=".8"/><circle cx="118" cy="168" r="1.4" fill="#BBB" opacity=".8"/><circle cx="125" cy="181" r="1.4" fill="#BBB" opacity=".8"/><circle cx="132" cy="194" r="1.4" fill="#BBB" opacity=".8"/><circle cx="139" cy="97" r="1.4" fill="#BBB" opacity=".8"/><circle cx="146" cy="110" r="1.4" fill="#BBB" opacity=".8"/><circle cx="153" cy="123" r="1.4" fill="#BBB" opacity=".8"/><circle cx="160" cy="136" r="1.4" fill="#BBB" opacity=".8"/><circle cx="167" cy="149" r="1.4" fill="#BBB" opacity=".8"/><circle cx="174" cy="162" r="1.4" fill="#BBB" opacity=".8"/><circle cx="181" cy="175" r="1.4" fill="#BBB" opacity=".8"/><circle cx="188" cy="188" r="1.4" fill="#BBB" opacity=".8"/><circle cx="195" cy="201" r="1.4" fill="#BBB" opacity=".8"/><circle cx="202" cy="104" r="1.4" fill="#BBB" opacity=".8"/><circle cx="209" cy="117" r="1.4" fill="#BBB" opacity=".8"/><circle cx="216" cy="130" r="1.4" fill="#BBB" opacity=".8"/><circle cx="223" cy="143" r="1.4" fill="#BBB" opacity=".8"/><circle cx="230" cy="156" r="1.4" fill="#BBB" opacity=".8"/><circle cx="237" cy="169" r="1.4" fill="#BBB" opacity=".8"/><circle cx="244" cy="182" r="1.4" fill="#BBB" opacity=".8"/><circle cx="251" cy="195" r="1.4" fill="#BBB" opacity=".8"/><circle cx="258" cy="98" r="1.4" fill="#BBB" opacity=".8"/><circle cx="265" cy="111" r="1.4" fill="#BBB" opacity=".8"/><circle cx="272" cy="124" r="1.4" fill="#BBB" opacity=".8"/><circle cx="279" cy="137" r="1.4" fill="#BBB" opacity=".8"/><circle cx="286" cy="150" r="1.4" fill="#BBB" opacity=".8"/><circle cx="293" cy="163" r="1.4" fill="#BBB" opacity=".8"/><circle cx="300" cy="176" r="1.4" fill="#BBB" opacity=".8"/><circle cx="21" cy="189" r="1.4" fill="#BBB" opacity=".8"/><circle cx="28" cy="202" r="1.4" fill="#BBB" opacity=".8"/><circle cx="35" cy="105" r="1.4" fill="#BBB" opacity=".8"/><circle cx="42" cy="118" r="1.4" fill="#BBB" opacity=".8"/><circle cx="49" cy="131" r="1.4" fill="#BBB" opacity=".8"/><circle cx="56" cy="144" r="1.4" fill="#BBB" opacity=".8"/><circle cx="63" cy="157" r="1.4" fill="#BBB" opacity=".8"/><circle cx="70" cy="170" r="1.4" fill="#BBB" opacity=".8"/><circle cx="77" cy="183" r="1.4" fill="#BBB" opacity=".8"/><circle cx="84" cy="196" r="1.4" fill="#BBB" opacity=".8"/><circle cx="91" cy="99" r="1.4" fill="#BBB" opacity=".8"/><circle cx="98" cy="112" r="1.4" fill="#BBB" opacity=".8"/><circle cx="105" cy="125" r="1.4" fill="#BBB" opacity=".8"/><circle cx="112" cy="138" r="1.4" fill="#BBB" opacity=".8"/><circle cx="119" cy="151" r="1.4" fill="#BBB" opacity=".8"/><circle cx="126" cy="164" r="1.4" fill="#BBB" opacity=".8"/><circle cx="133" cy="177" r="1.4" fill="#BBB" opacity=".8"/><circle cx="140" cy="190" r="1.4" fill="#BBB" opacity=".8"/><circle cx="147" cy="203" r="1.4" fill="#BBB" opacity=".8"/><circle cx="154" cy="106" r="1.4" fill="#BBB" opacity=".8"/><circle cx="161" cy="119" r="1.4" fill="#BBB" opacity=".8"/><circle cx="168" cy="132" r="1.4" fill="#BBB" opacity=".8"/><circle cx="175" cy="145" r="1.4" fill="#BBB" opacity=".8"/><circle cx="182" cy="158" r="1.4" fill="#BBB" opacity=".8"/><circle cx="189" cy="171" r="1.4" fill="#BBB" opacity=".8"/><circle cx="196" cy="184" r="1.4" fill="#BBB" opacity=".8"/><circle cx="203" cy="197" r="1.4" fill="#BBB" opacity=".8"/><circle cx="210" cy="100" r="1.4" fill="#BBB" opacity=".8"/><circle cx="217" cy="113" r="1.4" fill="#BBB" opacity=".8"/><circle cx="224" cy="126" r="1.4" fill="#BBB" opacity=".8"/><circle cx="231" cy="139" r="1.4" fill="#BBB" opacity=".8"/><circle cx="238" cy="152" r="1.4" fill="#BBB" opacity=".8"/><circle cx="245" cy="165" r="1.4" fill="#BBB" opacity=".8"/><circle cx="252" cy="178" r="1.4" fill="#BBB" opacity=".8"/><circle cx="259" cy="191" r="1.4" fill="#BBB" opacity=".8"/><circle cx="266" cy="204" r="1.4" fill="#BBB" opacity=".8"/><circle cx="273" cy="107" r="1.4" fill="#BBB" opacity=".8"/><circle cx="280" cy="120" r="1.4" fill="#BBB" opacity=".8"/><circle cx="287" cy="133" r="1.4" fill="#BBB" opacity=".8"/><circle cx="294" cy="146" r="1.4" fill="#BBB" opacity=".8"/><circle cx="301" cy="159" r="1.4" fill="#BBB" opacity=".8"/><circle cx="22" cy="172" r="1.4" fill="#BBB" opacity=".8"/><circle cx="29" cy="185" r="1.4" fill="#BBB" opacity=".8"/><circle cx="36" cy="198" r="1.4" fill="#BBB" opacity=".8"/><circle cx="43" cy="101" r="1.4" fill="#BBB" opacity=".8"/><circle cx="50" cy="114" r="1.4" fill="#BBB" opacity=".8"/><circle cx="57" cy="127" r="1.4" fill="#BBB" opacity=".8"/><circle cx="64" cy="140" r="1.4" fill="#BBB" opacity=".8"/><circle cx="71" cy="153" r="1.4" fill="#BBB" opacity=".8"/><circle cx="78" cy="166" r="1.4" fill="#BBB" opacity=".8"/><circle cx="85" cy="179" r="1.4" fill="#BBB" opacity=".8"/><circle cx="92" cy="192" r="1.4" fill="#BBB" opacity=".8"/><circle cx="99" cy="205" r="1.4" fill="#BBB" opacity=".8"/><circle cx="106" cy="108" r="1.4" fill="#BBB" opacity=".8"/><circle cx="113" cy="121" r="1.4" fill="#BBB" opacity=".8"/><circle cx="120" cy="134" r="1.4" fill="#BBB" opacity=".8"/><circle cx="127" cy="147" r="1.4" fill="#BBB" opacity=".8"/><circle cx="134" cy="160" r="1.4" fill="#BBB" opacity=".8"/><circle cx="141" cy="173" r="1.4" fill="#BBB" opacity=".8"/><circle cx="148" cy="186" r="1.4" fill="#BBB" opacity=".8"/><circle cx="155" cy="199" r="1.4" fill="#BBB" opacity=".8"/><circle cx="162" cy="102" r="1.4" fill="#BBB" opacity=".8"/><circle cx="169" cy="115" r="1.4" fill="#BBB" opacity=".8"/><circle cx="176" cy="128" r="1.4" fill="#BBB" opacity=".8"/><circle cx="183" cy="141" r="1.4" fill="#BBB" opacity=".8"/><circle cx="190" cy="154" r="1.4" fill="#BBB" opacity=".8"/><circle cx="197" cy="167" r="1.4" fill="#BBB" opacity=".8"/><circle cx="204" cy="180" r="1.4" fill="#BBB" opacity=".8"/><circle cx="211" cy="193" r="1.4" fill="#BBB" opacity=".8"/><circle cx="218" cy="96" r="1.4" fill="#BBB" opacity=".8"/><circle cx="225" cy="109" r="1.4" fill="#BBB" opacity=".8"/><circle cx="232" cy="122" r="1.4" fill="#BBB" opacity=".8"/><circle cx="239" cy="135" r="1.4" fill="#BBB" opacity=".8"/><circle cx="246" cy="148" r="1.4" fill="#BBB" opacity=".8"/><circle cx="253" cy="161" r="1.4" fill="#BBB" opacity=".8"/><circle cx="260" cy="174" r="1.4" fill="#BBB" opacity=".8"/><circle cx="267" cy="187" r="1.4" fill="#BBB" opacity=".8"/><circle cx="274" cy="200" r="1.4" fill="#BBB" opacity=".8"/><circle cx="281" cy="103" r="1.4" fill="#BBB" opacity=".8"/><circle cx="288" cy="116" r="1.4" fill="#BBB" opacity=".8"/><circle cx="295" cy="129" r="1.4" fill="#BBB" opacity=".8"/><circle cx="302" cy="142" r="1.4" fill="#BBB" opacity=".8"/><circle cx="23" cy="155" r="1.4" fill="#BBB" opacity=".8"/><circle cx="30" cy="168" r="1.4" fill="#BBB" opacity=".8"/><circle cx="37" cy="181" r="1.4" fill="#BBB" opacity=".8"/><circle cx="44" cy="194" r="1.4" fill="#BBB" opacity=".8"/><circle cx="51" cy="97" r="1.4" fill="#BBB" opacity=".8"/><circle cx="58" cy="110" r="1.4" fill="#BBB" opacity=".8"/><circle cx="65" cy="123" r="1.4" fill="#BBB" opacity=".8"/><circle cx="72" cy="136" r="1.4" fill="#BBB" opacity=".8"/><circle cx="79" cy="149" r="1.4" fill="#BBB" opacity=".8"/><circle cx="86" cy="162" r="1.4" fill="#BBB" opacity=".8"/><circle cx="93" cy="175" r="1.4" fill="#BBB" opacity=".8"/><circle cx="100" cy="188" r="1.4" fill="#BBB" opacity=".8"/><circle cx="107" cy="201" r="1.4" fill="#BBB" opacity=".8"/><circle cx="114" cy="104" r="1.4" fill="#BBB" opacity=".8"/><circle cx="121" cy="117" r="1.4" fill="#BBB" opacity=".8"/><circle cx="128" cy="130" r="1.4" fill="#BBB" opacity=".8"/><circle cx="135" cy="143" r="1.4" fill="#BBB" opacity=".8"/><circle cx="142" cy="156" r="1.4" fill="#BBB" opacity=".8"/><circle cx="149" cy="169" r="1.4" fill="#BBB" opacity=".8"/><circle cx="156" cy="182" r="1.4" fill="#BBB" opacity=".8"/><circle cx="163" cy="195" r="1.4" fill="#BBB" opacity=".8"/><circle cx="170" cy="98" r="1.4" fill="#BBB" opacity=".8"/><circle cx="177" cy="111" r="1.4" fill="#BBB" opacity=".8"/><circle cx="184" cy="124" r="1.4" fill="#BBB" opacity=".8"/><circle cx="191" cy="137" r="1.4" fill="#BBB" opacity=".8"/><circle cx="198" cy="150" r="1.4" fill="#BBB" opacity=".8"/><circle cx="205" cy="163" r="1.4" fill="#BBB" opacity=".8"/><circle cx="212" cy="176" r="1.4" fill="#BBB" opacity=".8"/><circle cx="219" cy="189" r="1.4" fill="#BBB" opacity=".8"/><circle cx="226" cy="202" r="1.4" fill="#BBB" opacity=".8"/><circle cx="233" cy="105" r="1.4" fill="#BBB" opacity=".8"/><circle cx="240" cy="118" r="1.4" fill="#BBB" opacity=".8"/><circle cx="247" cy="131" r="1.4" fill="#BBB" opacity=".8"/><circle cx="254" cy="144" r="1.4" fill="#BBB" opacity=".8"/><circle cx="261" cy="157" r="1.4" fill="#BBB" opacity=".8"/><circle cx="268" cy="170" r="1.4" fill="#BBB" opacity=".8"/><circle cx="275" cy="183" r="1.4" fill="#BBB" opacity=".8"/><circle cx="282" cy="196" r="1.4" fill="#BBB" opacity=".8"/><circle cx="289" cy="99" r="1.4" fill="#BBB" opacity=".8"/><circle cx="296" cy="112" r="1.4" fill="#BBB" opacity=".8"/><circle cx="303" cy="125" r="1.4" fill="#BBB" opacity=".8"/><circle cx="24" cy="138" r="1.4" fill="#BBB" opacity=".8"/><circle cx="31" cy="151" r="1.4" fill="#BBB" opacity=".8"/><circle cx="38" cy="164" r="1.4" fill="#BBB" opacity=".8"/><circle cx="45" cy="177" r="1.4" fill="#BBB" opacity=".8"/><circle cx="52" cy="190" r="1.4" fill="#BBB" opacity=".8"/><circle cx="59" cy="203" r="1.4" fill="#BBB" opacity=".8"/><circle cx="66" cy="106" r="1.4" fill="#BBB" opacity=".8"/><circle cx="73" cy="119" r="1.4" fill="#BBB" opacity=".8"/><circle cx="80" cy="132" r="1.4" fill="#BBB" opacity=".8"/><circle cx="87" cy="145" r="1.4" fill="#BBB" opacity=".8"/><circle cx="94" cy="158" r="1.4" fill="#BBB" opacity=".8"/><circle cx="101" cy="171" r="1.4" fill="#BBB" opacity=".8"/><circle cx="108" cy="184" r="1.4" fill="#BBB" opacity=".8"/><circle cx="115" cy="197" r="1.4" fill="#BBB" opacity=".8"/><circle cx="122" cy="100" r="1.4" fill="#BBB" opacity=".8"/><circle cx="129" cy="113" r="1.4" fill="#BBB" opacity=".8"/><circle cx="136" cy="126" r="1.4" fill="#BBB" opacity=".8"/><circle cx="143" cy="139" r="1.4" fill="#BBB" opacity=".8"/><circle cx="150" cy="152" r="1.4" fill="#BBB" opacity=".8"/><circle cx="157" cy="165" r="1.4" fill="#BBB" opacity=".8"/><circle cx="164" cy="178" r="1.4" fill="#BBB" opacity=".8"/><circle cx="171" cy="191" r="1.4" fill="#BBB" opacity=".8"/><circle cx="178" cy="204" r="1.4" fill="#BBB" opacity=".8"/><circle cx="185" cy="107" r="1.4" fill="#BBB" opacity=".8"/><circle cx="192" cy="120" r="1.4" fill="#BBB" opacity=".8"/><circle cx="199" cy="133" r="1.4" fill="#BBB" opacity=".8"/><circle cx="206" cy="146" r="1.4" fill="#BBB" opacity=".8"/><circle cx="213" cy="159" r="1.4" fill="#BBB" opacity=".8"/><circle cx="220" cy="172" r="1.4" fill="#BBB" opacity=".8"/><circle cx="227" cy="185" r="1.4" fill="#BBB" opacity=".8"/><circle cx="234" cy="198" r="1.4" fill="#BBB" opacity=".8"/><circle cx="241" cy="101" r="1.4" fill="#BBB" opacity=".8"/><circle cx="248" cy="114" r="1.4" fill="#BBB" opacity=".8"/><circle cx="255" cy="127" r="1.4" fill="#BBB" opacity=".8"/><circle cx="262" cy="140" r="1.4" fill="#BBB" opacity=".8"/><circle cx="269" cy="153" r="1.4" fill="#BBB" opacity=".8"/><circle cx="276" cy="166" r="1.4" fill="#BBB" opacity=".8"/><circle cx="283" cy="179" r="1.4" fill="#BBB" opacity=".8"/><circle cx="290" cy="192" r="1.4" fill="#BBB" opacity=".8"/><circle cx="297" cy="205" r="1.4" fill="#BBB" opacity=".8"/><circle cx="304" cy="108" r="1.4" fill="#BBB" opacity=".8"/><circle cx="25" cy="121" r="1.4" fill="#BBB" opacity=".8"/><circle cx="32" cy="134" r="1.4" fill="#BBB" opacity=".8"/><circle cx="39" cy="147" r="1.4" fill="#BBB" opacity=".8"/><circle cx="46" cy="160" r="1.4" fill="#BBB" opacity=".8"/><circle cx="53" cy="173" r="1.4" fill="#BBB" opacity=".8"/><circle cx="60" cy="186" r="1.4" fill="#BBB" opacity=".8"/><circle cx="67" cy="199" r="1.4" fill="#BBB" opacity=".8"/><circle cx="74" cy="102" r="1.4" fill="#BBB" opacity=".8"/><circle cx="81" cy="115" r="1.4" fill="#BBB" opacity=".8"/><circle cx="88" cy="128" r="1.4" fill="#BBB" opacity=".8"/><circle cx="95" cy="141" r="1.4" fill="#BBB" opacity=".8"/><circle cx="102" cy="154" r="1.4" fill="#BBB" opacity=".8"/><circle cx="109" cy="167" r="1.4" fill="#BBB" opacity=".8"/><circle cx="116" cy="180" r="1.4" fill="#BBB" opacity=".8"/><circle cx="123" cy="193" r="1.4" fill="#BBB" opacity=".8"/><text class="k" x="24" y="56" fill="#EEE">linhas paralelas (parede)</text><text class="k" x="24" y="120" fill="#EEE">areia (pulmão deslizando)</text><text class="k" x="200" y="84" fill="#EEE">linha pleural</text></svg>